<svg width="70" height="91" viewBox="0 0 70 91" fill="none" xmlns="http://www.w3.org/2000/svg">
<g clip-path="url(#clip0)">
<path d="M62.754 6.28184V79.8413C62.7531 81.5442 62.0805 83.1772 60.8839 84.3817C59.6874 85.5863 58.0646 86.2639 56.3719 86.2658H24.7231C23.0295 86.2658 21.4053 85.5889 20.2077 84.3841C19.0102 83.1792 18.3374 81.5451 18.3374 79.8413V6.28184C18.3369 5.43817 18.5016 4.60265 18.8221 3.82302C19.1426 3.04338 19.6126 2.33488 20.2052 1.73797C20.7978 1.14107 21.5015 0.667444 22.2761 0.344145C23.0506 0.0208455 23.8809 -0.145798 24.7195 -0.146271H56.3719C57.2105 -0.145798 58.0408 0.0208455 58.8153 0.344145C59.5899 0.667444 60.2936 1.14107 60.8862 1.73797C61.4789 2.33488 61.9488 3.04338 62.2693 3.82302C62.5898 4.60265 62.7545 5.43817 62.754 6.28184Z" fill="#6937FF"/>
<path d="M55.7023 0.945496H25.3857C21.9757 0.945496 19.2113 3.72667 19.2113 7.15742V78.8288C19.2113 82.2595 21.9757 85.0407 25.3857 85.0407H55.7023C59.1123 85.0407 61.8766 82.2595 61.8766 78.8288V7.15742C61.8766 3.72667 59.1123 0.945496 55.7023 0.945496Z" fill="#473F47"/>
<path d="M60.7163 7.86359V77.2649C60.7003 78.8382 60.0638 80.3407 58.947 81.4421C57.8301 82.5435 56.3243 83.1535 54.7604 83.1381H26.3563C25.3187 83.1409 24.2982 82.8728 23.3945 82.3598C22.4885 81.8566 21.7325 81.1189 21.2049 80.2232C20.6773 79.3274 20.397 78.3061 20.3932 77.2649V7.86359C20.4103 6.28932 21.048 4.78627 22.1662 3.68491C23.2844 2.58355 24.7915 1.97404 26.3563 1.99037H31.1554V2.84433C31.1671 3.4047 31.3434 3.94904 31.662 4.40879C31.9807 4.86853 32.4275 5.2231 32.9461 5.42783C33.2884 5.56347 33.6526 5.63431 34.0205 5.63681H47.2144C47.9669 5.6369 48.6892 5.33914 49.2253 4.80787C49.7614 4.2766 50.0683 3.55447 50.0795 2.79749V1.99037H54.7354C56.2732 1.98169 57.7559 2.56576 58.8791 3.62262C59.4584 4.16464 59.9206 4.82095 60.2367 5.55061C60.5528 6.28028 60.7161 7.06764 60.7163 7.86359Z" fill="#6937FF"/>
<path opacity="0.1" d="M60.7163 40.7933V61.0577H43.282C43.043 61.0582 42.8062 61.0111 42.5852 60.9193C42.3643 60.8275 42.1635 60.6927 41.9945 60.5226C41.8255 60.3526 41.6915 60.1506 41.6002 59.9283C41.5089 59.706 41.4622 59.4678 41.4627 59.2273V42.6273C41.4617 42.3868 41.508 42.1485 41.5988 41.926C41.6896 41.7035 41.8232 41.5013 41.992 41.3309C42.1607 41.1605 42.3611 41.0253 42.5819 40.933C42.8027 40.8408 43.0394 40.7933 43.2784 40.7933H60.7163Z" fill="#020202"/>
<path d="M10.745 58.0311H23.7347C23.8462 58.0311 23.9566 58.0532 24.0596 58.0961C24.1625 58.139 24.2561 58.2019 24.3349 58.2812C24.4137 58.3605 24.4763 58.4546 24.5189 58.5582C24.5616 58.6618 24.5835 58.7729 24.5835 58.885C24.5835 59.1115 24.4941 59.3287 24.3349 59.4889C24.1757 59.649 23.9598 59.739 23.7347 59.739H10.745C10.5199 59.739 10.304 59.649 10.1448 59.4889C9.9856 59.3287 9.89618 59.1115 9.89618 58.885C9.89618 58.7729 9.91813 58.6618 9.96079 58.5582C10.0034 58.4546 10.066 58.3605 10.1448 58.2812C10.2236 58.2019 10.3172 58.139 10.4202 58.0961C10.5231 58.0532 10.6335 58.0311 10.745 58.0311Z" fill="#473F47"/>
<path d="M12.8473 53.4622L12.457 56.0277L13.5314 56.1538L14.6989 53.437L12.8473 53.4622Z" fill="#FCBDBA"/>
<path d="M13.8503 55.7754C13.8007 55.7315 13.7562 55.6819 13.7178 55.6277C13.6646 55.6601 13.6053 55.681 13.5437 55.6891C13.482 55.6971 13.4193 55.6922 13.3597 55.6745L12.8261 55.5809C12.7307 55.5706 12.6376 55.545 12.5503 55.5052C12.5443 55.5017 12.5375 55.4999 12.5306 55.4999C12.5237 55.4999 12.5169 55.5017 12.5109 55.5052L12.3927 55.7286C12.1988 56.1235 12.0856 56.5536 12.0596 56.9933C13.0764 57.2342 14.1209 57.336 15.1647 57.296C15.2486 57.3065 15.3337 57.2947 15.4116 57.2619C15.4895 57.229 15.5575 57.1762 15.6088 57.1086C15.6285 57.0631 15.6387 57.0141 15.6387 56.9645C15.6387 56.9149 15.6285 56.8658 15.6088 56.8204C15.5603 56.7158 15.4911 56.6223 15.4056 56.5454C15.32 56.4686 15.2198 56.4102 15.111 56.3736C14.8352 56.2546 14.5523 56.161 14.2801 56.0132C14.1257 55.9563 13.9808 55.8762 13.8503 55.7754Z" fill="#6937FF"/>
<path d="M20.0315 54.2441L19.6948 56.8167L20.7692 56.9212L21.8831 54.1792L20.0315 54.2441Z" fill="#FCBDBA"/>
<path opacity="0.1" d="M56.5478 18.3381V26.2904C56.5478 27.3358 56.135 28.3385 55.4003 29.0777C54.6655 29.817 53.6689 30.2323 52.6298 30.2323H29.6909L20.3792 40.9915V14.3998H52.6119C53.1262 14.3965 53.6362 14.4952 54.1126 14.6903C54.589 14.8853 55.0226 15.173 55.3885 15.5367C55.7543 15.9005 56.0454 16.3332 56.2449 16.8102C56.4445 17.2871 56.5486 17.799 56.5514 18.3165L56.5478 18.3381Z" fill="#020202"/>
<path d="M51.6878 11.0128H25.7405C23.5786 11.0128 21.826 12.7761 21.826 14.9511V22.9106C21.826 25.0857 23.5786 26.8489 25.7405 26.8489H51.6878C53.8498 26.8489 55.6023 25.0857 55.6023 22.9106V14.9511C55.6023 12.7761 53.8498 11.0128 51.6878 11.0128Z" fill="white"/>
<path opacity="0.1" d="M26.3777 24.8816C26.2458 24.8922 26.1132 24.8712 25.9909 24.8203C25.8955 24.7512 25.8148 24.6636 25.7533 24.5628C25.6918 24.462 25.6509 24.3499 25.6328 24.233C24.9917 22.2477 23.6702 20.3091 21.6932 19.7146C21.1775 21.8333 21.2169 24.0384 21.2563 26.2256C21.2563 26.8093 21.3207 27.4759 21.7827 27.8218C22.087 28.0091 22.4399 28.1007 22.7963 28.0848C25.0427 28.1669 27.2742 27.6853 29.2894 26.6832C29.8982 26.3805 31.1446 25.1951 29.9842 24.8095C29.626 24.6906 28.856 24.8708 28.4836 24.8744L26.3777 24.8816Z" fill="#020202"/>
<path d="M54.9792 13.7981C56.5378 13.7981 57.8013 12.5269 57.8013 10.9588C57.8013 9.39069 56.5378 8.11948 54.9792 8.11948C53.4206 8.11948 52.157 9.39069 52.157 10.9588C52.157 12.5269 53.4206 13.7981 54.9792 13.7981Z" fill="#6937FF"/>
<path opacity="0.28" d="M54.9792 13.7981C56.5378 13.7981 57.8013 12.5269 57.8013 10.9588C57.8013 9.39069 56.5378 8.11948 54.9792 8.11948C53.4206 8.11948 52.157 9.39069 52.157 10.9588C52.157 12.5269 53.4206 13.7981 54.9792 13.7981Z" fill="#020202"/>
<path d="M29.2717 16.0717H47.6121C47.8182 16.0717 48.0159 16.1541 48.1617 16.3007C48.3074 16.4474 48.3893 16.6462 48.3893 16.8536C48.3893 17.061 48.3074 17.2599 48.1617 17.4065C48.0159 17.5531 47.8182 17.6355 47.6121 17.6355H29.2717C29.0656 17.6355 28.8679 17.5531 28.7222 17.4065C28.5764 17.2599 28.4946 17.061 28.4946 16.8536C28.4946 16.6462 28.5764 16.4474 28.7222 16.3007C28.8679 16.1541 29.0656 16.0717 29.2717 16.0717Z" fill="#6937FF"/>
<path d="M47.6121 20.2407H29.2717C28.8425 20.2407 28.4946 20.5907 28.4946 21.0226C28.4946 21.4544 28.8425 21.8044 29.2717 21.8044H47.6121C48.0413 21.8044 48.3893 21.4544 48.3893 21.0226C48.3893 20.5907 48.0413 20.2407 47.6121 20.2407Z" fill="#6937FF"/>
<path d="M12.7545 35.5794L14.3482 44.5082L12.7545 54.1143L15.3402 54.3125L19.1079 43.4957L17.8293 34.9236L12.7545 35.5794Z" fill="#473F47"/>
<path d="M21.6792 34.9236L24.5515 46.807L22.2272 54.9935L19.9315 54.8746L20.2502 47.8916L16.1996 36.6063L21.6792 34.9236Z" fill="#473F47"/>
<path d="M29.6012 25.0689C29.9453 24.8634 30.3151 24.7046 30.7007 24.5969C30.7608 24.5707 30.8263 24.5593 30.8917 24.5637C30.9571 24.5681 31.0206 24.5881 31.0767 24.6221C31.1368 24.6782 31.176 24.7532 31.1878 24.8347C31.2487 25.0966 31.2274 25.371 31.1269 25.6202C31.5616 25.8606 32.0171 26.0608 32.4878 26.2184C32.5861 26.235 32.6799 26.2721 32.7632 26.3274C32.8465 26.3826 32.9173 26.4547 32.9713 26.5391C33.0008 26.627 33.0033 26.7218 32.9783 26.8112C32.9534 26.9005 32.9023 26.9802 32.8316 27.0399C32.6886 27.1556 32.5184 27.2325 32.3374 27.2633C31.1555 27.5407 29.2323 27.2633 28.953 25.8436C28.8921 25.5338 29.0031 25.4833 29.2502 25.2996C29.3648 25.2167 29.4794 25.141 29.6012 25.0689Z" fill="#FCBDBA"/>
<path d="M20.7087 14.1007C20.9801 14.6408 21.1535 15.2253 21.2208 15.8267C21.2519 16.1275 21.2044 16.4312 21.0832 16.708C20.962 16.9847 20.7712 17.2249 20.5296 17.4049C20.3837 17.4745 20.2466 17.5617 20.1213 17.6643C19.6916 18.1111 20.1858 18.9218 19.9351 19.4983C19.838 19.688 19.6739 19.8342 19.4751 19.9082C19.2762 19.9822 19.0571 19.9787 18.8607 19.8983C18.6664 19.8098 18.4942 19.6788 18.3567 19.5149C18.2191 19.3509 18.1197 19.1582 18.0656 18.9506C17.9542 18.5314 17.9048 18.098 17.9188 17.6643L17.8758 15.0808C17.8153 14.5069 17.9042 13.927 18.1337 13.3981C18.288 13.1282 18.5135 12.9066 18.7853 12.7578C19.0572 12.609 19.3646 12.5388 19.6737 12.555C20.3112 12.6486 20.4938 13.5927 20.7087 14.1007Z" fill="#FCBDBA"/>
<path d="M29.6618 26.9895C29.6618 26.9895 24.7409 31.4106 24.3899 31.4106C24.0389 31.4106 21.8579 28.6325 21.8579 28.6325L21.6788 34.9237C21.0701 35.2828 20.437 35.5982 19.7842 35.8678C18.7098 36.3074 17.3739 36.7145 16.2028 36.5884C13.8104 36.3686 12.7575 35.5615 12.7575 35.5615L14.2295 20.7415C14.2295 20.7415 17.0158 18.7273 17.9685 19.0336C18.6495 19.1561 19.3467 19.1561 20.0278 19.0336C21.403 18.8498 22.8105 20.7415 22.8105 20.7415L24.637 26.7877L28.9347 25.2527C29.2165 25.434 29.4369 25.6972 29.5667 26.0073C29.6966 26.3175 29.7297 26.66 29.6618 26.9895Z" fill="white"/>
<path d="M21.2526 11.3191C21.2849 10.9938 21.2094 10.667 21.0377 10.3894C20.7047 9.92463 20.0314 9.8814 19.4762 10.0075C19.0949 10.1135 18.7253 10.2584 18.3732 10.4399C18.1165 10.548 17.8356 10.5841 17.5602 10.5444C16.8283 10.5344 16.1192 10.8005 15.5725 11.2902C14.8276 12.0109 14.6485 13.0594 14.5733 14.0467C14.4909 15.1637 14.9923 16.0861 15.7158 16.9293C16.3425 17.6715 17.4742 18.3994 18.2872 17.4625C18.647 16.9848 18.8111 16.3864 18.7456 15.7906C18.5494 15.7748 18.3634 15.6964 18.2145 15.5668C18.0657 15.4372 17.962 15.2631 17.9183 15.07C17.8885 14.95 17.8932 14.824 17.9319 14.7066C17.9706 14.5892 18.0417 14.4853 18.1368 14.407C18.1953 14.371 18.2603 14.347 18.328 14.3364C18.3957 14.3258 18.4649 14.3288 18.5315 14.3452C18.5981 14.3616 18.6608 14.3911 18.716 14.432C18.7712 14.4729 18.8178 14.5244 18.8531 14.5836C18.8743 14.6211 18.8911 14.661 18.9032 14.7025C19.0202 14.4653 19.1045 14.2131 19.1539 13.953C19.2506 13.7044 19.5622 13.4882 19.7663 13.6539C19.8845 13.7512 19.9562 13.9566 20.1066 13.9242C20.1567 13.9061 20.2003 13.8735 20.2319 13.8305C20.5286 13.5428 20.7799 13.211 20.9769 12.8468C21.1558 12.4151 21.2494 11.9525 21.2526 11.4848C21.249 11.438 21.2526 11.3767 21.2526 11.3191Z" fill="#FC682D"/>
<path d="M11.583 10.7569C11.0658 10.6932 10.5415 10.7906 10.081 11.0361C9.62053 11.2816 9.246 11.6633 9.00799 12.1298C8.43855 13.3008 8.84683 14.6808 8.93994 15.9816C9.02494 16.4328 8.95497 16.8997 8.74152 17.3056C8.52807 17.7115 8.18381 18.0324 7.76524 18.2156C6.85198 18.7669 5.80621 19.138 5.07561 19.9199C4.50167 20.5633 4.16308 21.3844 4.11579 22.2476C4.06847 22.6084 4.1309 22.9752 4.29486 23.2997C4.45552 23.5377 4.66419 23.7391 4.90728 23.8906C5.57998 24.3833 6.34371 24.7359 7.15366 24.9278C7.96361 25.1196 8.80347 25.1467 9.62399 25.0076C11.25 24.6725 12.7147 23.4042 13.0586 21.7647C13.4167 20.0352 12.5464 18.3165 12.2169 16.5833C12.1547 16.3802 12.1343 16.1665 12.1571 15.9552C12.1799 15.7439 12.2453 15.5396 12.3494 15.3546C12.6216 14.9943 13.1302 14.9006 13.5206 14.6664C15.6622 13.4017 13.1517 10.9803 11.583 10.7569Z" fill="#FC682D"/>
<path d="M14.6274 12.4398H14.5951C14.1461 12.4398 13.7822 12.806 13.7822 13.2577V13.2901C13.7822 13.7418 14.1461 14.108 14.5951 14.108H14.6274C15.0764 14.108 15.4404 13.7418 15.4404 13.2901V13.2577C15.4404 12.806 15.0764 12.4398 14.6274 12.4398Z" fill="#6937FF"/>
<path d="M21.0811 56.5393C21.0303 56.4954 20.9846 56.4458 20.945 56.3915C20.8922 56.4249 20.8332 56.447 20.7715 56.4563C20.7099 56.4656 20.647 56.462 20.5868 56.4456L20.0496 56.3663C19.9543 56.3561 19.8612 56.3305 19.7738 56.2906H19.7345L19.6234 56.5177C19.4378 56.9168 19.3331 57.3492 19.3154 57.7896C20.3374 58.0096 21.3845 58.0884 22.4277 58.0238C22.5111 58.0337 22.5957 58.0209 22.6726 57.9867C22.7495 57.9524 22.8158 57.898 22.8646 57.8292C22.8843 57.7838 22.8945 57.7347 22.8945 57.6851C22.8945 57.6355 22.8843 57.5864 22.8646 57.541C22.8133 57.4383 22.7422 57.3469 22.6556 57.272C22.5689 57.1972 22.4683 57.1404 22.3596 57.105C22.0803 56.9933 21.7938 56.9032 21.5216 56.7735C21.3649 56.7157 21.2167 56.6369 21.0811 56.5393Z" fill="#6937FF"/>
<path d="M21.3102 59.7282H19.6627L18.3448 63.3062H11.5401L12.858 59.7282H11.2106L-0.357361 91.1806H1.29009L2.43614 88.071H9.24081L8.09476 91.1806H9.74221L10.8883 88.071H10.9348V87.9377L21.2242 59.9696V91.1806H22.8752V59.7282H21.3102ZM17.8935 64.5169L16.1816 69.201H9.37691L11.096 64.5169H17.8935ZM7.21374 75.0743L8.92923 70.4117H15.7339L14.0184 75.0743H7.21374ZM13.5636 76.2957L11.8517 80.9583H5.04699L6.76248 76.2957H13.5636ZM2.8874 86.8567L4.59931 82.1726H11.404L9.68491 86.8567H2.8874Z" fill="#6937FF"/>
<path d="M21.3102 59.7282H19.6627L18.3448 63.3062H11.5401L12.858 59.7282H11.2106L-0.357361 91.1806H1.29009L2.43614 88.071H9.24081L8.09476 91.1806H9.74221L10.8883 88.071H10.9348V87.9377L21.2242 59.9696V91.1806H22.8752V59.7282H21.3102ZM17.8935 64.5169L16.1816 69.201H9.37691L11.096 64.5169H17.8935ZM7.21374 75.0743L8.92923 70.4117H15.7339L14.0184 75.0743H7.21374ZM13.5636 76.2957L11.8517 80.9583H5.04699L6.76248 76.2957H13.5636ZM2.8874 86.8567L4.59931 82.1726H11.404L9.68491 86.8567H2.8874Z" fill="url(#paint0_linear)"/>
<path d="M68.0797 38.6134H43.282C42.2772 38.6134 41.4626 39.4329 41.4626 40.4438V57.0438C41.4626 58.0547 42.2772 58.8742 43.282 58.8742H68.0797C69.0845 58.8742 69.899 58.0547 69.899 57.0438V40.4438C69.899 39.4329 69.0845 38.6134 68.0797 38.6134Z" fill="white"/>
<path opacity="0.1" d="M37.9602 40.9916H26.9259C26.378 40.9916 25.9338 41.4384 25.9338 41.9897V41.9933C25.9338 42.5445 26.378 42.9914 26.9259 42.9914H37.9602C38.5081 42.9914 38.9523 42.5445 38.9523 41.9933V41.9897C38.9523 41.4384 38.5081 40.9916 37.9602 40.9916Z" fill="#020202"/>
<path opacity="0.1" d="M37.9602 44.9586H26.9259C26.378 44.9586 25.9338 45.4055 25.9338 45.9567V45.9603C25.9338 46.5115 26.378 46.9584 26.9259 46.9584H37.9602C38.5081 46.9584 38.9523 46.5115 38.9523 45.9603V45.9567C38.9523 45.4055 38.5081 44.9586 37.9602 44.9586Z" fill="#020202"/>
<path opacity="0.1" d="M37.9602 48.9258H26.9259C26.378 48.9258 25.9338 49.3726 25.9338 49.9239V49.9275C25.9338 50.4787 26.378 50.9256 26.9259 50.9256H37.9602C38.5081 50.9256 38.9523 50.4787 38.9523 49.9275V49.9239C38.9523 49.3726 38.5081 48.9258 37.9602 48.9258Z" fill="#020202"/>
<path d="M65.5512 56.0745H45.8105V41.4131H46.1686V55.7142H65.5512V56.0745Z" fill="#6937FF"/>
<path d="M46.0434 50.8067L45.8571 50.4968L50.8353 47.4196L58.1521 48.5583L64.6165 44.8037L64.7956 45.1136L58.2201 48.933L58.1593 48.9222L50.9105 47.7944L46.0434 50.8067Z" fill="#6937FF"/>
<path d="M51.0932 48.4285C51.5244 48.4285 51.874 48.0768 51.874 47.643C51.874 47.2092 51.5244 46.8575 51.0932 46.8575C50.6621 46.8575 50.3125 47.2092 50.3125 47.643C50.3125 48.0768 50.6621 48.4285 51.0932 48.4285Z" fill="#6937FF"/>
<path d="M58.1878 49.5274C58.619 49.5274 58.9685 49.1757 58.9685 48.7419C58.9685 48.3081 58.619 47.9564 58.1878 47.9564C57.7566 47.9564 57.407 48.3081 57.407 48.7419C57.407 49.1757 57.7566 49.5274 58.1878 49.5274Z" fill="#6937FF"/>
<path d="M64.5736 45.863C65.0048 45.863 65.3543 45.5113 65.3543 45.0775C65.3543 44.6437 65.0048 44.292 64.5736 44.292C64.1424 44.292 63.7928 44.6437 63.7928 45.0775C63.7928 45.5113 64.1424 45.863 64.5736 45.863Z" fill="#6937FF"/>
<path opacity="0.28" d="M51.0932 48.4285C51.5244 48.4285 51.874 48.0768 51.874 47.643C51.874 47.2092 51.5244 46.8575 51.0932 46.8575C50.6621 46.8575 50.3125 47.2092 50.3125 47.643C50.3125 48.0768 50.6621 48.4285 51.0932 48.4285Z" fill="#020202"/>
<path opacity="0.28" d="M58.1878 49.5274C58.619 49.5274 58.9685 49.1757 58.9685 48.7419C58.9685 48.3081 58.619 47.9564 58.1878 47.9564C57.7566 47.9564 57.407 48.3081 57.407 48.7419C57.407 49.1757 57.7566 49.5274 58.1878 49.5274Z" fill="#020202"/>
<path opacity="0.28" d="M64.5736 45.863C65.0048 45.863 65.3543 45.5113 65.3543 45.0775C65.3543 44.6437 65.0048 44.292 64.5736 44.292C64.1424 44.292 63.7928 44.6437 63.7928 45.0775C63.7928 45.5113 64.1424 45.863 64.5736 45.863Z" fill="#020202"/>
</g>
<defs>
<linearGradient id="paint0_linear" x1="33.6732" y1="65.1438" x2="-18.5308" y2="97.1204" gradientUnits="userSpaceOnUse">
<stop offset="0.01"/>
<stop offset="0.08" stop-opacity="0.69"/>
<stop offset="0.21" stop-opacity="0.32"/>
<stop offset="1" stop-opacity="0"/>
</linearGradient>
<clipPath id="clip0">
<rect width="70" height="91" fill="white"/>
</clipPath>
</defs>
</svg>
