<svg width="214" height="160" viewBox="0 0 214 160" fill="none" xmlns="http://www.w3.org/2000/svg">
<path opacity="0.3" d="M49.9147 46.048C34.6187 55.36 25.5574 72.4533 26.9814 90.3146C27.7334 99.4293 31.1254 108.229 40.0907 113.067C64 125.867 168.379 126.107 183.829 103.467C199.28 80.8266 193.531 48.6187 159.936 35.2C130.811 23.536 89.4027 22 49.9147 46.048Z" fill="#E6E6E6"/>
<path opacity="0.58" d="M154.03 37.4322L142.933 42.4171L149.802 57.7079L160.899 52.723L154.03 37.4322Z" fill="#C9C9C9"/>
<path d="M86.6934 55.824L74.3254 61.296C69.8216 63.2831 64.8157 63.8371 59.9864 62.8831C55.157 61.9291 50.7379 59.5131 47.328 55.9627L35.152 43.28L30.512 46.48L40.752 61.9467C45.0771 68.472 51.1745 73.6274 58.3281 76.8074C65.4816 79.9874 73.3941 81.0598 81.136 79.8987L99.1147 77.2054L86.6934 55.824Z" fill="#6937FF"/>
<path opacity="0.46" d="M86.6934 55.824L74.3254 61.296C69.8216 63.2831 64.8157 63.8371 59.9864 62.8831C55.157 61.9291 50.7379 59.5131 47.328 55.9627L35.152 43.28L30.512 46.48L40.752 61.9467C45.0771 68.472 51.1745 73.6274 58.3281 76.8074C65.4816 79.9874 73.3941 81.0598 81.136 79.8987L99.1147 77.2054L86.6934 55.824Z" fill="white"/>
<path d="M153.851 66.3732C153.851 66.3732 167.184 61.6212 176.784 72.2399C186.384 82.8586 190.651 102.107 190.651 102.107C190.651 102.107 160.784 88.2399 145.317 102.107C129.851 115.973 103.808 100.8 103.808 100.8L95.1253 71.1519L88.8 58.5652L103.808 52.0532L123.717 52.4106L131.733 60.7999L139.733 68.0266L153.851 66.3732Z" fill="#FFD200"/>
<path opacity="0.08" d="M153.851 66.3732C153.851 66.3732 167.184 61.6212 176.784 72.2399C186.384 82.8586 190.651 102.107 190.651 102.107C190.651 102.107 160.784 88.2399 145.317 102.107C129.851 115.973 103.808 100.8 103.808 100.8L95.1253 71.1519L88.8 58.5652L103.808 52.0532L123.717 52.4106L131.733 60.7999L139.733 68.0266L153.851 66.3732Z" fill="black"/>
<path d="M122.32 125.168C122.32 125.168 124.523 127.104 123.803 129.499C123.083 131.893 125.115 133.403 126.528 131.547C127.941 129.691 127.387 123.259 127.387 123.259L123.061 121.771L122.32 125.168Z" fill="#6937FF"/>
<path d="M159.744 127.744C159.744 127.744 162.597 128.432 163.077 130.891C163.557 133.349 166.053 133.728 166.443 131.424C166.832 129.12 163.333 123.691 163.333 123.691L158.816 124.395L159.744 127.744Z" fill="#6937FF"/>
<path d="M97.1414 102.037L116.757 116.032C126.901 123.269 138.923 127.414 151.371 127.968L159.541 128.331V123.883L146.379 119.467C141.356 117.771 136.803 114.917 133.088 111.136L120.075 97.8879L97.1414 102.037Z" fill="#24285B"/>
<path opacity="0.08" d="M97.1414 102.037L116.757 116.032C126.901 123.269 138.923 127.414 151.371 127.968L159.541 128.331V123.883L146.379 119.467C141.356 117.771 136.803 114.917 133.088 111.136L120.075 97.8879L97.1414 102.037Z" fill="black"/>
<path opacity="0.75" d="M194.418 122.648L182.216 120.239L178.896 137.055L191.097 139.465L194.418 122.648Z" fill="#E6E6E6"/>
<path opacity="0.75" d="M107.624 128.002L98.285 133.394L105.714 146.262L115.054 140.87L107.624 128.002Z" fill="#E6E6E6"/>
<path d="M83.6694 40.3467C83.6694 40.3467 82.304 43.2533 82.0694 45.4347C82.0458 45.6466 82.0649 45.8611 82.1254 46.0656C82.1859 46.2701 82.2867 46.4604 82.4219 46.6254C82.5571 46.7904 82.7238 46.9267 82.9124 47.0263C83.101 47.1258 83.3076 47.1867 83.52 47.2053C84.1962 47.3132 84.8891 47.2242 85.5161 46.949C86.1431 46.6738 86.6777 46.224 87.056 45.6533L88.9227 43.3493C89.2543 42.848 89.4207 42.2556 89.3987 41.655C89.3767 41.0544 89.1674 40.4757 88.8 40C87.552 38.176 84.4107 38.5333 83.6694 40.3467Z" fill="#F4A28C"/>
<path d="M87.5787 43.728L89.888 53.9894L84.144 54.864L84.768 47.0454L87.5787 43.728Z" fill="#F4A28C"/>
<path d="M84.3733 40.7466C85.2903 41.1238 86.2478 41.394 87.2267 41.5519C86.8063 41.8618 86.4862 42.2883 86.3061 42.7785C86.126 43.2687 86.0937 43.8009 86.2133 44.3093C86.3185 44.8044 86.5925 45.2476 86.9885 45.5628C87.3846 45.8781 87.8779 46.0458 88.384 46.0373L89.76 42.1333C89.9763 41.5841 90.0409 40.9869 89.9471 40.4042C89.8532 39.8215 89.6044 39.2748 89.2267 38.8213C88.8948 38.4311 88.5385 38.0624 88.16 37.7173C87.2107 36.8586 85.3067 37.0026 84.5813 35.8826C84.5082 35.7703 84.4072 35.6789 84.2881 35.6174C84.1691 35.5559 84.0361 35.5264 83.9022 35.5318C83.7683 35.5371 83.6381 35.5772 83.5243 35.6481C83.4106 35.7189 83.3172 35.8181 83.2533 35.9359C82.6453 37.0506 82.1867 38.9813 83.5307 40.2026C83.7803 40.4283 84.0649 40.612 84.3733 40.7466Z" fill="#24285B"/>
<path d="M85.9253 44.1013C85.9253 44.1013 86.3733 42.9493 87.2106 43.36C88.048 43.7706 87.4133 45.44 86.144 45.1626L85.9253 44.1013Z" fill="#F4A28C"/>
<path d="M82.9067 42.224L81.6374 43.072C81.5695 43.1234 81.5149 43.1903 81.4781 43.2671C81.4414 43.3439 81.4236 43.4284 81.4262 43.5136C81.4288 43.5987 81.4518 43.6819 81.4932 43.7563C81.5345 43.8308 81.5931 43.8942 81.664 43.9413L82.7307 44.5813L82.9067 42.224Z" fill="#F4A28C"/>
<path opacity="0.31" d="M84.8747 47.2853C85.6148 47.208 86.3158 46.915 86.8907 46.4426C86.8907 46.4426 87.0187 48.3786 84.6614 49.9626L84.8747 47.2853Z" fill="#CE8172"/>
<path d="M84.144 54.864L89.888 53.9947C89.888 53.9947 119.184 45.7334 123.451 63.3067C127.717 80.88 127.216 92.4854 127.216 92.4854L107.451 102.085C107.451 102.085 53.0507 80 84.144 54.864Z" fill="#6937FF"/>
<path d="M92.731 70.0446L77.7518 74.106L83.3777 94.8555L98.3569 90.7941L92.731 70.0446Z" fill="#24285B"/>
<path d="M86.7493 70.1587L81.5812 71.5599L82.3419 74.3653L87.5099 72.9641L86.7493 70.1587Z" fill="#FFD200"/>
<path opacity="0.08" d="M96.9067 65.8507C96.9067 65.8507 93.7067 73.7814 105.717 76.3414C117.728 78.9014 117.717 87.0081 109.851 87.4827C101.984 87.9574 90.3681 83.7014 90.5761 92.9067C90.5761 92.9067 99.7174 99.1734 107.451 102.107L127.216 92.5067V91.2801L128.251 74.1334L117.984 64.2667L96.9067 65.8507Z" fill="black"/>
<path d="M95.744 60.7252C96.496 55.2479 101.648 51.4986 107.141 52.1226C114.677 52.9759 126.101 56.3466 131.392 68.4319C139.659 87.3226 134.592 99.1092 95.1253 87.4826L96.192 83.0559C96.192 83.0559 122.859 86.2559 121.259 77.8452C119.909 70.7679 94.0106 73.4026 95.744 60.7252Z" fill="#6937FF"/>
<path opacity="0.46" d="M95.744 60.7252C96.496 55.2479 101.648 51.4986 107.141 52.1226C114.677 52.9759 126.101 56.3466 131.392 68.4319C139.659 87.3226 134.592 99.1092 95.1253 87.4826L96.192 83.0559C96.192 83.0559 122.859 86.2559 121.259 77.8452C119.909 70.7679 94.0106 73.4026 95.744 60.7252Z" fill="white"/>
<path d="M87.888 51.2746C84.6675 51.9586 81.6904 53.4969 79.2693 55.7279C77.968 56.8902 76.9391 58.3251 76.256 59.9306C74.384 64.7733 84.7893 66.0159 97.328 61.1253C109.867 56.2346 115.461 52.2933 125.595 58.7999C135.728 65.3066 139.995 72.7733 153.861 66.3733C153.861 66.3733 137.328 66.3733 131.995 53.8506C127.552 43.4293 97.8186 49.0666 87.888 51.2746Z" fill="#FFD200"/>
<path d="M96.192 83.056C96.192 83.056 92.5173 79.4666 89.984 80C87.4507 80.5333 88.9173 85.7973 95.1253 87.5093L96.192 83.056Z" fill="#F4A28C"/>
<path d="M127.216 92.4854C127.216 92.4854 88.8959 97.2854 90.5759 106.885C92.2559 116.485 122.651 126.085 122.651 126.085L125.051 121.285L105.317 107.152C105.317 107.152 138.715 115.131 127.216 92.4854Z" fill="#24285B"/>
<path d="M30.512 46.4587C30.512 46.4587 21.9787 45.3227 24.2933 42.928C26.608 40.5333 35.152 43.28 35.152 43.28L30.512 46.4587Z" fill="#F4A28C"/>
<path d="M21.2053 15.1093H37.8666C37.8666 15.1093 39.6053 28.2666 29.5253 28.2666C29.5253 28.2666 19.8986 28.5813 21.2053 15.1093Z" fill="#FFD200"/>
<path d="M29.536 17.6481C34.1369 17.6481 37.8667 16.5831 37.8667 15.2694C37.8667 13.9557 34.1369 12.8907 29.536 12.8907C24.9351 12.8907 21.2053 13.9557 21.2053 15.2694C21.2053 16.5831 24.9351 17.6481 29.536 17.6481Z" fill="#FFD200"/>
<path opacity="0.08" d="M29.536 17.6481C34.1369 17.6481 37.8667 16.5831 37.8667 15.2694C37.8667 13.9557 34.1369 12.8907 29.536 12.8907C24.9351 12.8907 21.2053 13.9557 21.2053 15.2694C21.2053 16.5831 24.9351 17.6481 29.536 17.6481Z" fill="black"/>
<path d="M33.424 33.8667H25.0667V42.224H33.424V33.8667Z" fill="#24285B"/>
<path d="M30.5174 25.6694H28.7361V33.8721H30.5174V25.6694Z" fill="#FFD200"/>
<path d="M22.4 19.9093H19.424C18.5625 19.9093 17.7364 20.2515 17.1273 20.8606C16.5182 21.4697 16.176 22.2959 16.176 23.1573V23.1573C16.1774 24.0178 16.5202 24.8426 17.1292 25.4505C17.7381 26.0585 18.5635 26.4 19.424 26.4H27.9093" stroke="#FFD200" stroke-width="3" stroke-miterlimit="10"/>
<path d="M36.672 19.9093H39.648C40.5094 19.9093 41.3356 20.2515 41.9447 20.8606C42.5538 21.4697 42.896 22.2959 42.896 23.1573V23.1573C42.8946 24.0178 42.5518 24.8426 41.9428 25.4505C41.3339 26.0585 40.5085 26.4 39.648 26.4H31.1627" stroke="#FFD200" stroke-width="3" stroke-miterlimit="10"/>
<path opacity="0.46" d="M26.7573 25.1307C28.3391 25.1307 29.6213 23.8485 29.6213 22.2667C29.6213 20.685 28.3391 19.4027 26.7573 19.4027C25.1756 19.4027 23.8933 20.685 23.8933 22.2667C23.8933 23.8485 25.1756 25.1307 26.7573 25.1307Z" fill="white"/>
</svg>
