<svg width="119" height="90" viewBox="0 0 119 90" fill="none" xmlns="http://www.w3.org/2000/svg">
<g clip-path="url(#clip0)">
<path d="M95.8941 25.1039H25.6625C23.3577 25.1039 21.4894 26.9576 21.4894 29.2442V71.3438C21.4894 73.6304 23.3577 75.484 25.6625 75.484H95.8941C98.1988 75.484 100.067 73.6304 100.067 71.3438V29.2442C100.067 26.9576 98.1988 25.1039 95.8941 25.1039Z" fill="#6937FF"/>
<path d="M93.5786 27.0516H27.3118C25.1363 27.0516 23.3728 28.8013 23.3728 30.9597V70.6833C23.3728 72.8417 25.1363 74.5914 27.3118 74.5914H93.5786C95.7541 74.5914 97.5176 72.8417 97.5176 70.6833V30.9597C97.5176 28.8013 95.7541 27.0516 93.5786 27.0516Z" fill="white"/>
<path opacity="0.14" d="M26.2919 54.8467H4.75848C2.94957 54.8467 1.48315 56.3016 1.48315 58.0963V63.6685C1.48315 65.4632 2.94957 66.9181 4.75848 66.9181H26.2919C28.1008 66.9181 29.5672 65.4632 29.5672 63.6685V58.0963C29.5672 56.3016 28.1008 54.8467 26.2919 54.8467Z" fill="#6937FF"/>
<path opacity="0.14" d="M113.978 55.4624H92.4444C90.6355 55.4624 89.1691 56.9173 89.1691 58.712V64.2842C89.1691 66.0789 90.6355 67.5338 92.4444 67.5338H113.978C115.787 67.5338 117.253 66.0789 117.253 64.2842V58.712C117.253 56.9173 115.787 55.4624 113.978 55.4624Z" fill="#6937FF"/>
<path opacity="0.14" d="M114.546 27.9019H93.013C91.2041 27.9019 89.7377 29.3567 89.7377 31.1514V36.7237C89.7377 38.5184 91.2041 39.9732 93.013 39.9732H114.546C116.355 39.9732 117.822 38.5184 117.822 36.7237V31.1514C117.822 29.3567 116.355 27.9019 114.546 27.9019Z" fill="#6937FF"/>
<path opacity="0.11" d="M56.2118 40.8447H34.077C32.3606 40.8447 30.9692 42.2251 30.9692 43.928V68.1454C30.9692 69.8483 32.3606 71.2288 34.077 71.2288H56.2118C57.9282 71.2288 59.3196 69.8483 59.3196 68.1454V43.928C59.3196 42.2251 57.9282 40.8447 56.2118 40.8447Z" fill="#6937FF"/>
<path opacity="0.14" d="M29.6573 49.4002C29.6573 49.4002 29.0474 51.8166 30.9975 53.0227C32.9477 54.2287 40.3811 50.9664 44.8892 50.4827C49.3974 49.999 58.6649 51.8166 58.6649 51.8166C58.6649 51.8166 56.9467 54.9618 57.0756 58.467C57.2045 61.9723 57.4407 64.7531 57.0756 65.3583C56.7105 65.9634 59.146 68.3798 59.5111 68.5013C59.8763 68.6228 63.1623 68.8636 63.1623 68.8636L67.3053 74.9088L77.8444 74.6851L71.3668 53.4552L74.496 42.9926L45.5013 39.2444L29.6573 49.4002Z" fill="#6937FF"/>
<path d="M24.006 75.1027L9.39697 86.015H111.667L97.384 74.9408L24.006 75.1027Z" fill="#6937FF"/>
<path d="M24.006 75.1027L9.39697 86.015H111.667L97.384 74.9408L24.006 75.1027Z" fill="url(#paint0_linear)"/>
<path d="M13.5829 90.006L9.39697 86.0149H111.667L107.891 90.2511L13.5829 90.006Z" fill="#6937FF"/>
<path d="M13.5829 90.006L9.39697 86.0149H111.667L107.891 90.2511L13.5829 90.006Z" fill="url(#paint1_linear)"/>
<path opacity="0.58" d="M49.04 84.3059L53.3914 80.8859L69.3127 80.8028L73.9089 84.225L49.04 84.3059Z" fill="#6937FF"/>
<path opacity="0.58" d="M18.7528 80.2616L101.489 80.1529L97.0578 76.5688H23.843L18.7528 80.2616Z" fill="#6937FF"/>
<path d="M69.5113 68.8955C69.0345 68.2562 68.1947 68.0048 67.4408 67.7192C64.4898 66.5941 62.1638 64.2949 60.0977 61.9254C59.6187 61.3777 59.1376 60.8024 58.9271 60.1077C58.8028 59.6828 58.7844 59.2343 58.8734 58.8008C58.9625 58.3673 59.1563 57.9617 59.4383 57.6189C59.5545 57.4944 59.6608 57.3612 59.7562 57.2204C59.8659 57.0052 59.9385 56.7733 59.9709 56.5343C60.1148 55.8226 60.4499 55.0086 61.1672 54.8637C61.329 54.8496 61.4887 54.8189 61.644 54.772C61.9018 54.6591 62.0264 54.3736 62.138 54.1157C62.5526 53.1654 63.2398 52.1703 64.275 52.0424C64.4083 52.0412 64.5399 52.0129 64.6616 51.9593C64.9494 51.7952 64.9108 51.384 64.9752 51.0601C65.1341 50.2525 66.135 49.8412 66.9468 50.0138C67.7587 50.1864 68.4116 50.766 69.0237 51.32L71.3734 53.4509C72.0048 54.022 72.662 54.6165 73.5061 54.8168C73.5758 54.8409 73.6497 54.8511 73.7234 54.8467C73.7972 54.8423 73.8693 54.8235 73.9356 54.7912C74.0025 54.7319 74.0562 54.6594 74.0931 54.5783C74.1301 54.4972 74.1496 54.4093 74.1504 54.3203C74.4447 52.5261 77.6534 50.5444 79.0559 50.7852C78.1968 53.2037 77.5267 57.0222 77.0241 60.5233C79.4103 64.4356 82.9605 67.3868 86.5666 70.2358C87.4559 70.9749 88.3952 71.6527 89.378 72.2644C90.5485 72.9548 91.8372 73.4662 92.8767 74.3377L77.8424 74.685C77.4246 74.7211 77.0037 74.6799 76.601 74.5636C76.2104 74.3992 75.8547 74.1627 75.5529 73.8668C74.1211 72.6309 72.7315 71.3524 71.3841 70.0312C70.9073 69.571 70.1685 69.0617 69.5113 68.8955Z" fill="url(#paint2_linear)"/>
<path d="M73.0096 58.1027C72.8549 59.3961 72.1505 60.5596 71.3816 61.6101C70.8396 62.4071 70.1716 63.1122 69.4035 63.6984C68.6226 64.2835 67.6569 64.5729 66.6801 64.5145C65.8709 64.4346 65.1221 64.054 64.5839 63.4491C64.3953 63.2534 64.2626 63.0114 64.1995 62.748C64.0857 62.1407 64.541 61.5888 64.9727 61.1435C66.5811 59.4815 68.2964 57.9248 70.108 56.4832C70.6707 56.0358 72.2278 54.7103 73.0482 55.0236C73.4456 55.1749 73.0848 57.4656 73.0096 58.1027Z" fill="url(#paint3_linear)"/>
<path d="M77.5265 49.6345L63.9957 66.9244C63.9957 66.9244 60.4626 66.6815 58.2676 64.8681C56.0726 63.0548 59.9751 61.9659 59.9751 61.9659C59.9751 61.9659 68.0163 53.9879 69.1138 47.6997L77.5265 49.6345Z" fill="#6937FF"/>
<path d="M58.2647 64.866C59.2849 65.7077 60.5671 66.2064 61.6581 66.4983C62.422 66.7121 63.2043 66.8547 63.9949 66.9245L77.311 49.9393L77.5365 49.6474L69.1194 47.7168C68.0284 54.0029 59.9786 61.9936 59.9786 61.9936C59.9786 61.9936 56.0869 63.0591 58.2647 64.866Z" fill="url(#paint4_linear)"/>
<path d="M60.4619 65.7247C60.8279 66.0292 61.2296 66.2889 61.6582 66.4983C62.422 66.712 63.2043 66.8547 63.9949 66.9244L77.311 49.9392L71.3209 48.5478C70.2127 54.8339 62.1801 62.8246 62.1801 62.8246C62.1801 62.8246 58.2647 63.9114 60.4619 65.7247Z" fill="url(#paint5_linear)"/>
<path d="M87.1569 39.6557C86.717 38.8395 86.1083 38.1247 85.3706 37.5581C84.633 36.9915 83.783 36.5858 82.8764 36.3678C74.4314 34.3498 47.9861 27.0473 46.4526 14.4603C46.4526 14.4603 45.9651 11.1958 41.8221 11.1958C37.6791 11.1958 31.0984 50.1247 32.1959 50.9706C33.2934 51.8166 37.0691 50.0032 39.0193 48.2005C40.9694 46.3978 46.4526 42.6389 53.886 44.936C57.2301 45.9695 63.3211 47.3716 69.0083 48.599C73.0891 49.4811 76.9679 50.2738 79.4722 50.7767C80.5117 50.9839 81.5884 50.9079 82.5879 50.5567C83.5874 50.2055 84.4723 49.5923 85.1487 48.7822C86.7058 46.9369 88.2178 44.1391 87.6401 40.5677C87.6401 40.5741 87.4447 40.1884 87.1569 39.6557Z" fill="#6937FF"/>
<path d="M43.0928 32.7757C45.9079 21.8663 45.1866 12.2596 41.4819 11.3186C37.7772 10.3776 32.4918 18.4586 29.6767 29.368C26.8617 40.2775 27.5829 49.8841 31.2876 50.8251C34.9924 51.7661 40.2777 43.6851 43.0928 32.7757Z" fill="#6937FF"/>
<path d="M43.0928 32.7757C45.9079 21.8663 45.1866 12.2596 41.4819 11.3186C37.7772 10.3776 32.4918 18.4586 29.6767 29.368C26.8617 40.2775 27.5829 49.8841 31.2876 50.8251C34.9924 51.7661 40.2777 43.6851 43.0928 32.7757Z" fill="url(#paint6_linear)"/>
<path d="M39.1635 31.8346C40.0105 28.5523 39.7935 25.662 38.6789 25.3789C37.5642 25.0958 35.974 27.5271 35.1271 30.8093C34.2801 34.0916 34.4971 36.982 35.6117 37.2651C36.7264 37.5482 38.3166 35.1169 39.1635 31.8346Z" fill="url(#paint7_linear)"/>
<path d="M38.6755 25.3746L43.9547 26.0672C43.9547 26.0672 41.9444 38.7608 39.6892 39.8496L36.0939 37.1882L38.6755 25.3746Z" fill="url(#paint8_linear)"/>
<path d="M69.1547 53.4551C69.9042 54.0795 70.7805 54.5312 71.5902 55.0725C72.1207 55.4262 72.6641 55.9014 72.7049 56.5364C72.7041 56.8522 72.6197 57.1623 72.4601 57.4356C72.1729 57.9947 71.7764 58.4916 71.2938 58.8974C70.9072 59.2234 70.4648 59.4919 70.1405 59.8797C69.9311 60.1595 69.743 60.4543 69.5778 60.7619C68.9936 61.7165 68.156 62.4879 67.3291 63.2465C67.0981 63.4726 66.8457 63.676 66.5752 63.8538C66.1772 64.0812 65.7326 64.2167 65.2745 64.2502C64.8164 64.2838 64.3566 64.2146 63.9292 64.0477C63.0729 63.7068 62.3355 63.1255 61.8072 62.3749C61.2445 61.6206 60.8407 60.6703 61.0018 59.7561C61.1316 59.2006 61.3686 58.6752 61.6998 58.2091C62.7739 56.5028 64.011 54.903 65.394 53.4317C65.7483 53.0567 66.9683 51.4329 67.531 51.5139C67.9562 51.5651 68.7144 53.0886 69.1547 53.4551Z" fill="url(#paint9_linear)"/>
<path d="M75.2025 41.9848C75.2025 41.9848 73.7656 48.4221 68.9998 48.5905L80.8124 51.2562C80.8124 51.2562 85.0349 51.0133 85.8489 49.3214C86.6629 47.6294 90.8811 41.7504 84.9597 37.1477L75.4538 34.2476C75.4538 34.2476 76.5105 38.1151 75.2025 41.9848Z" fill="url(#paint10_linear)"/>
<path d="M47.183 18.933C47.183 18.933 48.5705 34.0792 39.7089 47.4653C39.7089 47.4653 44.9902 43.4359 51.4077 44.3223C51.4077 44.3223 54.9021 31.5882 53.3578 28.0403C51.8136 24.4924 47.183 18.933 47.183 18.933Z" fill="url(#paint11_linear)"/>
<path d="M113.976 2.76395H79.47C76.5698 2.76395 74.2188 5.09653 74.2188 7.97392V16.9001C74.2188 19.7775 76.5698 22.1101 79.47 22.1101H113.976C116.876 22.1101 119.227 19.7775 119.227 16.9001V7.97392C119.227 5.09653 116.876 2.76395 113.976 2.76395Z" fill="white"/>
<path d="M115.634 26.3611H94.1009C92.292 26.3611 90.8256 27.816 90.8256 29.6107V35.1829C90.8256 36.9776 92.292 38.4325 94.1009 38.4325H115.634C117.443 38.4325 118.91 36.9776 118.91 35.1829V29.6107C118.91 27.816 117.443 26.3611 115.634 26.3611Z" fill="white"/>
<path d="M65.9712 -2.43329H44.4378C42.6289 -2.43329 41.1625 -0.978403 41.1625 0.816289V6.38852C41.1625 8.18321 42.6289 9.63809 44.4378 9.63809H65.9712C67.7801 9.63809 69.2465 8.18321 69.2465 6.38852V0.816289C69.2465 -0.978403 67.7801 -2.43329 65.9712 -2.43329Z" fill="white"/>
<path d="M24.9983 53.6151H3.4649C1.65599 53.6151 0.189575 55.0699 0.189575 56.8646V62.4369C0.189575 64.2316 1.65599 65.6864 3.4649 65.6864H24.9983C26.8072 65.6864 28.2736 64.2316 28.2736 62.4369V56.8646C28.2736 55.0699 26.8072 53.6151 24.9983 53.6151Z" fill="white"/>
<path d="M115.427 53.8217H93.8941C92.0852 53.8217 90.6188 55.2765 90.6188 57.0712V62.6435C90.6188 64.4382 92.0852 65.893 93.8941 65.893H115.427C117.236 65.893 118.703 64.4382 118.703 62.6435V57.0712C118.703 55.2765 117.236 53.8217 115.427 53.8217Z" fill="white"/>
<path opacity="0.11" d="M113.097 6.09659H80.8141C80.4286 6.09659 80.1161 6.40665 80.1161 6.78912C80.1161 7.1716 80.4286 7.48165 80.8141 7.48165H113.097C113.482 7.48165 113.795 7.1716 113.795 6.78912C113.795 6.40665 113.482 6.09659 113.097 6.09659Z" fill="#6937FF"/>
<path opacity="0.11" d="M113.097 10.8718H80.8141C80.4286 10.8718 80.1161 11.1819 80.1161 11.5644C80.1161 11.9468 80.4286 12.2569 80.8141 12.2569H113.097C113.482 12.2569 113.795 11.9468 113.795 11.5644C113.795 11.1819 113.482 10.8718 113.097 10.8718Z" fill="#6937FF"/>
<path opacity="0.11" d="M115.107 29.0397H95.4103C95.1066 29.0397 94.8605 29.284 94.8605 29.5852V29.8793C94.8605 30.1806 95.1066 30.4248 95.4103 30.4248H115.107C115.411 30.4248 115.657 30.1806 115.657 29.8793V29.5852C115.657 29.284 115.411 29.0397 115.107 29.0397Z" fill="#6937FF"/>
<path opacity="0.11" d="M115.107 33.8129H95.4103C95.1066 33.8129 94.8605 34.0571 94.8605 34.3584V34.6524C94.8605 34.9537 95.1066 35.1979 95.4103 35.1979H115.107C115.411 35.1979 115.657 34.9537 115.657 34.6524V34.3584C115.657 34.0571 115.411 33.8129 115.107 33.8129Z" fill="#6937FF"/>
<path opacity="0.11" d="M115.107 56.449H95.4103C95.1066 56.449 94.8605 56.6933 94.8605 56.9945V57.2886C94.8605 57.5899 95.1066 57.8341 95.4103 57.8341H115.107C115.411 57.8341 115.657 57.5899 115.657 57.2886V56.9945C115.657 56.6933 115.411 56.449 115.107 56.449Z" fill="#6937FF"/>
<path opacity="0.11" d="M115.107 61.2222H95.4103C95.1066 61.2222 94.8605 61.4664 94.8605 61.7677V62.0617C94.8605 62.363 95.1066 62.6072 95.4103 62.6072H115.107C115.411 62.6072 115.657 62.363 115.657 62.0617V61.7677C115.657 61.4664 115.411 61.2222 115.107 61.2222Z" fill="#6937FF"/>
<path opacity="0.11" d="M24.7821 56.1401H5.08498C4.78132 56.1401 4.53516 56.3844 4.53516 56.6856V56.9797C4.53516 57.281 4.78132 57.5252 5.08498 57.5252H24.7821C25.0857 57.5252 25.3319 57.281 25.3319 56.9797V56.6856C25.3319 56.3844 25.0857 56.1401 24.7821 56.1401Z" fill="#6937FF"/>
<path opacity="0.11" d="M24.7821 60.9133H5.08498C4.78132 60.9133 4.53516 61.1575 4.53516 61.4588V61.7528C4.53516 62.0541 4.78132 62.2983 5.08498 62.2983H24.7821C25.0857 62.2983 25.3319 62.0541 25.3319 61.7528V61.4588C25.3319 61.1575 25.0857 60.9133 24.7821 60.9133Z" fill="#6937FF"/>
<path opacity="0.11" d="M65.1338 0.298523H45.4368C45.1331 0.298523 44.887 0.542753 44.887 0.844026V1.13809C44.887 1.43936 45.1331 1.68359 45.4368 1.68359H65.1338C65.4375 1.68359 65.6837 1.43936 65.6837 1.13809V0.844026C65.6837 0.542753 65.4375 0.298523 65.1338 0.298523Z" fill="#6937FF"/>
<path opacity="0.11" d="M65.1338 5.07153H45.4368C45.1331 5.07153 44.887 5.31576 44.887 5.61704V5.9111C44.887 6.21237 45.1331 6.4566 45.4368 6.4566H65.1338C65.4375 6.4566 65.6837 6.21237 65.6837 5.9111V5.61704C65.6837 5.31576 65.4375 5.07153 65.1338 5.07153Z" fill="#6937FF"/>
<path opacity="0.11" d="M113.097 15.645H80.8141C80.4286 15.645 80.1161 15.9551 80.1161 16.3376C80.1161 16.72 80.4286 17.0301 80.8141 17.0301H113.097C113.482 17.0301 113.795 16.72 113.795 16.3376C113.795 15.9551 113.482 15.645 113.097 15.645Z" fill="#6937FF"/>
<path d="M23.106 5.02058C23.4152 5.6364 28.3808 14.0491 28.3808 14.0491L30.7606 12.4062L28.1661 2.86414L23.106 5.02058Z" fill="url(#paint12_linear)"/>
<path d="M13.0704 15.3872L21.0386 21.3409L19.3827 23.9086L9.76074 20.9317L13.0704 15.3872Z" fill="url(#paint13_linear)"/>
<path d="M7.48413 37.561L17.8299 35.9181L17.9351 38.8949L7.79555 42.283L7.48413 37.561Z" fill="url(#paint14_linear)"/>
</g>
<defs>
<linearGradient id="paint0_linear" x1="59.9014" y1="65.4051" x2="60.6224" y2="89.3437" gradientUnits="userSpaceOnUse">
<stop stop-color="white" stop-opacity="0"/>
<stop offset="0.95" stop-color="white"/>
</linearGradient>
<linearGradient id="paint1_linear" x1="60.4792" y1="84.8983" x2="61.2783" y2="102.308" gradientUnits="userSpaceOnUse">
<stop stop-color="#010101" stop-opacity="0"/>
<stop offset="0.95" stop-color="#010101"/>
</linearGradient>
<linearGradient id="paint2_linear" x1="92.8767" y1="62.3324" x2="58.8176" y2="62.3324" gradientUnits="userSpaceOnUse">
<stop stop-color="#E5C6D6"/>
<stop offset="0.42" stop-color="#EAD4D0"/>
<stop offset="1" stop-color="#F0E9CB"/>
</linearGradient>
<linearGradient id="paint3_linear" x1="-6343.08" y1="3619.52" x2="-7611.43" y2="2916.75" gradientUnits="userSpaceOnUse">
<stop stop-color="#010101" stop-opacity="0"/>
<stop offset="0.95" stop-color="#010101"/>
</linearGradient>
<linearGradient id="paint4_linear" x1="-14665.6" y1="6953.45" x2="-14949.4" y2="5010.93" gradientUnits="userSpaceOnUse">
<stop stop-color="#010101" stop-opacity="0"/>
<stop offset="0.95" stop-color="#010101"/>
</linearGradient>
<linearGradient id="paint5_linear" x1="-12795" y1="6682.88" x2="-13070.8" y2="4949.28" gradientUnits="userSpaceOnUse">
<stop stop-color="#010101" stop-opacity="0"/>
<stop offset="0.95" stop-color="#010101"/>
</linearGradient>
<linearGradient id="paint6_linear" x1="-37144.7" y1="3150.55" x2="-34248.6" y2="5769.47" gradientUnits="userSpaceOnUse">
<stop stop-color="#010101" stop-opacity="0"/>
<stop offset="0.95" stop-color="#010101"/>
</linearGradient>
<linearGradient id="paint7_linear" x1="-10366.4" y1="1020.16" x2="-11022.1" y2="680.238" gradientUnits="userSpaceOnUse">
<stop stop-color="#010101" stop-opacity="0"/>
<stop offset="0.95" stop-color="#010101"/>
</linearGradient>
<linearGradient id="paint8_linear" x1="-6758.41" y1="3377.21" x2="-6334.72" y2="3446.96" gradientUnits="userSpaceOnUse">
<stop stop-color="#010101" stop-opacity="0"/>
<stop offset="0.95" stop-color="#010101"/>
</linearGradient>
<linearGradient id="paint9_linear" x1="8526.79" y1="4560.3" x2="9168.44" y2="4560.3" gradientUnits="userSpaceOnUse">
<stop stop-color="#E5C6D6"/>
<stop offset="0.42" stop-color="#EAD4D0"/>
<stop offset="1" stop-color="#F0E9CB"/>
</linearGradient>
<linearGradient id="paint10_linear" x1="-12731.7" y1="4561.95" x2="-14154.5" y2="6718.32" gradientUnits="userSpaceOnUse">
<stop stop-color="#010101" stop-opacity="0"/>
<stop offset="0.95" stop-color="#010101"/>
</linearGradient>
<linearGradient id="paint11_linear" x1="-11520.4" y1="6784.53" x2="-13896.2" y2="6819.87" gradientUnits="userSpaceOnUse">
<stop stop-color="#010101" stop-opacity="0"/>
<stop offset="0.95" stop-color="#010101"/>
</linearGradient>
<linearGradient id="paint12_linear" x1="1427.27" y1="1364.85" x2="1700.15" y2="1364.85" gradientUnits="userSpaceOnUse">
<stop stop-color="white" stop-opacity="0"/>
<stop offset="0.95" stop-color="white"/>
</linearGradient>
<linearGradient id="paint13_linear" x1="1392.99" y1="1033.26" x2="1985.19" y2="1033.26" gradientUnits="userSpaceOnUse">
<stop stop-color="white" stop-opacity="0"/>
<stop offset="0.95" stop-color="white"/>
</linearGradient>
<linearGradient id="paint14_linear" x1="1178.52" y1="1377.26" x2="1687.06" y2="1377.26" gradientUnits="userSpaceOnUse">
<stop stop-color="white" stop-opacity="0"/>
<stop offset="0.95" stop-color="white"/>
</linearGradient>
<clipPath id="clip0">
<rect width="119" height="90" fill="white"/>
</clipPath>
</defs>
</svg>
