<svg width="120" height="99" viewBox="0 0 120 99" fill="none" xmlns="http://www.w3.org/2000/svg">
<g clip-path="url(#clip0)">
<path d="M36.7352 8.94788H17.3104C13.4655 8.94788 10.3486 12.0621 10.3486 15.9037V92.1568C10.3486 95.9984 13.4655 99.1127 17.3104 99.1127H36.7352C40.5801 99.1127 43.697 95.9984 43.697 92.1568V15.9037C43.697 12.0621 40.5801 8.94788 36.7352 8.94788Z" fill="#6937FF"/>
<path d="M36.7352 8.94788H17.3104C13.4655 8.94788 10.3486 12.0621 10.3486 15.9037V92.1568C10.3486 95.9984 13.4655 99.1127 17.3104 99.1127H36.7352C40.5801 99.1127 43.697 95.9984 43.697 92.1568V15.9037C43.697 12.0621 40.5801 8.94788 36.7352 8.94788Z" fill="url(#paint0_linear)"/>
<path d="M49.3157 8.94788H22.9909C18.6786 8.94788 15.1827 12.4407 15.1827 16.7494V91.3112C15.1827 95.6198 18.6786 99.1127 22.9909 99.1127H49.3157C53.628 99.1127 57.1238 95.6198 57.1238 91.3112V16.7494C57.1238 12.4407 53.628 8.94788 49.3157 8.94788Z" fill="#6937FF"/>
<path d="M54.3494 15.7393H18.6178V92.1833H54.3494V15.7393Z" fill="white"/>
<path d="M60.8737 77.6813L60.9971 94.7788L59.1928 94.9491C59.1928 94.9491 56.8565 87.4823 57.1357 86.3607C57.4148 85.2391 58.0173 82.5818 58.0173 82.5818C58.0173 82.5818 56.2541 79.2228 56.3128 78.1775C56.3708 77.5167 56.6142 76.8857 57.0152 76.3571L60.8737 77.6813Z" fill="#F3BD8F"/>
<path d="M53.3532 77.6814C53.3532 77.6814 53.3532 80.3886 53.074 81.0404C52.7948 81.6922 45.3188 93.5486 45.3188 93.5486L44.2197 92.5914C44.2197 92.5914 46.2533 84.3084 47.7462 82.6289L49.239 80.9494L49.4682 77.3525L53.3532 77.6814Z" fill="#F3BD8F"/>
<path d="M50.6644 36.2487C50.5938 35.4559 50.2735 34.7395 50.4293 33.8997C50.6937 32.4639 52.0455 31.4069 53.4767 31.1133C54.9078 30.8196 56.3977 31.1544 57.776 31.6418C58.6992 31.9299 59.5576 32.3946 60.3033 33.01C62.1223 34.6426 62.3369 37.3497 63.0451 39.6899C63.3213 40.5972 63.7269 41.528 64.5144 42.0711C65.5459 42.7935 66.9359 42.6584 68.1349 43.0342C68.8897 43.2864 69.5606 43.741 70.0742 44.3484C70.5878 44.9559 70.9244 45.6927 71.0471 46.4784C71.244 47.8672 70.7974 49.4792 71.6995 50.5538C72.1697 51.1146 72.9309 51.3995 73.3246 52.0219C73.5207 52.3712 73.6474 52.7551 73.6978 53.1524C73.9241 54.3562 73.9917 55.8331 73.0131 56.5584C72.5185 56.8588 71.9522 57.0211 71.3733 57.0282C69.9716 57.1515 68.5257 57.1544 67.1975 56.6993C66.0043 56.2882 64.967 55.5248 63.9502 54.7849C61.8637 53.2493 59.7684 51.7078 57.8847 49.9284C56.7092 48.8215 55.6102 47.6764 54.3583 46.6575C53.5208 45.9763 52.8889 44.8106 52.0573 44.2263C51.6282 43.9327 51.1052 43.9327 50.682 43.5334C50.3487 43.2072 50.1013 42.8037 49.962 42.3589C49.6476 41.34 49.8268 40.2419 50.0854 39.2113C50.3058 38.3304 50.7378 37.2998 50.6732 36.3808L50.6644 36.2487Z" fill="#3E3E54"/>
<path d="M59.8009 37.9634C60.195 38.9182 60.522 39.8993 60.7794 40.8996C61.0733 41.8891 61.473 42.8786 62.1694 43.645C62.5434 43.9974 62.8948 44.373 63.2215 44.7695C63.8592 45.6944 63.7857 46.957 63.3919 47.9993C63.198 48.5132 62.8571 49.0593 62.3134 49.1445C61.7698 49.2296 61.3202 48.8508 60.9293 48.4868L56.7358 44.6697C56.1482 44.1893 55.6386 43.6207 55.2253 42.9843C54.6816 42.0418 54.5876 40.8967 54.7081 39.8132C54.7812 38.8736 55.0839 37.9662 55.5897 37.1706C55.9952 36.5834 57.0209 35.5293 57.829 35.7613C58.7224 36.0402 59.4423 37.2029 59.8009 37.9634Z" fill="url(#paint1_linear)"/>
<path d="M62.8835 60.9186L72.9045 60.7864L76.5808 72.1701L81.0329 87.8465H71.0972L62.8835 60.9186ZM75.3906 72.543L72.0023 62.0519L64.5586 62.1518L72.017 86.6162H79.3843L75.3906 72.543Z" fill="#6937FF"/>
<path d="M93.0992 56.7257H77.4066V85.2861H93.0992V56.7257Z" fill="#6937FF"/>
<path d="M93.0992 56.7257H77.4066V85.2861H93.0992V56.7257Z" fill="url(#paint2_linear)"/>
<path d="M89.9486 56.7962V65.2671L84.2739 85.1481H91.9792L93.6631 79.126L93.1018 56.7257L89.9486 56.7962Z" fill="url(#paint3_linear)"/>
<path d="M105.755 62.4828L93.4363 59.0046L87.0949 81.4253L99.4135 84.9034L105.755 62.4828Z" fill="#6937FF"/>
<path d="M105.756 62.4489L93.4371 58.9707L87.0958 81.3914L99.4143 84.8696L105.756 62.4489Z" fill="url(#paint4_linear)"/>
<path d="M78.4469 96.1912C78.166 95.7268 78.0749 95.1721 78.1925 94.6423C78.3101 94.1125 78.6274 93.6483 79.0785 93.346C79.5296 93.0438 80.0798 92.9267 80.615 93.0191C81.1503 93.1115 81.6293 93.4063 81.9527 93.8423C82.1229 94.0717 82.2448 94.3333 82.3109 94.6112C82.377 94.8891 82.386 95.1774 82.3373 95.4589C82.2886 95.7403 82.1833 96.009 82.0277 96.2486C81.8721 96.4882 81.6695 96.6937 81.432 96.8528C81.1946 97.0119 80.9274 97.1212 80.6465 97.174C80.3655 97.2269 80.0768 97.2223 79.7977 97.1604C79.5186 97.0986 79.255 96.9808 79.0228 96.8142C78.7906 96.6476 78.5947 96.4357 78.4469 96.1912ZM80.9212 94.5323C80.826 94.3848 80.6889 94.2691 80.5275 94.2C80.366 94.1309 80.1876 94.1115 80.015 94.1445C79.8425 94.1774 79.6837 94.261 79.5591 94.3847C79.4345 94.5084 79.3496 94.6664 79.3155 94.8386C79.2814 95.0107 79.2995 95.1891 79.3676 95.3509C79.4356 95.5127 79.5505 95.6505 79.6974 95.7467C79.8444 95.8428 80.0168 95.8929 80.1924 95.8905C80.368 95.8881 80.5389 95.8333 80.6832 95.7332C80.871 95.6029 81.0007 95.4049 81.0451 95.1808C81.0896 94.9568 81.0451 94.7242 80.9212 94.5323Z" fill="#2E2E3F"/>
<path d="M93.9252 96.1911C93.635 95.7262 93.5371 95.1667 93.6522 94.6309C93.7672 94.0952 94.0863 93.6251 94.5419 93.3201C94.9975 93.0151 95.554 92.899 96.0937 92.9965C96.6334 93.0939 97.114 93.3972 97.434 93.8422C97.7242 94.3071 97.8221 94.8666 97.707 95.4024C97.5919 95.9381 97.2729 96.4082 96.8173 96.7132C96.3616 97.0182 95.8052 97.1343 95.2655 97.0368C94.7258 96.9394 94.2452 96.6361 93.9252 96.1911ZM96.3996 94.5322C96.3041 94.3848 96.1667 94.2694 96.0051 94.2006C95.8434 94.1318 95.6649 94.1128 95.4924 94.1461C95.3199 94.1794 95.1613 94.2634 95.0369 94.3874C94.9126 94.5114 94.8281 94.6696 94.7944 94.8419C94.7606 95.0142 94.7792 95.1926 94.8477 95.3542C94.9161 95.5159 95.0314 95.6534 95.1786 95.7492C95.3258 95.845 95.4983 95.8946 95.674 95.8917C95.8497 95.8889 96.0205 95.8336 96.1645 95.7331C96.3518 95.6024 96.4809 95.4041 96.5248 95.1801C96.5686 94.9561 96.5237 94.7238 96.3996 94.5322Z" fill="#2E2E3F"/>
<path d="M62.9333 53.3021C63.0091 53.5467 63.1178 53.7798 63.2566 53.9951C63.5359 54.3279 63.8905 54.5895 64.291 54.7585C65.8662 55.5689 68.2788 56.438 69.6071 57.6066C69.7714 57.7343 69.9066 57.8954 70.0038 58.0793C70.1949 58.4933 70.0038 58.9602 69.8275 59.3918C69.7477 59.6278 69.6067 59.8385 69.419 60.0025C69.0781 60.2492 68.605 60.1435 68.2024 60.0231C66.6451 59.5615 65.1138 59.0166 63.6151 58.3905C62.7784 58.0544 61.9655 57.662 61.1819 57.2161C60.8822 57.085 60.6231 56.8762 60.4314 56.6113C60.2397 56.3465 60.1224 56.0352 60.0916 55.7098C59.8074 54.2041 59.617 52.6821 59.5215 51.1528L59.2276 47.556C59.1718 46.863 57.0648 44.4465 57.6995 43.9679C58.9397 43.0372 60.7499 45.5711 61.0349 46.0908C61.8313 47.553 62.6218 52.4154 62.9333 53.3021Z" fill="#6937FF"/>
<path d="M62.9333 53.3021C63.0091 53.5467 63.1178 53.7798 63.2566 53.9951C63.5359 54.3279 63.8905 54.5895 64.291 54.7585C65.8662 55.5689 68.2788 56.438 69.6071 57.6066C69.7714 57.7343 69.9066 57.8954 70.0038 58.0793C70.1949 58.4933 70.0038 58.9602 69.8275 59.3918C69.7477 59.6278 69.6067 59.8385 69.419 60.0025C69.0781 60.2492 68.605 60.1435 68.2024 60.0231C66.6451 59.5615 65.1138 59.0166 63.6151 58.3905C62.7784 58.0544 61.9655 57.662 61.1819 57.2161C60.8822 57.085 60.6231 56.8762 60.4314 56.6113C60.2397 56.3465 60.1224 56.0352 60.0916 55.7098C59.8074 54.2041 59.617 52.6821 59.5215 51.1528L59.2276 47.556C59.1718 46.863 57.0648 44.4465 57.6995 43.9679C58.9397 43.0372 60.7499 45.5711 61.0349 46.0908C61.8313 47.553 62.6218 52.4154 62.9333 53.3021Z" fill="url(#paint5_linear)"/>
<path d="M61.9547 76.4599C61.9786 76.751 61.9063 77.0418 61.749 77.288C61.5819 77.4574 61.3698 77.5756 61.1378 77.6286C59.9623 77.9985 49.9707 78.3744 48.1047 78.0279C47.3788 75.3501 47.3524 72.5196 47.7167 69.7684C47.8607 68.6966 48.0723 67.6044 48.6395 66.6853C48.7827 66.4331 48.9843 66.2186 49.2272 66.0599C49.5866 65.8882 49.985 65.8142 50.3821 65.8456C53.2621 65.8162 56.1919 65.7487 59.0542 66.1568C59.9358 66.2831 60.4149 66.562 60.7264 67.4341C61.1752 68.8096 61.4882 70.2257 61.6609 71.6622C61.8857 73.2512 61.9839 74.8555 61.9547 76.4599Z" fill="#2E2E3F"/>
<path d="M48.1108 78.0278L48.5575 78.1042C48.6643 78.0487 48.7683 77.988 48.869 77.9221C49.1145 77.7857 49.3216 77.5898 49.4715 77.3525C49.58 77.1099 49.6323 76.8459 49.6243 76.5803C49.7066 74.3634 49.2834 72.1114 49.7359 69.9386C49.8976 69.1576 50.2208 68.4529 50.4501 67.7012C50.6616 67.0141 50.1914 66.6031 49.636 66.2008C49.5386 66.1272 49.4343 66.0633 49.3245 66.0099L49.2246 66.0599C48.9801 66.2168 48.7782 66.4316 48.6369 66.6853C48.0668 67.6043 47.8552 68.6966 47.7112 69.7683C47.3585 72.5166 47.382 75.35 48.1108 78.0278Z" fill="url(#paint6_linear)"/>
<path d="M55.1958 41.848C55.2096 42.2968 55.3873 42.725 55.6954 43.0519C56.1538 43.4629 56.8503 43.4395 57.4204 43.6685C57.4934 43.6933 57.5597 43.7345 57.6143 43.7889C57.6563 43.8393 57.6864 43.8985 57.7025 43.9621C57.7742 44.2623 57.7506 44.5773 57.6349 44.8635C57.4592 45.2908 57.1923 45.6746 56.8527 45.988C56.5131 46.3014 56.1091 46.5369 55.6689 46.6781C54.7851 46.9528 53.8494 47.0181 52.9359 46.8689C52.6259 46.8504 52.3243 46.761 52.0543 46.6076C51.7714 46.3937 51.547 46.1119 51.4019 45.7884C51.2227 45.4937 51.1039 45.1663 51.0522 44.8253C51.0284 44.6545 51.0491 44.4803 51.1124 44.3198C51.1758 44.1593 51.2795 44.0179 51.4137 43.9092C51.5397 43.8312 51.6749 43.769 51.8163 43.7243C52.0375 43.6378 52.25 43.5306 52.451 43.4042C52.6564 43.2995 52.817 43.1244 52.9036 42.9109C52.9369 42.7285 52.9289 42.5408 52.8801 42.3619C52.7684 41.7572 52.7684 41.1373 52.8801 40.5326C52.9067 40.3536 52.9623 40.18 53.0446 40.0188C53.1209 39.8806 53.2277 39.7617 53.3571 39.6711C53.4864 39.5806 53.6348 39.5209 53.7908 39.4965C53.9468 39.4721 54.1064 39.4837 54.2572 39.5305C54.408 39.5773 54.5461 39.6579 54.6609 39.7663C55.2399 40.3007 55.1164 41.1463 55.1958 41.848Z" fill="#F3BD8F"/>
<path d="M57.9379 38.6241C57.9731 39.0361 57.9383 39.451 57.8351 39.8514C57.5412 40.8028 56.5332 41.4164 55.537 41.4575C55.2103 41.4832 54.8826 41.4214 54.5878 41.2784C54.4195 41.1799 54.2637 41.0616 54.1235 40.9261C53.427 40.2889 52.7864 39.5285 52.5748 38.6094C52.5017 38.2601 52.4712 37.9032 52.4837 37.5465C52.4749 37.0226 52.5646 36.5017 52.7482 36.0109C52.9349 35.5751 53.2314 35.195 53.609 34.9079C53.9865 34.6207 54.4321 34.4363 54.9022 34.3725C55.8691 34.2492 56.7712 34.7366 57.4765 35.3414C57.8292 35.6351 57.7704 36.2429 57.8204 36.695C57.8733 37.3381 57.9173 37.9811 57.9379 38.6241Z" fill="#F3BD8F"/>
<path d="M48.7956 66.9113C49.2427 67.2166 49.753 67.4173 50.2884 67.4986C53.147 68.1314 56.11 68.1264 58.9664 67.4839C59.5541 67.3459 60.2271 67.1286 60.4857 66.5707C60.6025 66.265 60.6468 65.9363 60.615 65.6106C60.5484 62.5393 60.4798 59.4661 60.4093 56.3909C60.3329 52.8969 60.2565 49.391 59.7422 45.9351C59.5909 45.2216 59.3079 44.5426 58.9076 43.9326C58.5726 43.4775 57.0621 43.7212 55.8014 42.905C55.4547 42.6818 56.207 43.8387 55.0756 44.3173C53.9442 44.7959 52.5953 42.4822 51.8783 43.4159C51.4757 43.9385 50.2032 43.5509 49.8006 44.0706C49.4774 44.4876 49.2775 45.3714 49.1512 46.4343C48.8808 48.6952 48.9484 51.7635 48.8896 52.8792C48.678 56.7844 49.0072 61.7671 47.7141 64.994C47.4379 65.6928 48.2108 66.4504 48.7956 66.9113Z" fill="#6937FF"/>
<path d="M48.7956 66.9113C49.2427 67.2166 49.753 67.4173 50.2884 67.4986C51.0023 67.6564 51.7244 67.775 52.4513 67.8539L52.657 67.8274C52.1251 66.0951 52.0987 64.257 52.1134 62.4454C52.1251 61.4471 52.1418 60.4468 52.1633 59.4446C52.1633 58.8133 52.1986 58.1497 52.5248 57.6094C52.851 57.0692 53.5915 56.7286 54.1352 57.0545C53.2007 56.4908 52.4366 54.1183 52.0546 53.1405C51.5038 51.7294 51.1182 50.2594 50.9056 48.7597C50.7586 47.7321 50.8145 45.9204 49.2364 46.4108L49.1512 46.4401C48.8808 48.701 48.9484 51.7693 48.8896 52.8851C48.678 56.7902 49.0072 61.773 47.7141 64.9999C47.4379 65.6928 48.2108 66.4503 48.7956 66.9113Z" fill="url(#paint7_linear)"/>
<path d="M59.369 94.7525C59.2786 94.7607 59.1947 94.8027 59.1339 94.8699C59.0977 94.9426 59.0834 95.0242 59.0927 95.1048C59.0927 95.5981 58.7753 96.0532 58.7989 96.5435C58.7989 96.9869 59.0927 97.398 59.0486 97.8384C59.0486 97.9265 59.0251 98.0263 59.0868 98.088C59.1279 98.122 59.1779 98.1434 59.2308 98.1496C60.4808 98.3865 61.7356 98.5949 62.9953 98.775C63.228 98.8353 63.4748 98.8081 63.6888 98.6987C63.7866 98.6216 63.8625 98.5204 63.9092 98.4051C64.2501 97.7092 63.9475 96.8606 63.4861 96.2411C62.3459 94.7378 61.2527 94.3737 59.369 94.7525Z" fill="#2E2E3F"/>
<path d="M41.9864 94.676C42.0737 95.0747 42.2996 95.4295 42.6241 95.6773C43.4256 96.4145 44.3404 97.0183 45.3336 97.4654C45.535 97.5774 45.7653 97.6265 45.9948 97.6063C46.1669 97.5541 46.3173 97.4474 46.4233 97.3022C46.5293 97.1571 46.5852 96.9815 46.5826 96.8018C46.5694 96.4409 46.475 96.0877 46.3063 95.7683C45.8273 94.6584 45.4923 93.0288 44.211 92.5913C43.1002 92.2155 41.866 93.572 41.9864 94.676Z" fill="#2E2E3F"/>
<path d="M59.3453 94.7525C59.2549 94.7607 59.171 94.8027 59.1102 94.8699C59.074 94.9426 59.0597 95.0242 59.069 95.1048C59.069 95.5981 58.7517 96.0532 58.7752 96.5435C58.7899 96.9869 59.069 97.398 59.025 97.8384C59.025 97.9265 59.0015 98.0263 59.0632 98.088C59.1042 98.122 59.1542 98.1434 59.2072 98.1496C60.4571 98.3865 61.7119 98.5949 62.9716 98.775C63.2044 98.8353 63.4512 98.8081 63.6652 98.6987C63.7629 98.6216 63.8389 98.5204 63.8856 98.4051C64.2265 97.7092 63.9238 96.8606 63.4624 96.2411C62.3222 94.7378 61.229 94.3737 59.3453 94.7525Z" fill="url(#paint8_linear)"/>
<path d="M42.6243 95.6774C43.4257 96.4146 44.3405 97.0184 45.3337 97.4655C45.5351 97.5775 45.7654 97.6266 45.995 97.6064" fill="url(#paint9_linear)"/>
<path d="M51.2345 53.0349C51.1923 53.3465 51.2256 53.6637 51.3315 53.9598C51.5108 54.3709 51.9193 54.6175 52.3189 54.8407L61.135 59.8322C61.5494 60.0671 61.9902 60.3314 62.1665 60.7747C62.5544 61.7583 61.3378 62.6598 60.2828 62.739C59.1749 62.8213 58.0817 62.4865 57.0326 62.1254C53.7163 60.9819 50.5132 59.534 47.4642 57.8003C47.0868 57.6607 46.7704 57.3932 46.5701 57.0445C46.3698 56.6957 46.2983 56.2878 46.3681 55.8918C46.36 53.4575 46.5467 51.0264 46.9264 48.6218C47.1351 47.3064 47.4319 45.9352 48.3135 44.9339C49.6241 43.4482 52.0251 43.4012 52.2308 45.5857C52.4776 48.0463 51.4021 50.5832 51.2345 53.0349Z" fill="#6937FF"/>
<path d="M51.2345 53.0349C51.1923 53.3465 51.2256 53.6637 51.3315 53.9598C51.5108 54.3709 51.9193 54.6175 52.3189 54.8407L61.135 59.8322C61.5494 60.0671 61.9902 60.3314 62.1665 60.7747C62.5544 61.7583 61.3378 62.6598 60.2828 62.739C59.1749 62.8213 58.0817 62.4865 57.0326 62.1254C53.7163 60.9819 50.5132 59.534 47.4642 57.8003C47.0868 57.6607 46.7704 57.3932 46.5701 57.0445C46.3698 56.6957 46.2983 56.2878 46.3681 55.8918C46.36 53.4575 46.5467 51.0264 46.9264 48.6218C47.1351 47.3064 47.4319 45.9352 48.3135 44.9339C49.6241 43.4482 52.0251 43.4012 52.2308 45.5857C52.4776 48.0463 51.4021 50.5832 51.2345 53.0349Z" fill="url(#paint10_linear)"/>
<path d="M63.3211 60.6484C63.9576 60.6481 64.5707 60.8883 65.0373 61.3208C65.264 61.5413 65.4168 61.8265 65.4747 62.1372C65.5326 62.4479 65.4927 62.769 65.3606 63.0561C65.2656 63.2488 65.1005 63.3979 64.8992 63.4731C64.7223 63.5216 64.5348 63.5155 64.3614 63.4555C63.856 63.3057 63.4534 62.9181 62.9655 62.7214C62.8474 62.662 62.7121 62.6464 62.5835 62.6774C62.5017 62.7189 62.424 62.7681 62.3514 62.8242C62.2492 62.8814 62.1348 62.9134 62.0177 62.9175C61.9007 62.9216 61.7843 62.8976 61.6784 62.8477C61.468 62.745 61.2908 62.5853 61.1671 62.3867C60.9879 62.1371 60.9017 61.8328 60.9231 61.5264C60.9731 61.0536 61.2464 60.9039 61.6549 60.854C62.2042 60.7427 62.7612 60.674 63.3211 60.6484Z" fill="#F3BD8F"/>
<path d="M71.5204 59.1158C71.7569 59.4071 71.9184 59.7519 71.9906 60.12C72.0304 60.2928 72.0243 60.473 71.9729 60.6427C71.9008 60.8078 71.7807 60.9475 71.6283 61.0438C71.4758 61.1402 71.298 61.1886 71.1178 61.1829C70.7576 61.1665 70.4076 61.0583 70.101 60.8688C69.5331 60.5396 68.99 60.1697 68.4759 59.7618C68.3662 59.6889 68.2672 59.6009 68.182 59.5005C68.0875 59.3445 68.0488 59.161 68.0723 58.9802C68.0957 58.7993 68.18 58.6318 68.3113 58.5051C69.1635 57.6536 70.8885 58.3319 71.5204 59.1158Z" fill="#F3BD8F"/>
<path d="M73.1868 65.6812H108.61L100.473 87.8406H79.4991L73.1868 65.6812ZM106.829 66.9232H74.8324L80.4365 86.5957H99.6027L106.829 66.9232Z" fill="#6937FF"/>
<path d="M64.3058 65.6812H100.334L92.194 87.8406H71.2205L64.3058 65.6812ZM98.5563 66.9232H66.5568L72.1609 86.5957H91.3418L98.5563 66.9232Z" fill="#6937FF"/>
<path d="M71.1179 94.0359H95.4356V92.7939H72.3639V87.2181H71.1179V94.0359Z" fill="#6937FF"/>
<path d="M79.2579 94.0359H99.0559V92.7939H80.501V87.2181H79.2579V94.0359Z" fill="#6937FF"/>
<path d="M73.0164 95.0137C73.0164 94.5961 73.1403 94.1878 73.3726 93.8405C73.6049 93.4933 73.9351 93.2227 74.3214 93.063C74.7076 92.9033 75.1326 92.8617 75.5426 92.9434C75.9525 93.0251 76.329 93.2264 76.6244 93.522C76.9198 93.8175 77.1208 94.194 77.202 94.6037C77.2832 95.0134 77.2409 95.4379 77.0805 95.8236C76.9202 96.2094 76.6489 96.5389 76.301 96.7705C75.9532 97.0021 75.5444 97.1254 75.1263 97.1248C74.5667 97.1233 74.0305 96.9003 73.635 96.5046C73.2396 96.109 73.0171 95.5729 73.0164 95.0137ZM74.2594 95.0137C74.2565 95.1892 74.3061 95.3615 74.4019 95.5085C74.4976 95.6556 74.6351 95.7708 74.7968 95.8393C74.9585 95.9078 75.137 95.9264 75.3093 95.8929C75.4817 95.8594 75.6401 95.7752 75.7643 95.6511C75.8885 95.5271 75.9727 95.3688 76.0063 95.1966C76.0398 95.0243 76.0211 94.846 75.9526 94.6845C75.8841 94.5229 75.7688 94.3855 75.6216 94.2899C75.4744 94.1942 75.3019 94.1446 75.1263 94.1475C74.8976 94.1513 74.6793 94.2438 74.5175 94.4054C74.3558 94.567 74.2632 94.7852 74.2594 95.0137Z" fill="#2E2E3F"/>
<path d="M88.4646 96.1912C88.1837 95.7268 88.0926 95.1721 88.2102 94.6423C88.3278 94.1125 88.6451 93.6483 89.0962 93.346C89.5473 93.0438 90.0975 92.9267 90.6327 93.0191C91.1679 93.1115 91.647 93.4063 91.9704 93.8423C92.1406 94.0717 92.2625 94.3333 92.3286 94.6112C92.3947 94.8891 92.4037 95.1774 92.355 95.4589C92.3063 95.7403 92.201 96.009 92.0454 96.2486C91.8898 96.4882 91.6872 96.6937 91.4497 96.8528C91.2123 97.0119 90.9451 97.1212 90.6641 97.174C90.3832 97.2269 90.0945 97.2223 89.8154 97.1604C89.5363 97.0986 89.2727 96.9808 89.0405 96.8142C88.8083 96.6476 88.6124 96.4357 88.4646 96.1912ZM90.9389 94.5323C90.8437 94.3848 90.7066 94.2691 90.5452 94.2C90.3837 94.1309 90.2053 94.1115 90.0327 94.1445C89.8602 94.1774 89.7014 94.261 89.5768 94.3847C89.4522 94.5084 89.3673 94.6664 89.3332 94.8386C89.2991 95.0107 89.3172 95.1891 89.3853 95.3509C89.4533 95.5127 89.5682 95.6505 89.7151 95.7467C89.8621 95.8428 90.0344 95.8929 90.2101 95.8905C90.3857 95.8881 90.5566 95.8333 90.7009 95.7332C90.8887 95.6029 91.0184 95.4049 91.0628 95.1808C91.1072 94.9568 91.0628 94.7242 90.9389 94.5323Z" fill="#2E2E3F"/>
<path d="M105.827 70.1206H66.4982V71.0573H105.827V70.1206Z" fill="#6937FF"/>
<path d="M104.983 73.2711H67.5238V74.2078H104.983V73.2711Z" fill="#6937FF"/>
<path d="M103.769 76.4217H68.5521V77.3583H103.769V76.4217Z" fill="#6937FF"/>
<path d="M102.556 79.5723H69.5809V80.5089H102.556V79.5723Z" fill="#6937FF"/>
<path d="M101.339 82.7198H70.6066V83.6565H101.339V82.7198Z" fill="#6937FF"/>
<path d="M103.321 66.0315L95.7566 86.7527L96.6373 87.0737L104.202 66.3524L103.321 66.0315Z" fill="#6937FF"/>
<path d="M92.388 66.069L86.3632 86.509L87.2624 86.7736L93.2872 66.3336L92.388 66.069Z" fill="#6937FF"/>
<path d="M83.1902 65.9026L82.4902 86.7643L83.4272 86.7957L84.1271 65.934L83.1902 65.9026Z" fill="#6937FF"/>
<path d="M72.4121 66.4828L71.5162 66.7585L77.8183 87.201L78.7142 86.9252L72.4121 66.4828Z" fill="#6937FF"/>
<path d="M55.9892 35.4676C56.7768 35.9374 57.7524 35.8405 58.6752 35.726C58.5854 35.1807 58.3104 34.683 57.8964 34.3166C57.6038 34.0344 57.2609 33.8093 56.8855 33.653C56.3712 33.4446 55.0047 33.1774 54.6668 33.8204C54.3906 34.346 55.5925 35.2327 55.9892 35.4676Z" fill="#3E3E54"/>
<path d="M39.1919 93.6983H34.0521C33.1757 93.6983 32.4652 94.4082 32.4652 95.2838V95.2868C32.4652 96.1625 33.1757 96.8723 34.0521 96.8723H39.1919C40.0683 96.8723 40.7788 96.1625 40.7788 95.2868V95.2838C40.7788 94.4082 40.0683 93.6983 39.1919 93.6983Z" fill="url(#paint11_linear)"/>
</g>
<defs>
<linearGradient id="paint0_linear" x1="-958.754" y1="26229.8" x2="12254" y2="23181.3" gradientUnits="userSpaceOnUse">
<stop offset="0.01"/>
<stop offset="0.13" stop-opacity="0.69"/>
<stop offset="1" stop-opacity="0"/>
</linearGradient>
<linearGradient id="paint1_linear" x1="2159.66" y1="1956.62" x2="1834.46" y2="2974.77" gradientUnits="userSpaceOnUse">
<stop offset="0.01"/>
<stop offset="0.13" stop-opacity="0.69"/>
<stop offset="1" stop-opacity="0"/>
</linearGradient>
<linearGradient id="paint2_linear" x1="4727.13" y1="9604.47" x2="5933.33" y2="5805.5" gradientUnits="userSpaceOnUse">
<stop offset="0.01"/>
<stop offset="0.13" stop-opacity="0.69"/>
<stop offset="1" stop-opacity="0"/>
</linearGradient>
<linearGradient id="paint3_linear" x1="4009.13" y1="7885.4" x2="2430.21" y2="7808.54" gradientUnits="userSpaceOnUse">
<stop offset="0.01"/>
<stop offset="0.13" stop-opacity="0.69"/>
<stop offset="1" stop-opacity="0"/>
</linearGradient>
<linearGradient id="paint4_linear" x1="4931.73" y1="7451.34" x2="3672.68" y2="5968.25" gradientUnits="userSpaceOnUse">
<stop offset="0.01"/>
<stop offset="0.13" stop-opacity="0.69"/>
<stop offset="1" stop-opacity="0"/>
</linearGradient>
<linearGradient id="paint5_linear" x1="-87723.4" y1="3592.38" x2="-87593.7" y2="3424.14" gradientUnits="userSpaceOnUse">
<stop offset="0.01"/>
<stop offset="0.13" stop-opacity="0.69"/>
<stop offset="1" stop-opacity="0"/>
</linearGradient>
<linearGradient id="paint6_linear" x1="-19626.2" y1="3287.18" x2="-19657.1" y2="3287.18" gradientUnits="userSpaceOnUse">
<stop offset="0.01"/>
<stop offset="0.13" stop-opacity="0.69"/>
<stop offset="1" stop-opacity="0"/>
</linearGradient>
<linearGradient id="paint7_linear" x1="-44923.6" y1="4736.76" x2="-44299.2" y2="4726.16" gradientUnits="userSpaceOnUse">
<stop offset="0.01"/>
<stop offset="0.13" stop-opacity="0.69"/>
<stop offset="1" stop-opacity="0"/>
</linearGradient>
<linearGradient id="paint8_linear" x1="-35605.1" y1="1563.36" x2="-35699.1" y2="1563.36" gradientUnits="userSpaceOnUse">
<stop offset="0.01"/>
<stop offset="0.13" stop-opacity="0.69"/>
<stop offset="1" stop-opacity="0"/>
</linearGradient>
<linearGradient id="paint9_linear" x1="-22261" y1="772.574" x2="-22299.6" y2="772.574" gradientUnits="userSpaceOnUse">
<stop offset="0.01"/>
<stop offset="0.13" stop-opacity="0.69"/>
<stop offset="1" stop-opacity="0"/>
</linearGradient>
<linearGradient id="paint10_linear" x1="-112644" y1="4449.7" x2="-112334" y2="3944.36" gradientUnits="userSpaceOnUse">
<stop offset="0.01"/>
<stop offset="0.13" stop-opacity="0.69"/>
<stop offset="1" stop-opacity="0"/>
</linearGradient>
<linearGradient id="paint11_linear" x1="1227.04" y1="1068.73" x2="1226.62" y2="1342.74" gradientUnits="userSpaceOnUse">
<stop offset="0.01"/>
<stop offset="0.13" stop-opacity="0.69"/>
<stop offset="1" stop-opacity="0"/>
</linearGradient>
<clipPath id="clip0">
<rect width="98.2653" height="90" fill="white" transform="translate(10 9)"/>
</clipPath>
</defs>
</svg>
