<svg width="42" height="31" viewBox="0 0 42 31" fill="none" xmlns="http://www.w3.org/2000/svg">
<path fill-rule="evenodd" clip-rule="evenodd" d="M31.1838 11.2278C32.085 10.3267 32.085 8.86559 31.1838 7.96444C30.2826 7.06328 28.8216 7.06328 27.9204 7.96444L20.7998 15.0851L13.6792 7.96444C12.778 7.06328 11.317 7.06328 10.4158 7.96444C9.51464 8.86559 9.51464 10.3267 10.4158 11.2278L20.7998 21.6118L31.1838 11.2278Z" fill="white"/>
<path fill-rule="evenodd" clip-rule="evenodd" d="M10.384 20.6725C11.2852 21.5737 12.7462 21.5737 13.6474 20.6725C14.5485 19.7714 14.5485 18.3103 13.6474 17.4091L6.52675 10.2885L13.817 0.575768C13.8754 0.517397 13.7976 0.425526 13.7304 0.47353L0 10.2885L10.384 20.6725Z" fill="white"/>
<path fill-rule="evenodd" clip-rule="evenodd" d="M28.7855 0.57571C28.7136 0.503776 28.5992 0.596628 28.6548 0.681821L34.9244 10.2885L27.8038 17.4091C26.9026 18.3103 26.9026 19.7713 27.8038 20.6725C28.705 21.5736 30.166 21.5736 31.0672 20.6725L41.4512 10.2885L28.7855 0.57571Z" fill="white"/>
<path fill-rule="evenodd" clip-rule="evenodd" d="M31.1239 20.616C32.025 19.7148 32.025 18.2538 31.1239 17.3526C30.2227 16.4515 28.7616 16.4515 27.8605 17.3526L20.7399 24.4732L13.6192 17.3526C12.7181 16.4515 11.257 16.4515 10.3559 17.3526C9.4547 18.2538 9.4547 19.7148 10.3559 20.616L20.7399 31L31.1239 20.616Z" fill="white"/>
</svg>
