<svg width="133" height="90" viewBox="0 0 133 90" fill="none" xmlns="http://www.w3.org/2000/svg">
<g clip-path="url(#clip0)">
<path opacity="0.24" d="M88.9497 85.2053C87.0857 85.3006 85.0553 85.464 83.704 86.7505C99.9875 88.5111 116.424 88.2745 132.651 86.046C131.632 84.1502 129.062 83.8745 126.906 83.8268C120.794 83.6907 113.627 81.9719 107.604 82.9691C101.373 84.0038 95.2718 85.2053 88.9497 85.2053Z" fill="#6937FF"/>
<path opacity="0.24" d="M11.6152 85.2598C10.5966 85.2836 9.17395 85.7533 9.38446 86.7642C9.53046 87.4449 10.3725 87.7036 11.0821 87.8125C28.1299 90.5081 45.5886 90.2222 62.6602 87.6593C62.4463 86.5838 58.3176 87.0229 56.5486 86.7268C54.3756 86.3626 52.2026 85.9814 50.0432 85.5355C46.3776 84.7666 42.6321 84.4489 38.8897 84.5893L11.6152 85.2598Z" fill="#6937FF"/>
<path d="M100.644 -0.455933H35.5696C30.8104 -0.455933 26.9523 3.41157 26.9523 8.18238V44.6961C26.9523 49.4669 30.8104 53.3344 35.5696 53.3344H100.644C105.403 53.3344 109.261 49.4669 109.261 44.6961V8.18238C109.261 3.41157 105.403 -0.455933 100.644 -0.455933Z" fill="#6937FF"/>
<path d="M100.189 -0.455933H35.1146C30.3554 -0.455933 26.4973 3.41157 26.4973 8.18238V44.6961C26.4973 49.4669 30.3554 53.3344 35.1146 53.3344H100.189C104.948 53.3344 108.806 49.4669 108.806 44.6961V8.18238C108.806 3.41157 104.948 -0.455933 100.189 -0.455933Z" fill="url(#paint0_linear)"/>
<path opacity="0.24" d="M62.9787 35.7137C62.9842 37.5612 62.4488 39.3697 61.4389 40.9152C60.429 42.4607 58.9889 43.6752 57.2972 44.4082C55.6054 45.1413 53.7363 45.3606 51.9214 45.0392C50.1064 44.7177 48.4255 43.8695 47.0868 42.5997C45.748 41.3299 44.8104 39.6943 44.3899 37.8954C43.9695 36.0966 44.0848 34.2137 44.7215 32.4799C45.3582 30.7461 46.4883 29.2377 47.9719 28.1415C49.4555 27.0453 51.2273 26.4096 53.0678 26.313C53.2357 26.2932 53.4047 26.2853 53.5737 26.2892C56.0675 26.2892 58.4592 27.282 60.2229 29.0493C61.9865 30.8167 62.9778 33.2138 62.9787 35.7137Z" fill="#6937FF"/>
<path opacity="0.45" d="M62.3179 10.3266C62.2432 10.5852 61.0378 10.9086 60.7289 11.106C60.1968 11.4818 59.7289 11.9416 59.3436 12.4674C58.6068 13.4409 58.0262 14.53 57.157 15.3877C56.9017 15.6032 56.6797 15.8556 56.4983 16.1365C56.2641 16.5415 56.2641 17.0316 56.1248 17.4741C55.9795 17.92 55.7048 18.3123 55.3358 18.6009C54.9669 18.8895 54.5205 19.0612 54.0537 19.0942C54.4284 19.4222 54.6887 19.8617 54.7965 20.3485C54.9043 20.8353 54.8541 21.344 54.6531 21.8001C54.4521 22.2563 54.1109 22.6361 53.6794 22.8841C53.2478 23.132 52.7484 23.2352 52.2542 23.1785C52.7557 24.1409 53.0343 25.2042 53.0691 26.2894C51.7226 26.3583 50.4066 26.7171 49.2108 27.3414C48.015 27.9657 46.9674 28.8409 46.1393 29.9074C45.8441 29.8407 45.566 29.713 45.3228 29.5325C45.0796 29.352 44.8766 29.1227 44.7268 28.8591C43.9765 29.5398 42.7745 29.1042 41.9868 28.4813C39.1381 26.2656 38.3369 21.8171 40.2382 18.7436C41.1719 17.212 43.1752 16.0208 44.703 16.9397C45.1037 16.2931 46.0068 16.0991 46.7402 16.2931C47.4703 16.5483 48.1364 16.9594 48.6925 17.4979C48.5499 16.3679 49.5074 15.2788 50.6211 15.0576C51.1895 14.984 51.7672 15.0548 52.3012 15.2636C52.8351 15.4723 53.3082 15.8123 53.6768 16.2522C53.3645 15.888 59.5337 10.5614 60.1822 10.1258C60.5455 9.89772 62.7457 8.85962 62.3179 10.3266Z" fill="#6937FF"/>
<path opacity="0.24" d="M60.915 24.4411C58.5621 27.4771 55.5878 30.6663 51.7477 30.7344C51.0449 30.7344 50.3115 30.6527 49.6596 30.925C48.4067 31.4491 48.0434 33.0216 47.8465 34.3728C47.3542 37.7764 46.8652 41.231 47.5069 44.5836C48.0061 47.1975 49.1808 49.7434 48.933 52.3914C48.8854 52.8781 48.753 53.4125 48.3354 53.6711C48.0046 53.8207 47.636 53.8647 47.2795 53.7971L41.3988 53.2797C40.9083 53.2845 40.427 53.1461 40.0135 52.8815C39.683 52.5662 39.4477 52.164 39.3345 51.7209C36.9577 44.9443 37.5281 37.5415 38.1189 30.3872C38.248 28.8113 38.3838 27.2082 38.961 25.7345C39.5382 24.2607 40.6213 22.9129 42.1152 22.4058C45.5105 21.252 48.7938 24.7611 52.3826 24.9006C56.1174 25.0436 58.7284 21.7489 61.4005 19.6489C62.2935 18.9443 64.4869 16.8307 64.6838 18.992C64.8264 20.4283 61.7706 23.3554 60.915 24.4411Z" fill="#6937FF"/>
<path opacity="0.24" d="M64.7692 44.8118C69.9653 44.8118 74.1776 40.5892 74.1776 35.3805C74.1776 30.1717 69.9653 25.9491 64.7692 25.9491C59.5731 25.9491 55.3608 30.1717 55.3608 35.3805C55.3608 40.5892 59.5731 44.8118 64.7692 44.8118Z" fill="#6937FF"/>
<path d="M26.4802 27.5659C26.1169 28.4815 25.7468 29.4515 25.9166 30.4215C26.0543 31.031 26.3067 31.6086 26.6602 32.1233C27.6846 33.805 28.8536 35.3937 30.154 36.8713C30.4911 37.3318 30.9583 37.6804 31.4951 37.872C31.9939 34.264 32.1134 30.6135 31.8516 26.9805C31.8545 26.653 31.7788 26.3297 31.6309 26.0377C31.3806 25.7075 31.0396 25.4579 30.6497 25.3195C29.7499 24.8975 28.8536 24.404 27.9334 24.0636C27.6618 24.404 26.7586 27.5659 26.4802 27.5659Z" fill="#C8A59C"/>
<path d="M63.7168 16.8068L59.9615 16.1908C59.9615 16.1908 59.5745 15.3909 60.1653 15.1187L66.1071 16.1397L63.7168 16.8068Z" fill="#606161"/>
<path d="M52.2509 23.5836C52.8189 23.6663 53.3953 23.6743 53.9655 23.6075C54.1862 23.519 60.6101 18.4068 63.0717 17.1406C64.2099 16.434 65.5187 16.0515 66.8575 16.0345C67.4754 15.9936 68.2156 16.014 68.5551 16.5416C68.6537 16.7266 68.6987 16.9357 68.6849 17.145C68.6711 17.3544 68.5991 17.5556 68.477 17.7261C68.2297 18.0637 67.9 18.3321 67.5195 18.5055C66.7343 18.9149 65.8731 19.1571 64.99 19.2168C64.7597 19.2151 64.5306 19.2495 64.311 19.3189C64.0276 19.4598 63.7838 19.6692 63.6014 19.9282C61.7792 22.0906 59.8722 24.1747 57.8803 26.1806C56.8175 27.2493 55.6156 28.3521 54.1183 28.5222C53.5796 28.5688 53.037 28.5333 52.5089 28.4167C51.4773 28.2161 50.4785 27.8724 49.5414 27.3956C49.3375 27.3073 49.1572 27.172 49.0151 27.0008C48.8659 26.7598 48.798 26.4769 48.8216 26.1942C48.8423 25.2543 49.1812 24.3493 49.7825 23.6279C50.5702 22.6885 51.2425 23.3624 52.2509 23.5836Z" fill="#C8A59C"/>
<path d="M43.2902 10.9492C43.3527 11.7306 43.3231 12.5165 43.2019 13.2909C43.0491 14.0805 42.6078 14.9178 41.8438 15.122C41.3888 15.2412 40.8558 15.122 40.4857 15.4318C40.2073 15.6598 40.1292 16.0444 39.9424 16.3541C39.7613 16.6123 39.52 16.8223 39.2395 16.9658C38.9591 17.1094 38.6479 17.1821 38.3331 17.1778C37.7035 17.1617 37.0812 17.0386 36.4928 16.8136C36.3389 16.7775 36.1957 16.7052 36.0752 16.6026C35.9193 16.4012 35.8442 16.1487 35.8647 15.8946C35.7945 13.9546 35.7673 12.0123 35.7832 10.0677C35.7514 9.50645 35.8394 8.94485 36.0412 8.42036C36.3969 7.80087 36.9422 7.31273 37.5963 7.02829C38.5208 6.55036 39.5158 6.22401 40.5434 6.06168C41.4907 5.90851 43.0661 5.99701 43.2393 7.2223C43.2476 7.67016 43.2272 8.11809 43.1782 8.56332C43.1951 9.34955 43.2596 10.146 43.2902 10.9492Z" fill="#C8A59C"/>
<path d="M43.8633 4.66962C44.0138 4.89799 44.1093 5.15829 44.1423 5.42999C44.1753 5.7017 44.1449 5.97738 44.0534 6.23527C43.8621 6.75198 43.5333 7.20633 43.1027 7.54906C42.8472 7.73422 42.6186 7.95417 42.4237 8.20255C42.0128 8.81859 42.2098 9.64226 42.0841 10.3774C42.0841 10.4353 42.0502 10.5068 41.9891 10.517C41.9279 10.5272 41.8838 10.4761 41.8431 10.4285C41.7292 10.2965 41.5762 10.2046 41.4065 10.1661C41.2367 10.1276 41.0592 10.1446 40.8997 10.2146C40.7403 10.2847 40.6075 10.404 40.5206 10.5552C40.4338 10.7063 40.3975 10.8814 40.417 11.0548C40.4646 11.4972 40.8618 11.8614 40.8448 12.3073C40.8096 12.56 40.701 12.7967 40.5325 12.988C40.4094 13.1876 40.228 13.3445 40.013 13.4373C39.8363 13.4764 39.6532 13.4764 39.4765 13.4373L35.8096 13.0118C35.603 12.9962 35.3991 12.9562 35.2018 12.8927C34.9431 12.7815 34.713 12.6128 34.5289 12.3993C34.3448 12.1859 34.2115 11.9333 34.1391 11.6606C34.0002 11.1138 33.9408 10.5498 33.9625 9.98603C33.9625 8.96495 33.915 7.88942 33.4974 6.94322C33.4207 6.80877 33.3831 6.65551 33.3887 6.50075C33.415 6.39755 33.465 6.30196 33.5347 6.22166C34.1153 5.46947 34.9981 4.95212 35.3954 4.09101C35.4577 3.92919 35.5362 3.7741 35.6296 3.62813C35.9352 3.2231 36.5294 3.21629 37.0353 3.24352L39.3 3.36945C39.8195 3.39668 40.2235 3.20268 40.7192 3.16864C41.087 3.16896 41.4504 3.24786 41.7853 3.40008C42.4644 3.6996 43.4219 4.06038 43.8633 4.66962Z" fill="#606161"/>
<path d="M43.8633 4.66962C44.0138 4.89799 44.1093 5.15829 44.1423 5.42999C44.1753 5.7017 44.1449 5.97738 44.0534 6.23527C43.8621 6.75198 43.5333 7.20633 43.1027 7.54906C42.8472 7.73422 42.6186 7.95417 42.4237 8.20255C42.0128 8.81859 42.2098 9.64226 42.0841 10.3774C42.0841 10.4353 42.0502 10.5068 41.9891 10.517C41.9279 10.5272 41.8838 10.4761 41.8431 10.4285C41.7292 10.2965 41.5762 10.2046 41.4065 10.1661C41.2367 10.1276 41.0592 10.1446 40.8997 10.2146C40.7403 10.2847 40.6075 10.404 40.5206 10.5552C40.4338 10.7063 40.3975 10.8814 40.417 11.0548C40.4646 11.4972 40.8618 11.8614 40.8448 12.3073C40.8096 12.56 40.701 12.7967 40.5325 12.988C40.4094 13.1876 40.228 13.3445 40.013 13.4373C39.8363 13.4764 39.6532 13.4764 39.4765 13.4373L35.8096 13.0118C35.603 12.9962 35.3991 12.9562 35.2018 12.8927C34.9431 12.7815 34.713 12.6128 34.5289 12.3993C34.3448 12.1859 34.2115 11.9333 34.1391 11.6606C34.0002 11.1138 33.9408 10.5498 33.9625 9.98603C33.9625 8.96495 33.915 7.88942 33.4974 6.94322C33.4207 6.80877 33.3831 6.65551 33.3887 6.50075C33.415 6.39755 33.465 6.30196 33.5347 6.22166C34.1153 5.46947 34.9981 4.95212 35.3954 4.09101C35.4577 3.92919 35.5362 3.7741 35.6296 3.62813C35.9352 3.2231 36.5294 3.21629 37.0353 3.24352L39.3 3.36945C39.8195 3.39668 40.2235 3.20268 40.7192 3.16864C41.087 3.16896 41.4504 3.24786 41.7853 3.40008C42.4644 3.6996 43.4219 4.06038 43.8633 4.66962Z" fill="url(#paint1_linear)"/>
<path d="M35.6367 16.1909C36.9949 16.4291 38.4209 16.3678 39.813 16.4223C41.9248 16.5006 44.0944 16.875 45.8668 18.0254C46.5858 18.5221 47.2616 19.0789 47.887 19.6897L50.9428 22.5181C51.0644 22.6001 51.1582 22.7173 51.2116 22.8542C51.265 22.9911 51.2755 23.141 51.2416 23.2839C51.0789 24.7837 50.3618 26.168 49.2315 27.164C49.1653 27.2352 49.0787 27.2839 48.9837 27.3036C48.8899 27.3045 48.7975 27.281 48.7155 27.2355L45.3201 25.6562C45.203 26.3262 45.203 27.0114 45.3201 27.6814C46.1927 32.5928 45.3201 37.7084 44.8923 42.6776C44.8901 42.9041 44.8379 43.1272 44.7395 43.3311C44.5981 43.5406 44.4035 43.7085 44.1759 43.8178C42.2644 44.8899 39.9657 44.9342 37.7758 44.9206C35.7386 44.9206 33.5826 44.8185 31.946 43.6272C31.7499 43.4977 31.5842 43.327 31.4605 43.1269C31.3385 42.8475 31.285 42.5429 31.3043 42.2385L31.1142 29.2879C31.1292 28.9809 31.0866 28.6738 30.9886 28.3825C30.6864 27.6269 27.8751 26.4493 27.3895 24.1382C27.7325 21.7183 33.6912 16.5482 35.6367 16.1909Z" fill="#6937FF"/>
<path d="M35.6367 16.1909C36.9949 16.4291 38.4209 16.3678 39.813 16.4223C41.9248 16.5006 44.0944 16.875 45.8668 18.0254C46.5858 18.5221 47.2616 19.0789 47.887 19.6897L50.9428 22.5181C51.0644 22.6001 51.1582 22.7173 51.2116 22.8542C51.265 22.9911 51.2755 23.141 51.2416 23.2839C51.0789 24.7837 50.3618 26.168 49.2315 27.164C49.1653 27.2352 49.0787 27.2839 48.9837 27.3036C48.8899 27.3045 48.7975 27.281 48.7155 27.2355L45.3201 25.6562C45.203 26.3262 45.203 27.0114 45.3201 27.6814C46.1927 32.5928 45.3201 37.7084 44.8923 42.6776C44.8901 42.9041 44.8379 43.1272 44.7395 43.3311C44.5981 43.5406 44.4035 43.7085 44.1759 43.8178C42.2644 44.8899 39.9657 44.9342 37.7758 44.9206C35.7386 44.9206 33.5826 44.8185 31.946 43.6272C31.7499 43.4977 31.5842 43.327 31.4605 43.1269C31.3385 42.8475 31.285 42.5429 31.3043 42.2385L31.1142 29.2879C31.1292 28.9809 31.0866 28.6738 30.9886 28.3825C30.6864 27.6269 27.8751 26.4493 27.3895 24.1382C27.7325 21.7183 33.6912 16.5482 35.6367 16.1909Z" fill="url(#paint2_linear)"/>
<path d="M44.7304 43.3174C44.7304 43.3174 47.5315 58.2932 47.5315 60.298C47.5315 62.3027 43.8918 81.5636 43.8918 81.5636C43.8918 81.5636 40.7036 81.7474 39.8853 80.6514L41.4336 62.221L38.8463 54.3042L37.512 64.6784L29.0441 81.1075L24.8611 78.5582L33.0743 60.8595C33.0743 60.8595 28.9558 52.1361 31.4684 43.1268L44.7304 43.3174Z" fill="#606161"/>
<path d="M44.7304 43.3174C44.7304 43.3174 47.5315 58.2932 47.5315 60.298C47.5315 62.3027 43.8918 81.5636 43.8918 81.5636C43.8918 81.5636 40.7036 81.7474 39.8853 80.6514L41.4336 62.221L38.8463 54.3042L37.512 64.6784L29.0441 81.1075L24.8611 78.5582L33.0743 60.8595C33.0743 60.8595 28.9558 52.1361 31.4684 43.1268L44.7304 43.3174Z" fill="url(#paint3_linear)"/>
<path d="M39.939 86.7711C39.9347 86.8211 39.9428 86.8714 39.9627 86.9175C40.0007 86.9751 40.0589 87.0164 40.1257 87.0332C40.7334 87.227 41.3692 87.3179 42.0067 87.3021C44.0643 87.3565 46.1241 87.403 48.1862 87.4416C48.1862 86.4546 47.3373 85.6547 46.424 85.2871C45.5107 84.9196 44.5091 84.8583 43.5584 84.6064C43.3637 84.5745 43.1861 84.4759 43.0559 84.3273C42.977 84.1826 42.9394 84.0189 42.9472 83.8542L42.8725 81.904C42.8826 81.7862 42.8688 81.6677 42.832 81.5554C42.7953 81.4431 42.7363 81.3394 42.6586 81.2505C42.5689 81.1851 42.4675 81.1378 42.3598 81.1109C41.983 80.9986 41.0187 80.5936 40.6622 80.8353C40.3057 81.0769 40.3057 82.0674 40.2513 82.4758C40.0521 83.899 39.9478 85.334 39.939 86.7711Z" fill="#606161"/>
<path d="M23.4109 82.9421C23.3772 82.9835 23.3524 83.0313 23.3379 83.0827C23.3234 83.134 23.3195 83.1878 23.3265 83.2407C23.3335 83.2937 23.3512 83.3446 23.3786 83.3904C23.4059 83.4362 23.4423 83.4759 23.4856 83.5071L26.4701 86.9107C26.5472 87.013 26.6442 87.0987 26.7553 87.1625C26.8864 87.2173 27.0275 87.244 27.1695 87.2408C28.4054 87.2919 29.6481 87.2885 30.8839 87.2408C30.8041 86.8349 30.6342 86.4522 30.3868 86.121C30.1393 85.7899 29.8207 85.5189 29.4545 85.328C28.9894 85.0897 28.4359 84.9876 28.0421 84.6473C27.6927 84.3226 27.4201 83.9237 27.2442 83.4798C27.0849 83.2561 27.0042 82.9857 27.0146 82.711C27.0251 82.4363 27.1261 82.1728 27.3019 81.9618L27.9164 80.9408C28.0058 80.831 28.0678 80.7016 28.0973 80.5631C28.1269 80.4246 28.123 80.281 28.0862 80.1443C27.9978 79.9953 27.8664 79.8766 27.7093 79.804C27.2815 79.5521 26.6907 79.0381 26.2018 78.9462C25.7129 78.8543 25.5228 79.3138 25.2715 79.7257C24.6705 80.7706 23.9066 81.8291 23.4109 82.9421Z" fill="#606161"/>
<path opacity="0.24" d="M100.976 11.1942H78.302C77.8501 11.1942 77.4838 11.5614 77.4838 12.0144V12.0178C77.4838 12.4708 77.8501 12.8381 78.302 12.8381H100.976C101.428 12.8381 101.794 12.4708 101.794 12.0178V12.0144C101.794 11.5614 101.428 11.1942 100.976 11.1942Z" fill="#6937FF"/>
<path opacity="0.24" d="M100.705 14.023H78.0307C77.5788 14.023 77.2124 14.3903 77.2124 14.8433V14.8467C77.2124 15.2997 77.5788 15.6669 78.0307 15.6669H100.705C101.156 15.6669 101.523 15.2997 101.523 14.8467V14.8433C101.523 14.3903 101.156 14.023 100.705 14.023Z" fill="#6937FF"/>
<path opacity="0.24" d="M100.43 16.8545H77.7558C77.3038 16.8545 76.9375 17.2217 76.9375 17.6748V17.6782C76.9375 18.1312 77.3038 18.4984 77.7558 18.4984H100.43C100.882 18.4984 101.248 18.1312 101.248 17.6782V17.6748C101.248 17.2217 100.882 16.8545 100.43 16.8545Z" fill="#6937FF"/>
<path opacity="0.24" d="M100.158 19.6827H77.4845C77.0326 19.6827 76.6663 20.05 76.6663 20.503V20.5064C76.6663 20.9594 77.0326 21.3267 77.4845 21.3267H100.158C100.61 21.3267 100.977 20.9594 100.977 20.5064V20.503C100.977 20.05 100.61 19.6827 100.158 19.6827Z" fill="#6937FF"/>
<path opacity="0.24" d="M101.523 24.2473H76.3025V46.5169H101.523V24.2473Z" fill="#6937FF"/>
<path opacity="0.24" d="M78.7912 31.7929L83.8876 40.3087L92.145 29.9652L95.6659 34.9548L100.643 26.8032V45.2983H77.2124V35.3224L78.7912 31.7929Z" fill="#6937FF"/>
<path opacity="0.24" d="M102.501 27.688C101.337 26.5852 99.5439 26.3436 97.9957 26.7486C96.4474 27.1536 95.1029 28.1271 93.9213 29.206C93.1902 29.8181 92.5809 30.5629 92.1252 31.4013C91.5718 32.5245 91.5072 33.8247 91.5004 35.0772C91.4903 37.8485 91.7175 40.6156 92.1795 43.3479C92.2016 43.6084 92.2892 43.859 92.4342 44.0763C92.8688 44.6175 93.7176 44.3656 94.4068 44.4405C95.2421 44.5324 95.9245 45.1757 96.3489 45.904C96.7228 46.6578 97.0494 47.4342 97.3268 48.2287C97.9527 49.689 98.9517 50.9581 100.223 51.908C101.14 52.5887 102.488 53.0754 103.37 52.3436C103.669 52.0572 103.9 51.7086 104.05 51.3226C108.26 42.1158 104.796 31.0337 107.828 21.3709C108.019 20.7651 109.404 17.9265 108.508 17.5011C107.828 17.1947 106.793 18.9544 106.501 19.3492C105.604 20.5176 104.809 21.7611 104.124 23.0659C103.846 23.5799 102.036 27.2489 102.501 27.688Z" fill="#6937FF"/>
<path d="M72.2657 6.08572C71.607 7.17487 70.0791 8.46823 68.1132 9.50973C65.0744 11.1162 62.1375 11.5076 61.5433 10.3776C61.4701 10.2091 61.4355 10.0262 61.4419 9.84244C61.4484 9.65869 61.4958 9.47872 61.5807 9.31572C61.8523 8.635 62.5381 7.82495 63.5228 7.03191C64.2832 6.42141 65.1021 5.88785 65.9674 5.43903C67.8552 4.43837 69.7022 3.90742 70.9721 3.92103L72.2657 6.08572Z" fill="url(#paint4_linear)"/>
<path opacity="0.24" d="M63.5225 7.03169C62.5379 7.82473 61.852 8.62797 61.5804 9.3155C60.8572 8.45779 58.8641 7.81111 58.8641 7.81111C60.5075 6.61645 62.9012 6.92958 63.5225 7.03169Z" fill="#6937FF"/>
<path opacity="0.24" d="M62.7285 14.2305C62.7285 14.2305 65.3904 12.8691 65.8725 10.4695C65.8725 10.4695 63.6112 11.3749 62.5383 10.9597C62.5383 10.9597 63.2513 11.9841 62.7285 14.2305Z" fill="#6937FF"/>
<path opacity="0.24" d="M72.2798 6.06174L70.9862 3.89706C70.9862 3.89706 73.1083 3.5567 73.3935 3.9379C73.6787 4.3191 72.4224 5.89156 72.2798 6.06174Z" fill="#6937FF"/>
<path opacity="0.24" d="M65.6037 9.03669C66.1325 9.03669 66.5612 8.60697 66.5612 8.07688C66.5612 7.54679 66.1325 7.11707 65.6037 7.11707C65.0749 7.11707 64.6462 7.54679 64.6462 8.07688C64.6462 8.60697 65.0749 9.03669 65.6037 9.03669Z" fill="#6937FF"/>
<path opacity="0.24" d="M67.5965 7.7023C68.0128 7.7023 68.3503 7.364 68.3503 6.9467C68.3503 6.52939 68.0128 6.1911 67.5965 6.1911C67.1802 6.1911 66.8428 6.52939 66.8428 6.9467C66.8428 7.364 67.1802 7.7023 67.5965 7.7023Z" fill="#6937FF"/>
<path opacity="0.24" d="M69.4887 6.74233C69.905 6.74233 70.2425 6.40404 70.2425 5.98674C70.2425 5.56943 69.905 5.23114 69.4887 5.23114C69.0725 5.23114 68.735 5.56943 68.735 5.98674C68.735 6.40404 69.0725 6.74233 69.4887 6.74233Z" fill="#6937FF"/>
<path d="M30.979 28.369V22.3582C30.979 22.3582 28.1677 23.6992 27.6821 24.9143C27.6821 24.9143 30.3271 28.049 30.979 28.369Z" fill="url(#paint5_linear)"/>
<path d="M103.889 62.7552C103.748 63.3038 103.767 63.8815 103.944 64.4196C104.911 68.6809 105.818 72.9966 105.838 77.3532C105.838 78.5479 105.774 79.7732 105.302 80.8691C104.856 81.8298 104.189 82.6708 103.356 83.3231C103.047 83.5818 102.677 83.9222 102.786 84.3102C102.838 84.468 102.939 84.605 103.075 84.7016C103.338 84.9094 103.656 85.0369 103.99 85.0689C104.324 85.1008 104.661 85.036 104.959 84.882C105.287 84.6793 105.579 84.424 105.825 84.1264L108.1 81.6452C108.223 81.5241 108.324 81.381 108.395 81.2231C108.467 80.893 108.428 80.5481 108.283 80.2429C107.356 77.3226 108.592 74.1981 108.748 71.1383C108.891 68.2895 108.086 65.4883 107.292 62.7484C107.223 62.4448 107.098 62.1571 106.921 61.9009C106.755 61.7163 106.548 61.5723 106.318 61.4803C106.087 61.3882 105.838 61.3505 105.59 61.37C105.096 61.4127 104.611 61.5333 104.154 61.7274" fill="url(#paint6_linear)"/>
<path d="M108.565 63.3408C108.984 66.6241 109.374 69.9142 109.737 73.2112C110.113 76.6624 110.456 80.2124 109.56 83.5683C109.377 84.249 109.159 85.0727 109.591 85.6445C109.807 85.8903 110.105 86.0494 110.43 86.0925C110.754 86.1357 111.083 86.06 111.356 85.8793C111.623 85.6911 111.848 85.4492 112.016 85.1691C112.184 84.889 112.293 84.5768 112.334 84.2524C112.407 83.6044 112.407 82.9502 112.334 82.3022C112.11 78.1396 113.057 74.011 113.312 69.8518C113.445 68.2857 113.372 66.7087 113.095 65.1617C112.775 63.596 111.998 61.3429 110.535 60.4749C108.653 59.3484 108.416 62.1563 108.565 63.3408Z" fill="url(#paint7_linear)"/>
<path d="M101.737 84.8518C101.633 84.9446 101.554 85.0615 101.506 85.1921C101.488 85.3126 101.51 85.4354 101.568 85.5427C101.625 85.6499 101.715 85.7358 101.825 85.7877C102.047 85.8853 102.29 85.9263 102.531 85.9069C103.456 85.9323 104.365 85.6577 105.122 85.124C106.117 84.3514 106.582 83.0036 107.665 82.3671C107.699 82.3421 107.739 82.3258 107.78 82.3195C108.079 82.282 107.974 82.8641 108.229 83.0172C108.483 83.1704 108.69 82.8232 108.738 82.5577C108.826 82.0819 108.826 81.5938 108.738 81.118C108.704 80.958 108.639 80.7777 108.48 80.73C108.32 80.6824 108.12 80.8968 108.021 81.0704C107.732 81.6485 107.307 82.1473 106.782 82.5237C105.815 83.1466 104.843 82.8232 103.811 83.0547C102.915 83.2759 102.338 84.2119 101.737 84.8518Z" fill="#6937FF"/>
<path d="M109.163 85.9306C109.138 86.3298 109.174 86.7305 109.272 87.1185C109.323 87.3123 109.417 87.4917 109.549 87.6428C109.68 87.7939 109.844 87.9127 110.029 87.9898C110.261 88.0448 110.503 88.0425 110.734 87.9833C110.966 87.924 111.179 87.8094 111.356 87.6494C111.987 87.133 112.431 86.4242 112.623 85.6311C112.81 84.8412 112.86 84.025 112.772 83.2179C112.745 82.8946 112.667 82.5168 112.375 82.3773C112.302 82.7744 112.115 83.1418 111.838 83.4348C111.561 83.7278 111.205 83.9339 110.813 84.028C110.563 84.0944 110.297 84.0654 110.067 83.9466C109.836 83.8278 109.658 83.6276 109.567 83.3847C109.102 84.0042 109.177 85.158 109.163 85.9306Z" fill="#6937FF"/>
<path d="M102.134 48.3409C102.018 50.4351 102.053 52.5349 102.239 54.624L102.579 59.76L102.942 65.3623C102.928 65.8841 103.057 66.3998 103.316 66.8531C103.655 67.3296 104.239 67.4215 104.762 67.4759C107.799 67.7966 110.852 67.9478 113.906 67.9286C114.306 67.9286 114.761 67.898 115.029 67.544C115.205 67.2519 115.3 66.9183 115.305 66.5774C115.481 64.7871 115.515 62.9764 115.695 61.1861C115.984 58.259 116.659 55.4 116.941 52.4865C117.223 49.573 117.084 46.4417 115.851 43.855C115.729 43.5439 115.533 43.2671 115.281 43.0484C115.012 42.8784 114.702 42.7843 114.384 42.7761C111.533 42.4673 108.665 42.3366 105.798 42.3847C105.299 42.3847 104.28 42.1941 103.842 42.4834C103.458 42.7352 103.163 43.7665 102.99 44.226C102.522 45.553 102.234 46.937 102.134 48.3409Z" fill="#606161"/>
<path d="M103.051 15.0645C102.623 16.3408 102.355 17.7363 102.749 19.0229C102.769 19.1154 102.815 19.2003 102.881 19.2679C102.941 19.3141 103.009 19.3477 103.082 19.3666L103.608 19.5402C103.833 19.6381 104.08 19.6756 104.324 19.6491C104.446 19.6332 104.558 19.5726 104.638 19.479C104.719 19.3854 104.761 19.2654 104.759 19.142L104.966 19.884L107.787 19.6287C107.88 19.6278 107.971 19.6007 108.049 19.5504C108.092 19.5054 108.126 19.452 108.148 19.3935C108.17 19.335 108.18 19.2726 108.178 19.2101C108.351 17.4777 108.31 15.7316 108.331 13.989C108.331 13.0462 108.365 12.0659 107.991 11.2014C107.618 10.3369 106.708 9.62556 105.781 9.80255C104.854 9.97954 104.389 10.7079 104.246 11.5622C104.036 12.7705 103.441 13.9107 103.051 15.0645Z" fill="#606161"/>
<path d="M103.051 15.0645C102.623 16.3408 102.355 17.7363 102.749 19.0229C102.769 19.1154 102.815 19.2003 102.881 19.2679C102.941 19.3141 103.009 19.3477 103.082 19.3666L103.608 19.5402C103.833 19.6381 104.08 19.6756 104.324 19.6491C104.446 19.6332 104.558 19.5726 104.638 19.479C104.719 19.3854 104.761 19.2654 104.759 19.142L104.966 19.884L107.787 19.6287C107.88 19.6278 107.971 19.6007 108.049 19.5504C108.092 19.5054 108.126 19.452 108.148 19.3935C108.17 19.335 108.18 19.2726 108.178 19.2101C108.351 17.4777 108.31 15.7316 108.331 13.989C108.331 13.0462 108.365 12.0659 107.991 11.2014C107.618 10.3369 106.708 9.62556 105.781 9.80255C104.854 9.97954 104.389 10.7079 104.246 11.5622C104.036 12.7705 103.441 13.9107 103.051 15.0645Z" fill="url(#paint8_linear)"/>
<path d="M116.938 23.4915C117.567 24.7985 117.648 26.2927 117.716 27.7426C117.859 30.6493 118.796 33.8146 117.58 36.4592C115.927 40.0704 119.308 41.99 116.86 44.8899C116.497 45.3188 103.734 46.2037 102.702 43.9539C102.318 43.1234 103.35 40.1793 103.272 39.2672C102.858 34.4647 102.464 29.4921 104.053 24.9449C104.367 23.9101 104.907 22.9588 105.635 22.1607C109.207 18.6108 114.681 18.7401 116.938 23.4915Z" fill="#6937FF"/>
<path d="M116.938 23.4915C117.567 24.7985 117.648 26.2927 117.716 27.7426C117.859 30.6493 118.796 33.8146 117.58 36.4592C115.927 40.0704 119.308 41.99 116.86 44.8899C116.497 45.3188 103.734 46.2037 102.702 43.9539C102.318 43.1234 103.35 40.1793 103.272 39.2672C102.858 34.4647 102.464 29.4921 104.053 24.9449C104.367 23.9101 104.907 22.9588 105.635 22.1607C109.207 18.6108 114.681 18.7401 116.938 23.4915Z" fill="url(#paint9_linear)"/>
<path d="M104.569 15.0985C104.453 15.82 104.453 16.5553 104.569 17.2768C104.628 17.6372 104.764 17.9806 104.967 18.2836C105.17 18.5867 105.436 18.8423 105.747 19.033C106.163 19.2128 106.596 19.3486 107.041 19.4381C107.168 19.4613 107.285 19.5203 107.38 19.6082C107.445 19.6843 107.489 19.7757 107.509 19.8737C107.587 20.3518 107.605 20.8377 107.563 21.3202C107.545 21.5624 107.585 21.8054 107.678 22.0295C107.771 22.2536 107.916 22.4526 108.1 22.6102C108.26 22.7056 108.44 22.7624 108.625 22.7759C108.811 22.7895 108.997 22.7596 109.169 22.6885C109.513 22.544 109.822 22.3256 110.073 22.0486C110.243 21.8811 110.395 21.695 110.524 21.4938C110.855 20.8585 110.997 20.1417 110.935 19.4278C110.935 18.4816 110.84 17.5354 110.833 16.5892C110.833 14.9147 111.631 13.9174 111.577 12.2463C111.577 11.9536 110.962 10.9767 110.833 10.7146C110.706 10.4956 110.545 10.299 110.354 10.1326C110.17 9.93654 109.955 9.77312 109.716 9.64932C109.352 9.52112 108.959 9.49754 108.582 9.58125C107.774 9.70394 106.984 9.92452 106.229 10.2381C105.935 10.3465 105.664 10.5106 105.431 10.7215C105.325 10.8306 105.243 10.9619 105.193 11.1059C105.142 11.25 105.124 11.4034 105.139 11.5553C105.107 11.9378 105.044 12.3169 104.949 12.6887C104.793 13.4897 104.666 14.293 104.569 15.0985Z" fill="url(#paint10_linear)"/>
<path d="M104.562 7.42331C103.708 8.25173 103.17 9.3534 103.041 10.5376C102.986 10.9152 103.003 11.2998 103.091 11.671C103.155 11.9499 103.312 12.1985 103.536 12.3755C103.794 12.5379 104.099 12.6086 104.402 12.5764C104.73 12.5771 105.05 12.476 105.319 12.287C105.453 12.192 105.556 12.06 105.616 11.9071C105.677 11.7542 105.691 11.587 105.658 11.4259L105.747 12.2768C105.746 12.3353 105.764 12.3925 105.798 12.4402C105.831 12.4672 105.87 12.4866 105.911 12.4972C105.953 12.5078 105.996 12.5092 106.039 12.5015L107.903 12.3994C108.013 12.4175 108.125 12.3921 108.217 12.3286C108.309 12.2652 108.373 12.1685 108.395 12.059L108.734 11.1605C108.724 11.5151 108.82 11.8647 109.009 12.1645C109.147 12.3273 109.338 12.4358 109.548 12.4707C109.759 12.5056 109.974 12.4647 110.157 12.3551C110.14 14.7376 110.106 17.2052 109.084 19.3529C109.257 19.5679 109.479 19.7382 109.731 19.8496C109.984 19.9609 110.259 20.01 110.534 19.9928C110.929 20.0148 111.322 19.9252 111.668 19.7341C111.839 19.6373 111.982 19.4971 112.082 19.3274C112.183 19.1577 112.236 18.9646 112.238 18.7675L112.198 19.3631C112.187 19.4199 112.199 19.4786 112.232 19.5265C112.257 19.5452 112.285 19.5586 112.316 19.5656C112.346 19.5726 112.378 19.5732 112.408 19.5673L114.31 19.4312C114.418 19.4421 114.527 19.4138 114.617 19.3514C114.706 19.289 114.771 19.1966 114.798 19.0908C115.333 18.1017 115.772 17.0634 116.109 15.9902C116.598 14.2611 116.554 12.4266 116.388 10.6397C116.357 10.1197 116.259 9.6059 116.096 9.1115C115.549 7.65817 113.997 6.81067 112.476 6.52817C110.955 6.24567 109.441 6.45669 107.923 6.32055C107.316 6.2464 106.701 6.30673 106.12 6.49729C105.539 6.68784 105.007 7.00397 104.562 7.42331Z" fill="#606161"/>
<path d="M104.562 7.42331C103.708 8.25173 103.17 9.3534 103.041 10.5376C102.986 10.9152 103.003 11.2998 103.091 11.671C103.155 11.9499 103.312 12.1985 103.536 12.3755C103.794 12.5379 104.099 12.6086 104.402 12.5764C104.73 12.5771 105.05 12.476 105.319 12.287C105.453 12.192 105.556 12.06 105.616 11.9071C105.677 11.7542 105.691 11.587 105.658 11.4259L105.747 12.2768C105.746 12.3353 105.764 12.3925 105.798 12.4402C105.831 12.4672 105.87 12.4866 105.911 12.4972C105.953 12.5078 105.996 12.5092 106.039 12.5015L107.903 12.3994C108.013 12.4175 108.125 12.3921 108.217 12.3286C108.309 12.2652 108.373 12.1685 108.395 12.059L108.734 11.1605C108.724 11.5151 108.82 11.8647 109.009 12.1645C109.147 12.3273 109.338 12.4358 109.548 12.4707C109.759 12.5056 109.974 12.4647 110.157 12.3551C110.14 14.7376 110.106 17.2052 109.084 19.3529C109.257 19.5679 109.479 19.7382 109.731 19.8496C109.984 19.9609 110.259 20.01 110.534 19.9928C110.929 20.0148 111.322 19.9252 111.668 19.7341C111.839 19.6373 111.982 19.4971 112.082 19.3274C112.183 19.1577 112.236 18.9646 112.238 18.7675L112.198 19.3631C112.187 19.4199 112.199 19.4786 112.232 19.5265C112.257 19.5452 112.285 19.5586 112.316 19.5656C112.346 19.5726 112.378 19.5732 112.408 19.5673L114.31 19.4312C114.418 19.4421 114.527 19.4138 114.617 19.3514C114.706 19.289 114.771 19.1966 114.798 19.0908C115.333 18.1017 115.772 17.0634 116.109 15.9902C116.598 14.2611 116.554 12.4266 116.388 10.6397C116.357 10.1197 116.259 9.6059 116.096 9.1115C115.549 7.65817 113.997 6.81067 112.476 6.52817C110.955 6.24567 109.441 6.45669 107.923 6.32055C107.316 6.2464 106.701 6.30673 106.12 6.49729C105.539 6.68784 105.007 7.00397 104.562 7.42331Z" fill="url(#paint11_linear)"/>
<path d="M105.166 40.9589L93.3673 42.6403L89.5985 26.1703L101.397 24.489L105.166 40.9589Z" fill="white"/>
<path d="M119.994 36.5578C119.994 37.0785 119.994 37.6503 119.654 38.0554C119.315 38.4604 118.707 38.5999 118.16 38.6612C114.199 39.102 110.198 38.2955 106.715 36.3536C106.438 36.2237 106.198 36.0272 106.015 35.7818C105.866 35.5004 105.792 35.1848 105.801 34.8662C105.774 34.2193 105.788 33.5712 105.846 32.9262C105.839 32.7837 105.863 32.6415 105.916 32.5093C105.97 32.3771 106.051 32.2581 106.155 32.1604C106.349 32.054 106.574 32.0156 106.793 32.0514L112.144 32.3169C112.323 32.3487 112.507 32.3123 112.66 32.2148C112.781 32.0945 112.853 31.9329 112.86 31.7621C113.149 30.0331 112.86 28.2564 113.03 26.5104C113.162 25.2443 113.75 23.1068 115.203 22.7665C116.901 22.3682 117.447 24.5091 117.882 25.6969C119.164 29.1798 119.877 32.8472 119.994 36.5578Z" fill="#6937FF"/>
<path d="M103.615 31.6499C103.398 31.5432 103.17 31.4589 102.936 31.398C102.722 31.3595 102.505 31.3412 102.287 31.3436C101.822 31.3436 101.36 31.3436 100.899 31.3436C100.488 31.3368 100.078 31.3768 99.6764 31.4627C99.5588 31.4825 99.4512 31.5412 99.3708 31.6295C99.3165 31.7123 99.2881 31.8095 99.2893 31.9086C99.2711 32.2521 99.3497 32.5938 99.516 32.8947C99.6823 33.1956 99.9297 33.4436 100.23 33.6104C100.368 33.6641 100.487 33.7591 100.569 33.8826C100.607 33.9575 100.607 34.0494 100.641 34.1277C100.717 34.258 100.837 34.356 100.98 34.4034C101.712 34.7362 102.497 34.9345 103.299 34.9888C103.41 34.9867 103.52 35.0076 103.622 35.0501C103.694 35.0934 103.763 35.1412 103.829 35.193C103.978 35.2766 104.144 35.3269 104.314 35.3404C104.485 35.3539 104.656 35.3303 104.817 35.2713C105.136 35.1524 105.464 35.0579 105.798 34.9888C106.077 34.9548 106.416 34.965 106.555 34.7267C106.621 34.5816 106.635 34.4178 106.593 34.2639C106.566 33.8696 106.508 33.4781 106.419 33.093C106.331 32.8105 106.1 32.7527 105.839 32.6471L104.715 32.14C104.409 32.0005 103.87 31.8779 103.615 31.6499Z" fill="url(#paint12_linear)"/>
<path d="M10.03 64.944C10.3194 61.8232 9.95744 58.6762 8.96724 55.7033C8.39344 54.0015 7.60912 52.3473 7.10322 50.5979C6.59732 48.8484 6.36304 46.9833 6.90969 45.261C7.45633 43.5388 7.85019 42.0719 8.74994 40.513C9.74137 38.8112 10.7498 37.0652 12.1724 35.697C10.7913 37.7778 9.83799 40.1137 9.3681 42.5682C8.89822 45.0228 8.92123 47.5465 9.43579 49.992C9.7244 51.3194 10.1556 52.6128 10.4849 53.9334C11.2489 56.9966 11.4628 60.1722 11.5035 63.3307C11.5035 63.9365 11.5035 64.59 11.1368 65.0801C10.7701 65.5703 10.3933 65.4443 10.03 64.944Z" fill="#6937FF"/>
<path d="M6.79016 37.3068C6.79016 37.3068 12.3279 42.3883 12.0223 49.4235C11.7168 56.4588 10.9121 64.7397 11.1158 65.0801C11.3195 65.4204 14.596 65.4408 14.596 65.4408C14.25 60.159 14.1718 54.8631 14.3617 49.5733C14.6673 40.7478 6.79016 37.3068 6.79016 37.3068Z" fill="#6937FF"/>
<path d="M6.79016 37.3068C6.79016 37.3068 12.3279 42.3883 12.0223 49.4235C11.7168 56.4588 10.9121 64.7397 11.1158 65.0801C11.3195 65.4204 14.596 65.4408 14.596 65.4408C14.25 60.159 14.1718 54.8631 14.3617 49.5733C14.6673 40.7478 6.79016 37.3068 6.79016 37.3068Z" fill="url(#paint13_linear)"/>
<path d="M23.5835 37.9092C23.5835 37.9092 17.0306 43.0146 15.5231 51.4044C14.0156 59.7943 13.238 65.4748 13.238 65.4748L16.9729 65.3183C16.9729 65.3183 17.0238 51.7686 19.937 45.6183C22.8501 39.468 23.5835 37.9092 23.5835 37.9092Z" fill="#6937FF"/>
<path d="M23.5835 37.9092C23.5835 37.9092 17.0306 43.0146 15.5231 51.4044C14.0156 59.7943 13.238 65.4748 13.238 65.4748L16.9729 65.3183C16.9729 65.3183 17.0238 51.7686 19.937 45.6183C22.8501 39.468 23.5835 37.9092 23.5835 37.9092Z" fill="url(#paint14_linear)"/>
<path d="M16.3556 32.9501C16.3556 32.9501 18.7323 41.7586 17.2418 46.1356C15.7512 50.5126 15.2046 65.5973 15.2046 65.5973L13.2285 65.468C13.2285 65.468 13.4085 49.4949 14.1113 47.1499C14.8141 44.8048 16.9532 39.0017 16.3556 32.9501Z" fill="#6937FF"/>
<path d="M16.3556 32.9501C16.3556 32.9501 18.7323 41.7586 17.2418 46.1356C15.7512 50.5126 15.2046 65.5973 15.2046 65.5973L13.2285 65.468C13.2285 65.468 13.4085 49.4949 14.1113 47.1499C14.8141 44.8048 16.9532 39.0017 16.3556 32.9501Z" fill="url(#paint15_linear)"/>
<path d="M0.447876 45.5674C0.447876 45.5674 9.95473 44.0562 12.4061 50.4651C14.8576 56.8741 12.4061 65.4103 12.4061 65.4103L11.1091 65.0869C11.1091 65.0869 12.3281 51.5338 4.99758 47.7831L0.447876 45.5674Z" fill="#6937FF"/>
<path d="M0.447876 45.5674C0.447876 45.5674 9.95473 44.0562 12.4061 50.4651C14.8576 56.8741 12.4061 65.4103 12.4061 65.4103L11.1091 65.0869C11.1091 65.0869 12.3281 51.5338 4.99758 47.7831L0.447876 45.5674Z" fill="url(#paint16_linear)"/>
<path d="M10.03 64.944C10.3194 61.8232 9.95744 58.6762 8.96724 55.7033C8.39344 54.0015 7.60912 52.3473 7.10322 50.5979C6.59732 48.8484 6.36304 46.9833 6.90969 45.261C7.45633 43.5388 7.85019 42.0719 8.74994 40.513C9.74137 38.8112 10.7498 37.0652 12.1724 35.697C10.7913 37.7778 9.83799 40.1137 9.3681 42.5682C8.89822 45.0228 8.92123 47.5465 9.43579 49.992C9.7244 51.3194 10.1556 52.6128 10.4849 53.9334C11.2489 56.9966 11.4628 60.1722 11.5035 63.3307C11.5035 63.9365 11.5035 64.59 11.1368 65.0801C10.7701 65.5703 10.3933 65.4443 10.03 64.944Z" fill="url(#paint17_linear)"/>
<path d="M7.67285 64.3788H20.1506L17.655 83.7657H9.96129L7.67285 64.3788Z" fill="#6937FF"/>
<path d="M7.67285 64.3788H20.1506L17.655 83.7657H9.96129L7.67285 64.3788Z" fill="url(#paint18_linear)"/>
</g>
<defs>
<linearGradient id="paint0_linear" x1="60.0531" y1="-54.9508" x2="69.3263" y2="43.8614" gradientUnits="userSpaceOnUse">
<stop stop-color="white" stop-opacity="0"/>
<stop offset="0.95" stop-color="white"/>
</linearGradient>
<linearGradient id="paint1_linear" x1="33.3819" y1="8.33188" x2="44.1519" y2="8.33188" gradientUnits="userSpaceOnUse">
<stop stop-color="#010101" stop-opacity="0"/>
<stop offset="0.95" stop-color="#010101"/>
</linearGradient>
<linearGradient id="paint2_linear" x1="4448.88" y1="5959.85" x2="1269.89" y2="7891.45" gradientUnits="userSpaceOnUse">
<stop stop-color="#010101" stop-opacity="0"/>
<stop offset="0.95" stop-color="#010101"/>
</linearGradient>
<linearGradient id="paint3_linear" x1="3951.38" y1="13488.5" x2="3951.38" y2="7632.06" gradientUnits="userSpaceOnUse">
<stop stop-color="#010101" stop-opacity="0"/>
<stop offset="0.95" stop-color="#010101"/>
</linearGradient>
<linearGradient id="paint4_linear" x1="2886" y1="832.269" x2="2899.63" y2="1054.06" gradientUnits="userSpaceOnUse">
<stop stop-color="white" stop-opacity="0"/>
<stop offset="0.95" stop-color="white"/>
</linearGradient>
<linearGradient id="paint5_linear" x1="532.132" y1="1156.83" x2="530.16" y2="1484.52" gradientUnits="userSpaceOnUse">
<stop stop-color="#010101" stop-opacity="0"/>
<stop offset="0.95" stop-color="#010101"/>
</linearGradient>
<linearGradient id="paint6_linear" x1="102.783" y1="73.2281" x2="108.779" y2="73.2281" gradientUnits="userSpaceOnUse">
<stop stop-color="#E4C5D5"/>
<stop offset="0.42" stop-color="#E9D3CF"/>
<stop offset="1" stop-color="#EFE8CA"/>
</linearGradient>
<linearGradient id="paint7_linear" x1="1981.09" y1="8736.22" x2="2050.37" y2="8736.22" gradientUnits="userSpaceOnUse">
<stop stop-color="#E4C5D5"/>
<stop offset="0.42" stop-color="#E9D3CF"/>
<stop offset="1" stop-color="#EFE8CA"/>
</linearGradient>
<linearGradient id="paint8_linear" x1="2213.05" y1="1665.17" x2="2311.33" y2="1665.17" gradientUnits="userSpaceOnUse">
<stop stop-color="#010101" stop-opacity="0"/>
<stop offset="0.95" stop-color="#010101"/>
</linearGradient>
<linearGradient id="paint9_linear" x1="6303.5" y1="5284.3" x2="4726.85" y2="8412.51" gradientUnits="userSpaceOnUse">
<stop stop-color="#010101" stop-opacity="0"/>
<stop offset="0.95" stop-color="#010101"/>
</linearGradient>
<linearGradient id="paint10_linear" x1="2760.86" y1="2230.53" x2="2908.91" y2="2230.53" gradientUnits="userSpaceOnUse">
<stop stop-color="#E4C5D5"/>
<stop offset="0.42" stop-color="#E9D3CF"/>
<stop offset="1" stop-color="#EFE8CA"/>
</linearGradient>
<linearGradient id="paint11_linear" x1="107.597" y1="14.5368" x2="121.165" y2="6.3566" gradientUnits="userSpaceOnUse">
<stop stop-color="#010101" stop-opacity="0"/>
<stop offset="0.47" stop-color="#010101" stop-opacity="0.47"/>
<stop offset="0.95" stop-color="#010101"/>
</linearGradient>
<linearGradient id="paint12_linear" x1="2730.54" y1="904.091" x2="2889.01" y2="904.091" gradientUnits="userSpaceOnUse">
<stop stop-color="#E4C5D5"/>
<stop offset="0.42" stop-color="#E9D3CF"/>
<stop offset="1" stop-color="#EFE8CA"/>
</linearGradient>
<linearGradient id="paint13_linear" x1="840.529" y1="7157.76" x2="425.361" y2="7395.78" gradientUnits="userSpaceOnUse">
<stop stop-color="#010101" stop-opacity="0"/>
<stop offset="0.95" stop-color="#010101"/>
</linearGradient>
<linearGradient id="paint14_linear" x1="1296.6" y1="7548.72" x2="806.805" y2="7600.63" gradientUnits="userSpaceOnUse">
<stop stop-color="#010101" stop-opacity="0"/>
<stop offset="0.95" stop-color="#010101"/>
</linearGradient>
<linearGradient id="paint15_linear" x1="537.824" y1="8116.09" x2="-942.041" y2="9167.35" gradientUnits="userSpaceOnUse">
<stop stop-color="#010101" stop-opacity="0"/>
<stop offset="0.95" stop-color="#010101"/>
</linearGradient>
<linearGradient id="paint16_linear" x1="1183.75" y1="5540.49" x2="1646.45" y2="6330.61" gradientUnits="userSpaceOnUse">
<stop stop-color="#010101" stop-opacity="0"/>
<stop offset="0.95" stop-color="#010101"/>
</linearGradient>
<linearGradient id="paint17_linear" x1="558.331" y1="8029.34" x2="384.689" y2="8041.22" gradientUnits="userSpaceOnUse">
<stop stop-color="#010101" stop-opacity="0"/>
<stop offset="0.95" stop-color="#010101"/>
</linearGradient>
<linearGradient id="paint18_linear" x1="1196.43" y1="4617.38" x2="599.549" y2="8992.57" gradientUnits="userSpaceOnUse">
<stop stop-color="#010101" stop-opacity="0"/>
<stop offset="0.95" stop-color="#010101"/>
</linearGradient>
<clipPath id="clip0">
<rect width="132.245" height="90" fill="white"/>
</clipPath>
</defs>
</svg>
