<svg width="131" height="99" viewBox="0 0 131 99" fill="none" xmlns="http://www.w3.org/2000/svg">
<g clip-path="url(#clip0)">
<path d="M92.8129 91.9543H51.3489V94.3098H92.8129V91.9543Z" fill="#6937FF"/>
<path d="M86.4793 73.1042H58.4043V91.9543H86.4793V73.1042Z" fill="#6937FF"/>
<path d="M86.4793 73.1042H58.4043V91.9543H86.4793V73.1042Z" fill="#6937FF"/>
<path d="M86.4793 73.1042H58.4043V91.9543H86.4793V73.1042Z" fill="url(#paint0_linear)"/>
<path d="M123.671 19.7739V69.1405C123.671 70.5555 123.391 71.9566 122.847 73.2637C122.304 74.5709 121.507 75.7586 120.503 76.7588C119.499 77.759 118.307 78.5522 116.995 79.0931C115.683 79.634 114.277 79.9119 112.857 79.9111H30.5862C27.72 79.9111 24.9713 78.7763 22.9446 76.7564C20.918 74.7366 19.7794 71.997 19.7794 69.1405V19.7739C19.7792 18.3592 20.0586 16.9584 20.6015 15.6514C21.1445 14.3444 21.9405 13.1567 22.944 12.1563C23.9474 11.1558 25.1388 10.3622 26.4501 9.82063C27.7613 9.27907 29.1668 9.00023 30.5862 9.00001H112.847C114.268 8.99827 115.674 9.27544 116.987 9.81569C118.299 10.3559 119.492 11.1487 120.497 12.1486C121.503 13.1485 122.3 14.336 122.845 15.6432C123.389 16.9505 123.67 18.3518 123.671 19.7672V19.7739Z" fill="#6937FF"/>
<path d="M123.671 19.7739V66.552H19.791V19.7739C19.7908 18.3592 20.0701 16.9584 20.6131 15.6514C21.1561 14.3444 21.952 13.1567 22.9555 12.1563C23.959 11.1558 25.1504 10.3622 26.4617 9.82063C27.7729 9.27907 29.1784 9.00023 30.5978 9.00001H112.847C114.268 8.99827 115.674 9.27544 116.987 9.81569C118.299 10.3559 119.492 11.1487 120.497 12.1486C121.503 13.1485 122.3 14.336 122.845 15.6432C123.389 16.9505 123.67 18.3518 123.671 19.7672V19.7739Z" fill="url(#paint1_linear)"/>
<path d="M105.728 18.7606H32.3328V33.1858H105.728V18.7606Z" fill="url(#paint2_linear)"/>
<path d="M65.6718 35.0272H32.3328V64.0808H65.6718V35.0272Z" fill="url(#paint3_linear)"/>
<path d="M105.135 35.0272H68.0266V44.7299H105.135V35.0272Z" fill="url(#paint4_linear)"/>
<path d="M105.135 46.5712H68.0266V56.274H105.135V46.5712Z" fill="url(#paint5_linear)"/>
<path d="M105.135 58.1154H68.0266V64.0809H105.135V58.1154Z" fill="url(#paint6_linear)"/>
<path d="M89.1742 98.8157H90.7581L85.8771 37.619L84.5387 37.9776L84.8422 41.9761L80.0326 42.2786L79.6627 37.619L78.3243 37.9776L82.9549 98.8157H84.5387L83.9864 91.8733L88.6302 91.589L88.5606 90.4898L83.8985 90.7758L83.5022 85.817L88.2687 85.5161L88.2007 84.4202L83.4159 84.7145L83.0212 79.7457L87.6948 79.4499L89.1742 98.8157ZM80.1205 43.3695L84.9301 43.0637L85.3083 48.0325L80.5202 48.3399L80.1205 43.3695ZM80.6031 49.4292L85.3879 49.1234L85.766 54.1136L81.0045 54.4112L80.6031 49.4292ZM81.0891 55.5004L85.8489 55.1963L86.2536 60.5006L81.502 60.7882L81.0891 55.5004ZM81.5965 61.8808L86.3365 61.5981L86.6881 66.2264L81.9664 66.5222L81.5965 61.8808ZM82.0526 67.6198L86.7711 67.3206L87.1492 72.2959L82.449 72.5918L82.0526 67.6198ZM82.9333 78.6565L82.5353 73.6811L87.2338 73.3819L87.6119 78.3606L82.9333 78.6565Z" fill="#6937FF"/>
<path d="M48.8429 41.505V37.619H47.8661V41.505H43.1145V42.7084H47.8661V96.5098H48.8429V48.973L54.6344 42.7084H59.0692V41.4984L48.8429 41.505ZM48.8429 47.2721V42.7084H53.2479L48.8429 47.2721Z" fill="#6937FF"/>
<path d="M97.0917 41.505V37.619H96.1149V41.505H86.7295V42.7084H90.8044L96.1116 48.444V96.5098H97.0917V42.7084H102.688V41.4984L97.0917 41.505ZM96.1149 46.7729L92.1892 42.7084H96.1116L96.1149 46.7729Z" fill="#6937FF"/>
<g opacity="0.61">
<path opacity="0.61" d="M89.1742 98.8157H90.7581L85.8771 37.619L84.5387 37.9776L84.8422 41.9761L80.0326 42.2786L79.6627 37.619L78.3243 37.9776L82.9549 98.8157H84.5387L83.9864 91.8733L88.6302 91.589L88.5606 90.4898L83.8985 90.7758L83.5022 85.817L88.2687 85.5161L88.2007 84.4202L83.4159 84.7145L83.0212 79.7457L87.6948 79.4499L89.1742 98.8157ZM80.1205 43.3695L84.9301 43.0637L85.3083 48.0325L80.5202 48.3399L80.1205 43.3695ZM80.6031 49.4292L85.3879 49.1234L85.766 54.1136L81.0045 54.4112L80.6031 49.4292ZM81.089 55.5004L85.8489 55.1963L86.2536 60.5006L81.502 60.7882L81.089 55.5004ZM81.5965 61.8808L86.3365 61.5981L86.6881 66.2264L81.9664 66.5222L81.5965 61.8808ZM82.0526 67.6198L86.771 67.3206L87.1492 72.2959L82.449 72.5918L82.0526 67.6198ZM82.9333 78.6565L82.5353 73.6811L87.2338 73.3819L87.6119 78.3606L82.9333 78.6565Z" fill="url(#paint7_linear)"/>
<path opacity="0.61" d="M48.8429 41.505V37.619H47.8661V41.505H43.1145V42.7084H47.8661V96.5098H48.8429V48.973L54.6344 42.7084H59.0692V41.4984L48.8429 41.505ZM48.8429 47.2721V42.7084H53.2479L48.8429 47.2721Z" fill="url(#paint8_linear)"/>
<path opacity="0.61" d="M97.0918 41.505V37.619H96.1149V41.505H86.7295V42.7084H90.8044L96.1116 48.444V96.5098H97.0918V42.7084H102.688V41.4984L97.0918 41.505ZM96.1149 46.7729L92.1893 42.7084H96.1116L96.1149 46.7729Z" fill="url(#paint9_linear)"/>
</g>
<path d="M86.8756 53.8888L86.7628 54.8971H84.426C84.426 54.8971 84.2353 54.3153 84.6615 54.1698C84.8953 54.0875 85.1363 54.0272 85.3813 53.9896L86.8756 53.8888Z" fill="#6937FF"/>
<path d="M83.6166 33.0056C83.509 33.908 83.5651 34.8223 83.7825 35.7049C83.9128 35.8723 84.0855 36.002 84.2829 36.0808C84.4802 36.1595 84.6951 36.1844 84.9053 36.1528V36.8239H86.0231L86.5008 33.4635C86.5008 33.4635 84.7411 31.2254 83.6166 33.0056Z" fill="url(#paint10_linear)"/>
<path d="M84.4044 33.3411C84.5805 33.6922 84.6928 34.0717 84.7361 34.4618C84.7361 34.4618 84.96 34.0139 85.0678 34.237C85.1756 34.4602 84.8439 34.9098 84.8439 34.9098L85.1756 35.4685H86.3116C86.3116 35.4685 86.8739 33.0172 86.5588 32.68C86.2436 32.3428 86.0314 32.3494 86.0314 32.3494C86.0314 32.3494 86.0314 32.0188 85.3564 32.0188C84.6813 32.0188 83.7841 32.0188 83.4474 32.5791C83.1108 33.1395 82.998 32.9097 82.998 32.9097C82.998 32.9097 83.1887 33.3246 83.4806 33.2238C83.5503 33.2073 84.2916 33.0056 84.4044 33.3411Z" fill="#333333"/>
<path d="M84.9085 36.8239H86.7976C86.7976 36.8239 87.5953 36.9892 87.7064 38.895C87.7744 40.1972 87.7744 41.5021 87.7064 42.8042V45.9283L86.7976 45.6258L83.4259 46.3762L83.0942 41.796C82.7444 41.7534 82.4081 41.6355 82.1086 41.4506C81.809 41.2656 81.5534 41.018 81.3594 40.7248C81.1139 40.3581 80.9594 39.9384 80.9087 39.5004C80.8579 39.0624 80.9124 38.6187 81.0675 38.2058L83.4142 39.4372L83.5386 38.776C83.6672 38.0596 84.0697 37.4208 84.6614 36.9942L84.9085 36.8239Z" fill="#6937FF"/>
<path d="M81.3811 37.5859L80.8206 35.7941L83.0562 35.4569L83.8092 37.8983L83.4144 39.4372L82.0744 38.7413L81.3811 37.5859Z" fill="#FCFDFF"/>
<path d="M80.9317 38.5876C80.9698 38.2128 81.1273 37.86 81.3812 37.5809L81.4939 37.6917H82.2087L82.3215 38.1297L82.0628 38.4983C81.9072 38.6289 81.7144 38.7078 81.5116 38.7238C81.3088 38.7398 81.106 38.6922 80.9317 38.5876Z" fill="url(#paint11_linear)"/>
<path d="M82.0743 38.7413L82.6067 40.1496L83.4144 39.4372L82.0743 38.7413Z" fill="url(#paint12_linear)"/>
<path opacity="0.61" d="M83.056 41.7166C83.056 41.7166 84.8621 41.0438 84.8621 39.9248L85.3132 45.0671L83.401 45.5184L83.056 41.7166Z" fill="url(#paint13_linear)"/>
<path d="M83.3927 45.5133L83.056 51.0904L83.5055 54.0012H84.8538L85.0777 49.1977L85.8639 47.1812L85.3033 54.0012L86.8755 54.1136L87.6501 45.0654L86.7628 44.7299L83.3927 45.5133Z" fill="#333333"/>
<path d="M84.7859 54.0012V55.117L82.4159 54.274C82.4159 54.274 82.4159 53.6574 82.8753 53.6574C83.124 53.656 83.3723 53.6786 83.6166 53.7252L84.7859 54.0012Z" fill="#6937FF"/>
<path d="M53.8484 98.2338L53.9645 99.2388H56.303C56.303 99.2388 56.4937 98.6569 56.0659 98.5115C55.8328 98.429 55.5923 98.3692 55.3477 98.3329L53.8484 98.2338Z" fill="#6937FF"/>
<path d="M55.472 77.1358C55.8784 77.9427 56.1372 78.8153 56.2366 79.7127C56.1022 80.3507 55.3144 80.4962 55.3144 80.4962L55.5284 81.1342L54.4056 81.5259L52.8765 78.5027C52.8765 78.5027 53.8318 75.8035 55.472 77.1358Z" fill="url(#paint14_linear)"/>
<path d="M54.8319 77.7077C54.7672 78.0779 54.7672 78.4565 54.8319 78.8267C54.8319 78.8267 54.472 78.4796 54.4388 78.7259C54.4057 78.9722 54.8651 79.2863 54.8651 79.2863L54.7307 79.9243L53.7091 80.2714C53.7091 80.2714 52.3823 78.1226 52.5847 77.7077C52.787 77.2928 52.8882 77.2482 52.8882 77.2482C52.8882 77.2482 52.7754 76.9341 53.4156 76.711C54.0557 76.4878 54.9082 76.2151 55.4058 76.6333C55.9033 77.0515 55.9332 76.7986 55.9332 76.7986C55.9332 76.7986 55.9331 77.2465 55.5733 77.2581C55.6081 77.3044 54.8319 77.349 54.8319 77.7077Z" fill="#333333"/>
<path d="M55.8767 81.1458H53.9893C53.9893 81.1458 53.1915 81.311 53.0788 83.2169C53.0108 84.5185 53.0108 85.8228 53.0788 87.1244V90.2485L53.9893 89.946L57.3593 90.6964L57.691 86.1178C58.0397 86.0605 58.3719 85.9288 58.6647 85.7317C58.9576 85.5346 59.2042 85.2766 59.3877 84.9756C59.6324 84.6082 59.7864 84.1883 59.8372 83.7502C59.8879 83.3121 59.8339 82.8682 59.6796 82.4549L57.3311 83.6863L57.2068 83.0251C57.0778 82.3093 56.6753 81.6711 56.084 81.2449L55.8767 81.1458Z" fill="#6937FF"/>
<path d="M59.3496 81.9177L59.9102 80.1375L57.6629 79.8019L56.9216 82.2433L57.3262 83.7095L58.6746 83.0384L59.3496 81.9177Z" fill="#FCFDFF"/>
<path d="M59.7974 82.9376C59.7608 82.5619 59.6031 82.2082 59.348 81.9293L59.2368 82.0417H58.5287L58.4159 82.478L58.6746 82.8466C58.8293 82.9757 59.0204 83.0537 59.2215 83.07C59.4226 83.0863 59.6238 83.04 59.7974 82.9376Z" fill="url(#paint15_linear)"/>
<path opacity="0.61" d="M57.6628 86.0947C57.6628 86.0947 55.865 85.4236 55.865 84.3029L56.0109 90.3725L57.3261 90.6634L57.6628 86.0947Z" fill="url(#paint16_linear)"/>
<path d="M57.3262 89.8567L57.6629 95.4337L57.2251 98.3446H55.8767L55.6528 93.5411L54.8651 91.5246L55.4273 98.3446L53.855 98.457L53.0689 89.4088L53.9662 89.0732L57.3262 89.8567Z" fill="#333333"/>
<path d="M55.9447 98.3445V99.1297L58.4042 99.0173C58.4042 99.0173 58.2931 98.2338 57.8437 98.2338C57.6009 98.241 57.3605 98.184 57.1471 98.0685L55.9447 98.3445Z" fill="#6937FF"/>
<path d="M95.6839 33.1213H89.9422C89.1586 33.1209 88.4073 32.8103 87.8534 32.258C87.2996 31.7056 86.9884 30.9567 86.9884 30.1758V28.9212C86.9884 28.1404 87.2996 27.3916 87.8535 26.8395C88.4075 26.2875 89.1588 25.9773 89.9422 25.9773H95.6839C96.0718 25.9771 96.4559 26.053 96.8144 26.2008C97.1728 26.3485 97.4986 26.5652 97.773 26.8384C98.0474 27.1116 98.2652 27.436 98.4138 27.7931C98.5625 28.1502 98.6391 28.5329 98.6393 28.9195V30.1741C98.6393 30.5609 98.5629 30.9439 98.4143 31.3013C98.2658 31.6587 98.0481 31.9834 97.7737 32.2569C97.4992 32.5304 97.1734 32.7474 96.8149 32.8954C96.4563 33.0435 96.072 33.1196 95.6839 33.1196V33.1213Z" fill="white"/>
<path d="M87.65 34.6734C87.65 34.6734 89.9985 34.7858 90.5607 33.1064H92.3021C92.3021 33.1064 91.1345 35.2338 87.65 34.6734Z" fill="white"/>
<path opacity="0.15" d="M88.9769 27.0815H96.8646C96.9183 27.0815 96.9698 27.1027 97.0077 27.1405C97.0457 27.1784 97.067 27.2297 97.067 27.2831V27.4484C97.067 27.5019 97.0457 27.5532 97.0077 27.591C96.9698 27.6288 96.9183 27.6501 96.8646 27.6501H88.9769C88.9503 27.6501 88.924 27.6449 88.8994 27.6347C88.8749 27.6246 88.8526 27.6098 88.8338 27.591C88.815 27.5723 88.8001 27.5501 88.7899 27.5256C88.7798 27.5011 88.7745 27.4749 88.7745 27.4484V27.2831C88.7745 27.2567 88.7798 27.2304 88.7899 27.206C88.8001 27.1815 88.815 27.1593 88.8338 27.1405C88.8526 27.1218 88.8749 27.107 88.8994 27.0968C88.924 27.0867 88.9503 27.0815 88.9769 27.0815Z" fill="#020202"/>
<path opacity="0.15" d="M88.9769 28.4253H96.8646C96.9183 28.4253 96.9698 28.4465 97.0077 28.4844C97.0457 28.5222 97.067 28.5735 97.067 28.627V28.7922C97.067 28.8457 97.0457 28.897 97.0077 28.9348C96.9698 28.9727 96.9183 28.9939 96.8646 28.9939H88.9769C88.9503 28.9939 88.924 28.9887 88.8994 28.9786C88.8749 28.9684 88.8526 28.9536 88.8338 28.9348C88.815 28.9161 88.8001 28.8939 88.7899 28.8694C88.7798 28.8449 88.7745 28.8187 88.7745 28.7922V28.627C88.7745 28.6005 88.7798 28.5742 88.7899 28.5498C88.8001 28.5253 88.815 28.5031 88.8338 28.4844C88.8526 28.4656 88.8749 28.4508 88.8994 28.4406C88.924 28.4305 88.9503 28.4253 88.9769 28.4253Z" fill="#020202"/>
<path opacity="0.15" d="M88.9769 29.7576H96.8646C96.9183 29.7576 96.9698 29.7788 97.0077 29.8166C97.0457 29.8545 97.067 29.9057 97.067 29.9592V30.1245C97.067 30.151 97.0617 30.1772 97.0516 30.2017C97.0414 30.2262 97.0265 30.2484 97.0077 30.2671C96.9889 30.2858 96.9666 30.3007 96.9421 30.3108C96.9175 30.321 96.8912 30.3262 96.8646 30.3262H88.9769C88.9503 30.3262 88.924 30.321 88.8994 30.3108C88.8749 30.3007 88.8526 30.2858 88.8338 30.2671C88.815 30.2484 88.8001 30.2262 88.7899 30.2017C88.7798 30.1772 88.7745 30.151 88.7745 30.1245V29.9592C88.7745 29.9327 88.7798 29.9065 88.7899 29.8821C88.8001 29.8576 88.815 29.8354 88.8338 29.8166C88.8526 29.7979 88.8749 29.7831 88.8994 29.7729C88.924 29.7628 88.9503 29.7576 88.9769 29.7576Z" fill="#020202"/>
<path opacity="0.15" d="M88.9769 31.1014H93.2773C93.3307 31.1019 93.3817 31.1233 93.4193 31.1611C93.4569 31.1989 93.478 31.2499 93.478 31.3031V31.4684C93.478 31.5216 93.4569 31.5726 93.4193 31.6104C93.3817 31.6482 93.3307 31.6696 93.2773 31.6701H88.9769C88.9503 31.6701 88.924 31.6648 88.8994 31.6547C88.8749 31.6446 88.8526 31.6297 88.8338 31.611C88.815 31.5923 88.8001 31.57 88.7899 31.5456C88.7798 31.5211 88.7745 31.4949 88.7745 31.4684V31.3031C88.7745 31.2766 88.7798 31.2504 88.7899 31.2259C88.8001 31.2015 88.815 31.1792 88.8338 31.1605C88.8526 31.1418 88.8749 31.1269 88.8994 31.1168C88.924 31.1067 88.9503 31.1014 88.9769 31.1014Z" fill="#020202"/>
<path d="M43.3385 77.7854H49.0802C49.8526 77.7834 50.5934 77.4797 51.1438 76.9395C51.6941 76.3994 52.0101 75.6657 52.024 74.896V73.5869C52.024 72.8061 51.7128 72.0573 51.1589 71.5053C50.6049 70.9532 49.8536 70.643 49.0702 70.643H43.3385C42.5547 70.643 41.8029 70.9533 41.2487 71.5057C40.6944 72.0581 40.3831 72.8073 40.3831 73.5886V74.8977C40.3983 75.6688 40.7163 76.4033 41.2689 76.9432C41.8216 77.4832 42.5646 77.7855 43.3385 77.7854Z" fill="white"/>
<path d="M51.349 79.3754C51.349 79.3754 49.0005 79.4878 48.4383 77.8085H46.7168C46.7168 77.8085 47.8346 79.911 51.349 79.3754Z" fill="white"/>
<path opacity="0.15" d="M50.0238 72.3075H42.136C42.0823 72.3075 42.0309 72.2862 41.9929 72.2484C41.955 72.2106 41.9337 72.1593 41.9337 72.1058V71.9488C41.9337 71.8953 41.955 71.844 41.9929 71.8062C42.0309 71.7684 42.0823 71.7471 42.136 71.7471H50.0238C50.0774 71.7471 50.1289 71.7684 50.1669 71.8062C50.2048 71.844 50.2261 71.8953 50.2261 71.9488V72.1058C50.2261 72.1593 50.2048 72.2106 50.1669 72.2484C50.1289 72.2862 50.0774 72.3075 50.0238 72.3075Z" fill="#020202"/>
<path opacity="0.15" d="M50.0238 73.6646H42.136C42.0823 73.6646 42.0309 73.6433 41.9929 73.6055C41.955 73.5677 41.9337 73.5164 41.9337 73.4629V73.2993C41.9341 73.2461 41.9556 73.1952 41.9935 73.1577C42.0314 73.1203 42.0826 73.0992 42.136 73.0992H50.0238C50.0772 73.0992 50.1284 73.1203 50.1663 73.1577C50.2042 73.1952 50.2257 73.2461 50.2261 73.2993V73.4646C50.2261 73.518 50.2048 73.5693 50.1669 73.6071C50.1289 73.645 50.0774 73.6662 50.0238 73.6662V73.6646Z" fill="#020202"/>
<path opacity="0.15" d="M50.0238 74.9968H42.136C42.0826 74.9968 42.0314 74.9758 41.9935 74.9383C41.9556 74.9009 41.9341 74.85 41.9337 74.7968V74.6398C41.9337 74.5863 41.955 74.535 41.9929 74.4972C42.0309 74.4594 42.0823 74.4381 42.136 74.4381H50.0238C50.0774 74.4381 50.1289 74.4594 50.1669 74.4972C50.2048 74.535 50.2261 74.5863 50.2261 74.6398V74.7968C50.2257 74.85 50.2042 74.9009 50.1663 74.9383C50.1284 74.9758 50.0772 74.9968 50.0238 74.9968Z" fill="#020202"/>
<path opacity="0.15" d="M50.024 76.3407H45.7218C45.6682 76.3407 45.6167 76.3194 45.5788 76.2816C45.5408 76.2438 45.5195 76.1925 45.5195 76.139V75.9836C45.5191 75.9569 45.524 75.9303 45.5339 75.9055C45.5439 75.8806 45.5587 75.858 45.5776 75.8389C45.5964 75.8198 45.6189 75.8047 45.6436 75.7943C45.6684 75.784 45.695 75.7787 45.7218 75.7787H50.0256C50.0793 75.7787 50.1307 75.7999 50.1687 75.8378C50.2066 75.8756 50.228 75.9269 50.228 75.9803V76.1357C50.228 76.1622 50.2227 76.1884 50.2126 76.2129C50.2024 76.2373 50.1875 76.2596 50.1687 76.2783C50.1499 76.297 50.1276 76.3119 50.103 76.322C50.0785 76.3322 50.0522 76.3374 50.0256 76.3374L50.024 76.3407Z" fill="#020202"/>
<path d="M58.6746 83.0384C58.6746 83.0384 58.2981 84.6054 57.8454 84.3822C57.7179 84.3121 57.6064 84.2164 57.5179 84.1012C57.4294 83.986 57.3659 83.8537 57.3312 83.7128L58.6746 83.0384Z" fill="url(#paint17_linear)"/>
</g>
<defs>
<linearGradient id="paint0_linear" x1="72.4418" y1="76.8333" x2="72.4418" y2="102.203" gradientUnits="userSpaceOnUse">
<stop stop-opacity="0.4"/>
<stop offset="1" stop-color="white" stop-opacity="0"/>
</linearGradient>
<linearGradient id="paint1_linear" x1="37.3661" y1="2.48578" x2="121.359" y2="97.5565" gradientUnits="userSpaceOnUse">
<stop offset="0.02" stop-color="white" stop-opacity="0"/>
<stop offset="1" stop-color="white"/>
</linearGradient>
<linearGradient id="paint2_linear" x1="25674.3" y1="1043.99" x2="25725.6" y2="-10313.5" gradientUnits="userSpaceOnUse">
<stop offset="0.02" stop-color="white" stop-opacity="0"/>
<stop offset="1" stop-color="white"/>
</linearGradient>
<linearGradient id="paint3_linear" x1="7698.97" y1="4437.2" x2="8157.05" y2="-18429.2" gradientUnits="userSpaceOnUse">
<stop offset="0.02" stop-color="white" stop-opacity="0"/>
<stop offset="1" stop-color="white"/>
</linearGradient>
<linearGradient id="paint4_linear" x1="16975.2" y1="1359.72" x2="17021.1" y2="-6279.52" gradientUnits="userSpaceOnUse">
<stop offset="0.02" stop-color="white" stop-opacity="0"/>
<stop offset="1" stop-color="white"/>
</linearGradient>
<linearGradient id="paint5_linear" x1="16961" y1="2187.36" x2="17007" y2="-5451.88" gradientUnits="userSpaceOnUse">
<stop offset="0.02" stop-color="white" stop-opacity="0"/>
<stop offset="1" stop-color="white"/>
</linearGradient>
<linearGradient id="paint6_linear" x1="17178.9" y1="183.428" x2="17196.2" y2="-4513.37" gradientUnits="userSpaceOnUse">
<stop offset="0.02" stop-color="white" stop-opacity="0"/>
<stop offset="1" stop-color="white"/>
</linearGradient>
<linearGradient id="paint7_linear" x1="97.9227" y1="104.346" x2="64.2949" y2="13.7941" gradientUnits="userSpaceOnUse">
<stop offset="0.58"/>
<stop offset="0.78" stop-opacity="0.16"/>
</linearGradient>
<linearGradient id="paint8_linear" x1="5955.92" y1="-5176.58" x2="-11505.7" y2="7519.69" gradientUnits="userSpaceOnUse">
<stop offset="0.58"/>
<stop offset="0.78" stop-opacity="0.16"/>
</linearGradient>
<linearGradient id="paint9_linear" x1="9881.6" y1="160.113" x2="-7581.11" y2="12859.9" gradientUnits="userSpaceOnUse">
<stop offset="0.58"/>
<stop offset="0.78" stop-opacity="0.16"/>
</linearGradient>
<linearGradient id="paint10_linear" x1="83.5636" y1="34.571" x2="86.5008" y2="34.571" gradientUnits="userSpaceOnUse">
<stop stop-color="#ECC4D7"/>
<stop offset="0.42" stop-color="#EFD4D1"/>
<stop offset="1" stop-color="#F2EAC9"/>
</linearGradient>
<linearGradient id="paint11_linear" x1="683.504" y1="465.597" x2="695.095" y2="465.597" gradientUnits="userSpaceOnUse">
<stop stop-color="#ECC4D7"/>
<stop offset="0.42" stop-color="#EFD4D1"/>
<stop offset="1" stop-color="#F2EAC9"/>
</linearGradient>
<linearGradient id="paint12_linear" x1="81.6448" y1="39.181" x2="84.4138" y2="40.2417" gradientUnits="userSpaceOnUse">
<stop stop-opacity="0"/>
<stop offset="0.91" stop-opacity="0.8"/>
<stop offset="1"/>
</linearGradient>
<linearGradient id="paint13_linear" x1="78.8684" y1="43.0125" x2="87.4193" y2="42.5349" gradientUnits="userSpaceOnUse">
<stop offset="0.36" stop-color="#00272E"/>
<stop offset="1" stop-color="#69B9EB" stop-opacity="0"/>
</linearGradient>
<linearGradient id="paint14_linear" x1="941.289" y1="674.388" x2="1009.36" y2="674.388" gradientUnits="userSpaceOnUse">
<stop stop-color="#ECC4D7"/>
<stop offset="0.42" stop-color="#EFD4D1"/>
<stop offset="1" stop-color="#F2EAC9"/>
</linearGradient>
<linearGradient id="paint15_linear" x1="469.835" y1="202.342" x2="481.343" y2="202.342" gradientUnits="userSpaceOnUse">
<stop stop-color="#ECC4D7"/>
<stop offset="0.42" stop-color="#EFD4D1"/>
<stop offset="1" stop-color="#F2EAC9"/>
</linearGradient>
<linearGradient id="paint16_linear" x1="610.846" y1="544.739" x2="547.057" y2="546.992" gradientUnits="userSpaceOnUse">
<stop offset="0.36" stop-color="#00272E"/>
<stop offset="1" stop-color="#69B9EB" stop-opacity="0"/>
</linearGradient>
<linearGradient id="paint17_linear" x1="454.687" y1="695.186" x2="448.259" y2="711.995" gradientUnits="userSpaceOnUse">
<stop stop-opacity="0"/>
<stop offset="0.91" stop-opacity="0.8"/>
<stop offset="1"/>
</linearGradient>
<clipPath id="clip0">
<rect width="110.204" height="90" fill="white" transform="translate(20 9)"/>
</clipPath>
</defs>
</svg>
