<svg width="214" height="160" viewBox="0 0 214 160" fill="none" xmlns="http://www.w3.org/2000/svg">
<path d="M94.7679 47.9254C94.7679 47.9254 78.2879 35.7334 61.8132 37.392C45.3386 39.0507 28.6932 60.2934 28.6932 60.2934L34.0266 64.336C34.0266 64.336 61.6692 41.4027 76.6399 58.3574C91.6106 75.312 94.7679 47.9254 94.7679 47.9254Z" fill="#6937FF"/>
<path opacity="0.2" d="M94.7679 47.9254C94.7679 47.9254 78.2879 35.7334 61.8132 37.392C45.3386 39.0507 28.6932 60.2934 28.6932 60.2934L34.0266 64.336C34.0266 64.336 61.6692 41.4027 76.6399 58.3574C91.6106 75.312 94.7679 47.9254 94.7679 47.9254Z" fill="white"/>
<path d="M82.32 46.224H25.7333V82.784H82.32V46.224Z" fill="#FFD200"/>
<path opacity="0.45" d="M173.904 124.293C172.861 124.083 171.879 123.643 171.027 123.005C170.176 122.368 169.477 121.549 168.981 120.608V120.555L143.728 72.464L129.829 82.304L139.659 113.205C139.918 114.018 139.976 114.881 139.83 115.721C139.683 116.561 139.335 117.353 138.816 118.03C138.297 118.706 137.621 119.247 136.848 119.606C136.074 119.965 135.225 120.131 134.373 120.091C126.907 119.749 118.965 119.557 110.715 119.557C68.0907 119.557 33.536 124.523 33.536 130.651C33.536 136.779 68.0907 141.749 110.715 141.749C153.339 141.749 187.867 136.784 187.867 130.667C187.867 128.288 182.699 126.096 173.904 124.293Z" fill="#E6E6E6"/>
<path d="M93.5946 127.029C93.5946 127.029 94.384 129.696 96.7253 130.011C99.0666 130.325 99.5573 132.677 97.408 133.157C95.2586 133.637 89.9413 130.624 89.9413 130.624L90.2773 127.237L93.5946 127.029Z" fill="#6937FF"/>
<path d="M48.0107 126.576C48.0107 126.576 45.3014 127.163 44.8107 129.472C44.3201 131.781 41.9414 132.091 41.6107 129.909C41.2801 127.728 44.7094 122.667 44.7094 122.667L48.0587 123.269L48.0107 126.576Z" fill="#6937FF"/>
<path d="M48.3734 86.7573C48.3734 86.7573 45.8774 98.4053 54.864 103.397C63.8507 108.389 92.1974 99.4027 87.8187 127.696H94.144C94.144 127.696 102.32 104.229 81.1094 95.888L74.672 88.5867L48.3734 86.7573Z" fill="#24285B"/>
<path d="M135.64 78.3498L133.488 76.2937L120.032 90.3752L122.183 92.4312L135.64 78.3498Z" fill="#FFD200"/>
<path opacity="0.08" d="M135.64 78.3498L133.488 76.2937L120.032 90.3752L122.183 92.4312L135.64 78.3498Z" fill="black"/>
<path d="M134.591 77.3416L132.44 75.2855L118.983 89.367L121.135 91.4231L134.591 77.3416Z" fill="#FFD200"/>
<path d="M140.444 79.9327C143.904 76.3126 144.75 71.5071 142.336 69.1994C139.921 66.8917 135.159 67.9557 131.699 71.5758C128.24 75.196 127.393 80.0015 129.808 82.3092C132.222 84.6169 136.985 83.5529 140.444 79.9327Z" fill="#FFD200"/>
<path opacity="0.08" d="M140.444 79.9327C143.904 76.3126 144.75 71.5071 142.336 69.1994C139.921 66.8917 135.159 67.9557 131.699 71.5758C128.24 75.196 127.393 80.0015 129.808 82.3092C132.222 84.6169 136.985 83.5529 140.444 79.9327Z" fill="black"/>
<path d="M139.393 78.9329C142.853 75.3127 143.7 70.5072 141.285 68.1995C138.87 65.8918 134.108 66.9558 130.648 70.576C127.189 74.1961 126.342 79.0016 128.757 81.3093C131.172 83.617 135.934 82.553 139.393 78.9329Z" fill="#FFD200"/>
<path opacity="0.57" d="M137.909 77.5143C140.194 75.1229 140.754 71.9486 139.159 70.4244C137.564 68.9001 134.418 69.6032 132.133 71.9946C129.847 74.3861 129.288 77.5603 130.883 79.0845C132.478 80.6088 135.624 79.9057 137.909 77.5143Z" fill="white"/>
<path d="M117.067 49.2427C117.067 49.2427 114.661 52.7361 112.325 54.4534C112.099 54.6184 111.842 54.7372 111.57 54.8029C111.297 54.8687 111.014 54.8801 110.737 54.8365C110.461 54.7929 110.195 54.6952 109.956 54.5489C109.717 54.4027 109.509 54.2107 109.344 53.9841C108.496 52.7947 107.696 50.9387 108.757 48.9121L110.133 45.2481C110.49 44.5477 111.055 43.975 111.75 43.6083C112.445 43.2416 113.237 43.099 114.016 43.2001C116.933 43.3707 118.635 47.1894 117.067 49.2427Z" fill="#F4A28C"/>
<path d="M110.976 46L100.123 50.3733L101.456 58.096L109.28 51.712L110.976 46Z" fill="#F4A28C"/>
<path d="M116.144 48.7092C115.1 47.9142 114.152 47.0015 113.317 45.9892C113.242 46.6748 112.968 47.3235 112.529 47.8559C112.091 48.3883 111.506 48.7812 110.848 48.9866C110.213 49.1955 109.526 49.1773 108.903 48.935C108.28 48.6928 107.761 48.2415 107.435 47.6586L110.955 43.4986C111.436 42.883 112.075 42.4091 112.803 42.1274C113.532 41.8457 114.323 41.7666 115.093 41.8986C115.759 42.0131 116.416 42.1699 117.061 42.3679C118.661 42.9012 119.776 45.1519 121.536 45.2266C121.713 45.2352 121.885 45.2896 122.034 45.3845C122.184 45.4794 122.307 45.6115 122.39 45.7679C122.473 45.9243 122.514 46.0997 122.51 46.2768C122.505 46.454 122.454 46.6269 122.363 46.7786C121.499 48.2132 119.611 50.0372 117.301 49.3066C116.885 49.1725 116.494 48.9706 116.144 48.7092Z" fill="#24285B"/>
<path d="M111.28 49.1786C111.28 49.1786 112.293 47.8986 111.28 47.2106C110.267 46.5226 108.779 48.368 109.925 49.6L111.28 49.1786Z" fill="#F4A28C"/>
<path d="M115.44 51.3654L115.312 53.376C115.301 53.4886 115.263 53.5967 115.2 53.6906C115.137 53.7846 115.052 53.8614 114.952 53.9143C114.852 53.9672 114.74 53.9944 114.627 53.9935C114.514 53.9927 114.403 53.9638 114.304 53.9094L112.859 53.1094L115.44 51.3654Z" fill="#F4A28C"/>
<path opacity="0.31" d="M108.4 52.4214C108.4 52.4214 108.725 49.9947 109.6 49.072C109.6 49.072 105.648 50.4054 105.557 54.752L108.4 52.4214Z" fill="#CE8172"/>
<path opacity="0.08" d="M36.752 81.84C36.752 81.84 36.5813 56.6827 66.8 51.3654L49.0453 82.784H36.7786L36.752 81.84Z" fill="black"/>
<path d="M102.896 60.768L102 55.5573C101.65 53.4322 100.766 51.4309 99.4308 49.7406C98.0959 48.0504 96.354 46.7266 94.368 45.8933C92.6393 45.2022 90.8318 44.7275 88.9866 44.48C86.6186 44.1493 83.3013 44.48 79.5893 45.456C63.6 49.6533 51.8666 63.2 49.44 79.5306L48.3733 86.7573L74.672 88.5866C74.672 88.5866 73.3386 81.12 82.672 81.12C92.0053 81.12 103.824 81.216 102.896 60.768Z" fill="#6937FF"/>
<path opacity="0.08" d="M77.1253 52.688C77.1253 52.688 64.3626 54.9333 50.336 75.1466L48.3733 86.7573L68.3306 88.24L77.1253 52.688Z" fill="black"/>
<path d="M91.76 61.9841C94.2506 53.6747 84.592 46.9547 77.7066 52.2347C71.9466 56.6454 65.44 64.5867 65.184 77.9894C64.7413 102.176 87.9093 97.8507 119.264 88.5868L118.267 81.5414C118.267 81.5414 80.72 88.6401 85.8186 76.4374C87.952 71.3334 90.4373 66.4054 91.76 61.9841Z" fill="#6937FF"/>
<path opacity="0.2" d="M91.76 61.9841C94.2506 53.6747 84.592 46.9547 77.7066 52.2347C71.9466 56.6454 65.44 64.5867 65.184 77.9894C64.7413 102.176 87.9093 97.8507 119.264 88.5868L118.267 81.5414C118.267 81.5414 80.72 88.6401 85.8186 76.4374C87.952 71.3334 90.4373 66.4054 91.76 61.9841Z" fill="white"/>
<path d="M78.5812 95.9467C78.5812 95.9467 79.3546 122.693 48.0586 127.696L46.8479 122.027C46.8479 122.027 71.9146 115.813 55.7226 99.168L78.5812 95.9467Z" fill="#24285B"/>
<path opacity="0.08" d="M127.877 131.915C129.757 131.915 131.28 131.351 131.28 130.656C131.28 129.961 129.757 129.397 127.877 129.397C125.998 129.397 124.475 129.961 124.475 130.656C124.475 131.351 125.998 131.915 127.877 131.915Z" fill="black"/>
<path opacity="0.08" d="M140.891 128.656C142.77 128.656 144.293 128.092 144.293 127.397C144.293 126.702 142.77 126.139 140.891 126.139C139.011 126.139 137.488 126.702 137.488 127.397C137.488 128.092 139.011 128.656 140.891 128.656Z" fill="black"/>
<path opacity="0.08" d="M153.995 131.173C155.874 131.173 157.397 130.61 157.397 129.915C157.397 129.22 155.874 128.656 153.995 128.656C152.115 128.656 150.592 129.22 150.592 129.915C150.592 130.61 152.115 131.173 153.995 131.173Z" fill="black"/>
<path opacity="0.08" d="M174.059 132.437C175.938 132.437 177.461 131.874 177.461 131.179C177.461 130.483 175.938 129.92 174.059 129.92C172.179 129.92 170.656 130.483 170.656 131.179C170.656 131.874 172.179 132.437 174.059 132.437Z" fill="black"/>
<path opacity="0.08" d="M114.976 128.373C116.896 128.373 118.453 127.795 118.453 127.083C118.453 126.37 116.896 125.792 114.976 125.792C113.055 125.792 111.499 126.37 111.499 127.083C111.499 127.795 113.055 128.373 114.976 128.373Z" fill="black"/>
<path d="M118.459 82.896C118.459 82.896 127.088 81.984 127.845 85.3547C128.603 88.7254 126.949 90.512 119.184 88.0214L118.459 82.896Z" fill="#F4A28C"/>
<path d="M32.4907 82.784C32.4907 82.784 33.7334 87.8187 38.7094 86.7574C43.6854 85.696 40.1334 79.52 32.4907 82.784Z" fill="#F4A28C"/>
</svg>
