<svg width="214" height="160" viewBox="0 0 214 160" fill="none" xmlns="http://www.w3.org/2000/svg">
<path d="M165.408 25.1164L46.6243 25.4066L46.8352 111.721L165.619 111.431L165.408 25.1164Z" fill="#F2F2F2"/>
<path d="M165.448 25.4081H46.6213V42.2561H165.448V25.4081Z" fill="#E6E6E6"/>
<path d="M35.4639 129.152L62.4719 107.408L72.8185 115.653L55.2505 142.533L35.4639 129.152Z" fill="#F4A28C"/>
<path d="M32.9093 127.397L56.4186 143.525L71.8053 121.013L55.5333 109.515L32.9093 127.397Z" fill="#6937FF"/>
<path opacity="0.06" d="M66.1573 117.019L46.6213 136.896L56.4187 143.525L71.8053 121.013L66.1573 117.019Z" fill="black"/>
<path d="M143.283 36.1813C144.473 36.1813 145.437 35.2166 145.437 34.0266C145.437 32.8366 144.473 31.8719 143.283 31.8719C142.093 31.8719 141.128 32.8366 141.128 34.0266C141.128 35.2166 142.093 36.1813 143.283 36.1813Z" fill="#24285B"/>
<path d="M149.688 36.1653C150.878 36.1653 151.843 35.2006 151.843 34.0106C151.843 32.8206 150.878 31.856 149.688 31.856C148.498 31.856 147.533 32.8206 147.533 34.0106C147.533 35.2006 148.498 36.1653 149.688 36.1653Z" fill="#6937FF"/>
<path d="M155.725 36.1493C156.915 36.1493 157.88 35.1846 157.88 33.9946C157.88 32.8046 156.915 31.84 155.725 31.84C154.535 31.84 153.571 32.8046 153.571 33.9946C153.571 35.1846 154.535 36.1493 155.725 36.1493Z" fill="#FFD200"/>
<path d="M136.899 31.856H72.04V36.16H136.899V31.856Z" fill="white"/>
<path d="M136.893 31.856H130.013V36.16H136.893V31.856Z" fill="#C9C9C9"/>
<path d="M142.557 66.3199H72.9146V77.2533H142.557V66.3199Z" fill="white"/>
<path d="M142.557 66.3199H127.085V77.2533H142.557V66.3199Z" fill="#6937FF"/>
<path d="M122.712 51.4027H90.1626V57.4667H122.712V51.4027Z" fill="#A5A5A5"/>
<path d="M85.4377 86.3244L80.7804 84.6339L74.859 100.947L79.5163 102.638L85.4377 86.3244Z" fill="#24285B"/>
<path opacity="0.06" d="M101.72 60.9493C101.72 60.9493 116.904 69.5253 107.736 86.5973C98.568 103.669 94.472 90.1173 90.1627 111.611H76.4293L82.8933 87.4667L90.1627 88.1653L98.2213 85.3013L102.76 78.064V68.464L101.72 60.9493Z" fill="black"/>
<path opacity="0.18" d="M85.4377 86.3244L80.7804 84.6339L74.859 100.947L79.5163 102.638L85.4377 86.3244Z" fill="white"/>
<path d="M81.7628 94.1799L78.7649 93.0917C77.4774 92.6243 76.0549 93.2892 75.5875 94.5767L70.6524 108.173C70.1851 109.46 70.85 110.883 72.1374 111.35L75.1354 112.438C76.4228 112.906 77.8454 112.241 78.3127 110.953L83.2478 97.3572C83.7152 96.0697 83.0503 94.6472 81.7628 94.1799Z" fill="#24285B"/>
<path d="M120.243 96.1387H93.8159V100.043H120.243V96.1387Z" fill="#C9C9C9"/>
<path opacity="0.39" d="M115.491 89.728H98.6267V93.632H115.491V89.728Z" fill="#C9C9C9"/>
<path d="M94.0507 55.52C90.749 54.3218 87.1661 54.1296 83.7551 54.9675C80.3441 55.8055 77.2582 57.6361 74.8876 60.2278C72.5169 62.8195 70.968 66.056 70.4366 69.528C69.9052 72.9999 70.4153 76.5515 71.9023 79.7336C73.3893 82.9157 75.7865 85.5855 78.7908 87.4052C81.795 89.225 85.2714 90.1131 88.7803 89.9572C92.2893 89.8013 95.6732 88.6085 98.5043 86.5295C101.335 84.4506 103.486 81.5788 104.685 78.2774C105.482 76.0848 105.838 73.7569 105.735 71.4266C105.631 69.0962 105.07 66.8091 104.082 64.6958C103.095 62.5825 101.7 60.6845 99.9791 59.1101C98.2579 57.5357 96.2434 56.3158 94.0507 55.52ZM83.464 84.688C80.9967 83.7932 78.8502 82.1867 77.2959 80.0718C75.7417 77.957 74.8495 75.4287 74.7322 72.8067C74.615 70.1848 75.2779 67.5869 76.6371 65.3418C77.9964 63.0966 79.9909 61.3049 82.3684 60.1933C84.746 59.0818 87.3998 58.7002 89.9942 59.097C92.5886 59.4937 95.0071 60.651 96.9438 62.4223C98.8805 64.1936 100.248 66.4995 100.875 69.0483C101.501 71.5971 101.357 74.2743 100.461 76.7414C99.8675 78.3795 98.9567 79.8846 97.7809 81.1706C96.6052 82.4566 95.1876 83.4984 93.6091 84.2363C92.0307 84.9743 90.3223 85.394 88.5815 85.4715C86.8408 85.549 85.1018 85.2828 83.464 84.688Z" fill="#FFD200"/>
<path d="M62.4719 107.408C62.4719 107.408 67.6613 101.771 71.8106 97.7439C75.9599 93.7172 77.1866 100.992 82.3866 99.8772C87.5866 98.7626 91.6186 118.139 72.8186 115.643L62.4719 107.408Z" fill="#F4A28C"/>
<path d="M91.0391 75.7603H87.3125V78.2834H91.686V79.8427H85.3716V70.4227H91.6731V71.9949H87.3125V74.2399H91.0391V75.7603ZM92.87 91.4368C92.87 92.3598 92.7147 93.1663 92.4042 93.8564C92.0936 94.5422 91.6537 95.0663 91.0844 95.4286C90.515 95.7909 89.8508 95.972 89.0917 95.972C88.3498 95.972 87.6921 95.7909 87.1184 95.4286C86.5448 95.062 86.0983 94.5422 85.7792 93.8694C85.4643 93.1922 85.3026 92.4094 85.2939 91.5209V90.8416C85.2939 89.9358 85.4514 89.1357 85.7662 88.4413C86.0811 87.7469 86.5253 87.2163 87.099 86.8497C87.677 86.4788 88.3369 86.2933 89.0787 86.2933C89.8335 86.2933 90.4978 86.4766 91.0714 86.8433C91.6494 87.2056 92.0936 87.7339 92.4042 88.4283C92.7147 89.1184 92.87 89.9229 92.87 90.8416V91.4368ZM91.6343 90.8286C91.6343 89.7115 91.41 88.8553 90.9614 88.2601C90.5129 87.6606 89.8853 87.3608 89.0787 87.3608C88.2937 87.3608 87.6748 87.6606 87.2219 88.2601C86.7734 88.8553 86.5426 89.6835 86.5297 90.7445V91.4368C86.5297 92.5194 86.7561 93.3712 87.209 93.9923C87.6662 94.6091 88.2937 94.9175 89.0917 94.9175C89.8939 94.9175 90.515 94.6263 90.955 94.0441C91.3949 93.4575 91.6213 92.6186 91.6343 91.5273V90.8286Z" fill="#24285B"/>
<path d="M135.747 72.704C136.745 72.704 137.555 71.8945 137.555 70.896C137.555 69.8975 136.745 69.088 135.747 69.088C134.748 69.088 133.939 69.8975 133.939 70.896C133.939 71.8945 134.748 72.704 135.747 72.704Z" stroke="white" stroke-miterlimit="10"/>
<path d="M134.893 72.4053L133.683 74.5386" stroke="white" stroke-miterlimit="10"/>
<path d="M66.7706 31.8773H54.9253V36.1813H66.7706V31.8773Z" fill="#24285B"/>
</svg>
