<svg width="115" height="89" viewBox="0 0 115 89" fill="none" xmlns="http://www.w3.org/2000/svg">
<g clip-path="url(#clip0)">
<path d="M114.656 5.16847V73.2206C114.657 74.5842 114.107 75.8923 113.128 76.8573C112.149 77.8223 110.82 78.3652 109.434 78.3668H5.22896C3.84215 78.3668 2.51215 77.8248 1.53153 76.8601C0.550906 75.8954 0 74.587 0 73.2226H0V5.16847C0.0032662 3.80588 0.555483 2.50013 1.53563 1.53739C2.51578 0.574654 3.84391 0.0334466 5.22896 0.0323792H109.434C110.818 0.0350514 112.144 0.576967 113.123 1.53953C114.102 2.5021 114.653 3.80693 114.656 5.16847Z" fill="#6937FF"/>
<path d="M114.656 5.16847V73.2206C114.657 74.5842 114.107 75.8923 113.128 76.8573C112.149 77.8223 110.82 78.3652 109.434 78.3668H5.22896C3.84215 78.3668 2.51215 77.8248 1.53153 76.8601C0.550906 75.8954 0 74.587 0 73.2226H0V5.16847C0.0032662 3.80588 0.555483 2.50013 1.53563 1.53739C2.51578 0.574654 3.84391 0.0334466 5.22896 0.0323792H109.434C110.818 0.0350514 112.144 0.576967 113.123 1.53953C114.102 2.5021 114.653 3.80693 114.656 5.16847Z" fill="url(#paint0_linear)"/>
<path opacity="0.19" d="M32.4126 13.7933L30.7032 14.5846V48.5034L35.1752 64.3852L35.7923 78.1462L47.106 78.3486V54.625L51.7816 47.8235L83.9534 47.7V45.9374L32.4126 13.7933ZM47.5606 48.554C47.108 49.5658 46.1453 50.5129 45.4727 51.3993C44.6499 52.4894 43.814 53.5761 42.9652 54.6594C42.8907 54.7674 42.7957 54.8602 42.6854 54.9326C42.2884 55.1532 41.8276 54.7869 41.5397 54.4409C39.8864 52.4752 38.6101 50.2302 37.7732 47.8154C37.7164 47.697 37.7069 47.5619 37.7465 47.4369C37.8308 47.2548 38.0839 47.2346 38.2875 47.2346C40.8382 47.3034 43.3889 47.3877 45.9396 47.4875C46.8118 47.5199 48.0974 47.3357 47.5585 48.5479L47.5606 48.554Z" fill="url(#paint1_linear)"/>
<path d="M85.2267 12.7937H32.4105V46.6174H85.2267V12.7937Z" fill="white"/>
<path d="M83.3445 14.5786H34.3873V44.8325H83.3445V14.5786Z" fill="#6937FF"/>
<path d="M83.3445 31.0068V44.8325H34.3873V35.6612C37.1767 32.5974 41.2989 30.5676 44.9707 28.0603C45.6388 27.5639 46.3662 27.15 47.1368 26.8279C50.2881 25.6582 53.6308 27.696 56.4962 29.4384C59.9658 31.5485 63.6224 33.3454 67.4211 34.8072C66.1441 32.99 64.293 31.6383 62.1551 30.9622L67.1496 26.8906C67.7667 26.3867 68.4043 25.8788 69.1593 25.6056C70.6753 25.0733 72.3415 25.6278 73.837 26.2127C75.9296 27.0343 77.9908 27.9267 80.0204 28.89C81.2134 29.4647 82.423 30.0779 83.3445 31.0068Z" fill="url(#paint2_linear)"/>
<path opacity="0.19" d="M36.2777 38.1484C36.6233 38.5389 36.9545 39.0246 37.4729 39.1076C37.6363 39.11 37.7977 39.1437 37.9481 39.2067C38.1538 39.3322 38.1784 39.6115 38.1846 39.8442C38.2134 40.8952 38.2415 41.9448 38.2689 42.993C38.2854 43.5819 38.269 44.2315 37.8822 44.6727C37.7053 44.8751 37.4708 45.0046 37.2836 45.2029C37.1834 45.292 37.1164 45.4116 37.0933 45.5425C37.0702 45.6734 37.0923 45.8082 37.1561 45.9253C38.1978 45.9282 39.2298 46.1231 40.1984 46.5001L34.5992 46.6134C34.4578 46.6291 34.3148 46.6037 34.1878 46.5405C33.9965 46.4171 33.9677 46.1581 33.9615 45.9334C33.9389 45.0329 33.9615 44.1324 34.0109 43.2339C34.0699 42.6373 34.0795 42.037 34.0397 41.4389C33.9636 40.6881 33.7024 39.9373 33.8505 39.1966C34.085 38.0006 35.2924 37.0333 36.2777 38.1484Z" fill="url(#paint3_linear)"/>
<path d="M76.256 23.7053C78.0783 23.7053 79.5555 22.252 79.5555 20.4593C79.5555 18.6666 78.0783 17.2133 76.256 17.2133C74.4338 17.2133 72.9565 18.6666 72.9565 20.4593C72.9565 22.252 74.4338 23.7053 76.256 23.7053Z" fill="white"/>
<path d="M44.6211 60.174H35.7944V61.5724H44.6211V60.174Z" fill="#6937FF"/>
<path d="M44.6211 69.153H35.7944V70.5514H44.6211V69.153Z" fill="#6937FF"/>
<path d="M44.6211 78.1301H35.7944V79.5284H44.6211V78.1301Z" fill="#6937FF"/>
<path d="M44.6211 87.1091H35.7944V88.5075H44.6211V87.1091Z" fill="#6937FF"/>
<path d="M44.6211 60.174H35.7944V61.5724H44.6211V60.174Z" fill="url(#paint4_linear)"/>
<path d="M44.6211 69.153H35.7944V70.5514H44.6211V69.153Z" fill="url(#paint5_linear)"/>
<path d="M44.6211 78.1301H35.7944V79.5284H44.6211V78.1301Z" fill="url(#paint6_linear)"/>
<path d="M44.6211 87.1091H35.7944V88.5075H44.6211V87.1091Z" fill="url(#paint7_linear)"/>
<path d="M115 5.14823V6.16007H0.341309V5.14823C0.341308 3.78319 0.892366 2.47402 1.87331 1.5086C2.85426 0.543175 4.18478 0.000536574 5.57232 0H109.769C111.156 0.000536331 112.486 0.542897 113.467 1.50788C114.448 2.47287 114.999 3.78151 115 5.14621V5.14823Z" fill="#6937FF"/>
<path d="M115 5.14823V6.16007H0.341309V5.14823C0.341308 3.78319 0.892366 2.47402 1.87331 1.5086C2.85426 0.543175 4.18478 0.000536574 5.57232 0H109.769C111.156 0.000536331 112.486 0.542897 113.467 1.50788C114.448 2.47287 114.999 3.78151 115 5.14621V5.14823Z" fill="#6937FF"/>
<path d="M115 5.14823V6.16007H0.341309V5.14823C0.341308 3.78319 0.892366 2.47402 1.87331 1.5086C2.85426 0.543175 4.18478 0.000536574 5.57232 0H109.769C111.156 0.000536331 112.486 0.542897 113.467 1.50788C114.448 2.47287 114.999 3.78151 115 5.14621V5.14823Z" fill="url(#paint8_linear)"/>
<path d="M6.28844 3.0841C6.28844 3.2442 6.24019 3.4007 6.14977 3.53382C6.05936 3.66693 5.93086 3.77068 5.78051 3.83195C5.63016 3.89322 5.46472 3.90925 5.30511 3.87801C5.1455 3.84678 4.99889 3.76969 4.88382 3.65648C4.76875 3.54327 4.69038 3.39904 4.65863 3.24202C4.62688 3.085 4.64318 2.92224 4.70546 2.77433C4.76773 2.62642 4.87319 2.49999 5.0085 2.41105C5.14381 2.3221 5.3029 2.27463 5.46563 2.27463C5.68386 2.27463 5.89314 2.35991 6.04745 2.51172C6.20175 2.66352 6.28844 2.86941 6.28844 3.0841Z" fill="url(#paint9_linear)"/>
<path d="M10.1245 3.0841C10.1245 3.2442 10.0762 3.4007 9.98583 3.53382C9.89542 3.66693 9.76691 3.77068 9.61657 3.83195C9.46622 3.89322 9.30078 3.90925 9.14117 3.87801C8.98156 3.84678 8.83495 3.76969 8.71988 3.65648C8.6048 3.54327 8.52644 3.39904 8.49469 3.24202C8.46294 3.085 8.47924 2.92224 8.54151 2.77433C8.60379 2.62642 8.70925 2.49999 8.84456 2.41105C8.97987 2.3221 9.13896 2.27463 9.30169 2.27463C9.51991 2.27463 9.7292 2.35991 9.88351 2.51172C10.0378 2.66352 10.1245 2.86941 10.1245 3.0841Z" fill="url(#paint10_linear)"/>
<path d="M13.1342 3.89355C13.5898 3.89355 13.9591 3.53024 13.9591 3.08206C13.9591 2.63389 13.5898 2.27057 13.1342 2.27057C12.6786 2.27057 12.3093 2.63389 12.3093 3.08206C12.3093 3.53024 12.6786 3.89355 13.1342 3.89355Z" fill="url(#paint11_linear)"/>
<path d="M25.11 6.16614V78.3486H5.56829C4.1813 78.3486 2.85108 77.8067 1.87014 76.842C0.889189 75.8774 0.337826 74.5689 0.33728 73.2044V6.16614H25.11Z" fill="#6937FF"/>
<path d="M21.8045 17.7557H3.85904C3.71355 17.7552 3.57416 17.6981 3.47128 17.5968C3.3684 17.4956 3.31036 17.3585 3.30982 17.2154C3.30955 17.1447 3.32343 17.0746 3.35068 17.0092C3.37793 16.9438 3.41801 16.8843 3.46862 16.8341C3.51924 16.784 3.57941 16.7441 3.64569 16.7168C3.71198 16.6895 3.78307 16.6753 3.85493 16.675H21.8045C21.95 16.6756 22.0894 16.7327 22.1923 16.8339C22.2952 16.9351 22.3532 17.0722 22.3538 17.2154C22.3532 17.3585 22.2952 17.4956 22.1923 17.5968C22.0894 17.6981 21.95 17.7552 21.8045 17.7557Z" fill="url(#paint12_linear)"/>
<path d="M21.8045 27.7365H3.85904C3.71354 27.736 3.57416 27.6789 3.47128 27.5777C3.36839 27.4765 3.31036 27.3393 3.30981 27.1962C3.30981 27.0531 3.36733 26.9157 3.46982 26.8141C3.57232 26.7125 3.71149 26.6549 3.85698 26.6539H21.8045C21.9504 26.6544 22.0901 26.7118 22.193 26.8134C22.2959 26.9151 22.3537 27.0527 22.3537 27.1962C22.3527 27.3392 22.2945 27.476 22.1917 27.5771C22.0889 27.6782 21.9499 27.7355 21.8045 27.7365Z" fill="url(#paint13_linear)"/>
<path d="M21.8043 37.7193H3.85886C3.71336 37.7188 3.57398 37.6617 3.47109 37.5605C3.36821 37.4593 3.31017 37.3221 3.30963 37.179C3.30854 37.1073 3.32193 37.036 3.34902 36.9694C3.37611 36.9028 3.41636 36.8422 3.46744 36.791C3.51852 36.7398 3.57942 36.699 3.64661 36.6712C3.71379 36.6433 3.78594 36.6288 3.85886 36.6285H21.8043C21.9497 36.6296 22.0887 36.6869 22.1915 36.788C22.2943 36.8891 22.3525 37.0259 22.3536 37.1689C22.3547 37.2406 22.3413 37.3118 22.3142 37.3784C22.2871 37.445 22.2468 37.5057 22.1958 37.5569C22.1447 37.6081 22.0838 37.6488 22.0166 37.6767C21.9494 37.7046 21.8773 37.7191 21.8043 37.7193Z" fill="url(#paint14_linear)"/>
<path d="M21.8045 47.7001H3.85904C3.78719 47.7004 3.71598 47.6867 3.64949 47.6599C3.58301 47.6331 3.52253 47.5937 3.47153 47.5439C3.42053 47.4941 3.38 47.4349 3.35226 47.3697C3.32451 47.3044 3.31009 47.2345 3.30982 47.1638C3.30955 47.0931 3.32343 47.0231 3.35068 46.9577C3.37793 46.8923 3.41801 46.8328 3.46862 46.7826C3.51924 46.7324 3.57941 46.6925 3.64569 46.6652C3.71198 46.6379 3.78307 46.6238 3.85493 46.6235H21.8045C21.949 46.6224 22.0881 46.6771 22.192 46.7759C22.2958 46.8747 22.3562 47.0096 22.3599 47.1517C22.3607 47.2237 22.347 47.2953 22.3194 47.362C22.2918 47.4288 22.2509 47.4895 22.1992 47.5405C22.1475 47.5916 22.086 47.632 22.0182 47.6594C21.9504 47.6868 21.8778 47.7006 21.8045 47.7001Z" fill="url(#paint15_linear)"/>
<path d="M28.1216 54.5704C28.1216 54.5704 27.2186 54.8072 26.6981 54.3013C26.1777 53.7953 26.4472 52.1703 26.4472 52.1703L35.7922 41.0199L35.9774 44.1546L28.1216 54.5704Z" fill="url(#paint16_linear)"/>
<path d="M85.8891 54.9124H67.3182V61.6715H85.8891V54.9124Z" fill="#6937FF"/>
<path d="M115 6.16614V73.2004C115 73.8759 114.866 74.545 114.603 75.1693C114.341 75.7936 113.956 76.361 113.471 76.8391C112.986 77.3171 112.41 77.6965 111.776 77.9555C111.142 78.2145 110.462 78.3481 109.775 78.3486H92.4178V6.16614H115Z" fill="#6937FF"/>
<path d="M115 25.2048H92.4178V55.2038H115V25.2048Z" fill="url(#paint17_linear)"/>
<path d="M40.8464 54.9144C40.8464 54.9144 42.2308 56.8005 43.1194 56.845C44.0081 56.8895 49.3687 47.5078 49.3687 47.5078L50.5432 46.6194C50.5432 46.6194 47.9946 46.2146 47.6511 46.674C47.3075 47.1334 43.3498 53.5545 43.3498 53.5545L42.7862 53.2732L40.8464 54.9144Z" fill="url(#paint18_linear)"/>
<path d="M30.5715 64.2355C30.5715 64.2355 30.1601 66.8157 30.5715 67.8781C30.9829 68.9406 34.6033 75.2807 34.6033 75.2807L33.6694 84.9944H36.6151L38.0365 75.2807L36.4094 67.8781L38.3244 63.7296L30.5715 64.2355Z" fill="#25233A"/>
<path d="M33.3093 67.3055L39.6388 78.1321L40.4143 86.3361L43.2592 85.6562L42.7861 75.6167L38.7646 63.5293L32.5935 64.104C32.5935 64.104 32.7457 66.4191 33.3093 67.3055Z" fill="#3F3D56"/>
<path d="M40.8174 86.241C40.8174 86.241 41.1506 88.3578 41.3028 88.5116C41.4551 88.6654 42.6481 88.3638 42.6481 88.3638L44.6208 87.1112C44.6208 87.1112 44.6208 86.5041 43.1356 86.8602C43.1356 86.8602 42.4733 86.8987 42.4239 85.8484L40.8174 86.241Z" fill="url(#paint19_linear)"/>
<path d="M36.6151 84.9802L36.4094 85.9496L38.0941 87.1091C38.0941 87.1091 38.0262 87.4147 37.4297 87.5503C36.8332 87.6859 34.1755 87.4673 34.1385 87.2042C34.1014 86.9412 34.5663 86.1074 34.6033 86.0163C34.6404 85.9253 34.8255 84.9802 34.8255 84.9802H36.6151Z" fill="url(#paint20_linear)"/>
<path d="M32.7869 46.2936C32.7869 46.2936 30.0778 46.9412 29.7117 47.8073C29.3455 48.6734 26.3731 51.3791 26.4472 52.4456C26.5212 53.512 28.5597 54.8861 28.5597 54.8861L30.1189 53.3906L30.2938 63.4968C30.2981 63.7411 30.3797 63.978 30.5271 64.1745C30.6746 64.3711 30.8806 64.5176 31.1166 64.5937C32.2891 64.968 33.5521 64.8932 35.1689 64.367C37.4708 63.6183 38.814 63.6931 38.814 63.6931L38.417 52.9677L40.2889 55.3677L42.7861 53.2611C42.7861 53.2611 39.1184 47.3924 38.4931 47.0282C37.8678 46.6639 35.0682 46.2531 35.0682 46.2531C35.0682 46.2531 33.8319 46.9918 32.7869 46.2936Z" fill="#6937FF"/>
<path d="M32.7869 46.2936C32.7869 46.2936 30.0778 46.9412 29.7117 47.8073C29.3455 48.6734 26.3731 51.3791 26.4472 52.4456C26.5212 53.512 28.5597 54.8861 28.5597 54.8861L30.1189 53.3906L30.2938 63.4968C30.2981 63.7411 30.3797 63.978 30.5271 64.1745C30.6746 64.3711 30.8806 64.5176 31.1166 64.5937C32.2891 64.968 33.5521 64.8932 35.1689 64.367C37.4708 63.6183 38.814 63.6931 38.814 63.6931L38.417 52.9677L40.2889 55.3677L42.7861 53.2611C42.7861 53.2611 39.1184 47.3924 38.4931 47.0282C37.8678 46.6639 35.0682 46.2531 35.0682 46.2531C35.0682 46.2531 33.8319 46.9918 32.7869 46.2936Z" fill="url(#paint21_linear)"/>
<path d="M36.3065 40.342C36.4463 41.1008 36.5329 41.8683 36.5657 42.6388C36.5967 42.9276 36.58 43.2194 36.5163 43.5029C36.4828 43.6445 36.4171 43.7767 36.3241 43.8895C36.2311 44.0024 36.1132 44.093 35.9794 44.1546C35.806 44.1934 35.6372 44.2497 35.4755 44.3225C35.356 44.4074 35.2713 44.5316 35.2368 44.6726C35.1895 44.9404 35.1895 45.2143 35.2368 45.4821C35.2795 45.7517 35.2186 46.0272 35.0661 46.2551C34.9289 46.3981 34.7524 46.4987 34.558 46.5445C34.0976 46.6865 33.6072 46.706 33.1366 46.6012C33.0622 46.5892 32.9917 46.56 32.9309 46.5162C32.867 46.4526 32.821 46.3738 32.7972 46.2875C32.6264 45.7704 32.489 45.2432 32.3858 44.709C32.1938 43.9625 32.076 43.1994 32.034 42.4304C31.9934 41.6566 32.1959 40.8893 32.6141 40.2327C33.0543 39.5952 33.8113 39.1419 34.593 39.1925C35.0272 39.2449 35.449 39.3709 35.8395 39.5649C36.1625 39.7187 36.2366 39.9939 36.3065 40.342Z" fill="url(#paint22_linear)"/>
<path d="M36.3064 39.2916C36.3269 38.9091 36.0184 38.5894 35.7078 38.3607C35.6488 38.3229 35.5967 38.2757 35.5535 38.2211C35.5103 38.1361 35.4772 38.0464 35.4548 37.954C35.3293 37.6059 34.9097 37.4501 34.5332 37.4501C34.1568 37.4501 33.7886 37.5614 33.4142 37.5513C33.118 37.5513 32.7971 37.4622 32.5338 37.5857C32.3778 37.6685 32.2444 37.7872 32.145 37.9317C31.9579 38.1441 31.8265 38.3984 31.7624 38.6724C31.7501 38.7958 31.7336 38.9193 31.7089 39.0427C31.6657 39.1795 31.5958 39.3066 31.5032 39.4171C31.1124 39.9453 30.5426 40.3884 30.4027 41.0259C30.3143 41.4306 30.2258 41.8961 30.4233 42.2603C32.3384 45.7674 32.8238 45.9697 33.0295 45.9353C33.2352 45.9009 34.309 45.8584 34.4221 44.5188C34.4485 44.4288 34.4576 44.3348 34.4489 44.2415C34.4205 44.165 34.3747 44.0958 34.3152 44.0392C34.1792 43.9074 34.0666 43.7542 33.9819 43.5859C33.9395 43.5019 33.9175 43.4094 33.9175 43.3157C33.9175 43.2219 33.9395 43.1295 33.9819 43.0455C34.0177 42.993 34.0637 42.948 34.1173 42.9131C34.1708 42.8781 34.2309 42.8539 34.294 42.8419C34.3571 42.8299 34.4219 42.8302 34.4849 42.8429C34.5478 42.8556 34.6076 42.8805 34.6608 42.916C34.6952 42.9379 34.7264 42.9645 34.7533 42.9949C34.8809 42.6368 34.5024 42.232 34.6587 41.8839C34.7513 41.6816 35.0125 41.5703 35.103 41.3578C35.2223 41.0745 35.0084 40.6819 35.2367 40.4734C35.3134 40.4212 35.3946 40.3759 35.4795 40.3379C35.609 40.2589 35.6358 40.1537 35.6996 40.0303C35.7633 39.9068 35.7798 39.919 35.9176 39.8481C36.0251 39.7954 36.1172 39.7167 36.1852 39.6194C36.2532 39.522 36.2949 39.4092 36.3064 39.2916Z" fill="#3F3D56"/>
<path d="M41.4633 87.3478C41.8891 87.2467 42.1462 86.8278 42.5041 86.5768C42.5875 86.5147 42.6837 86.4712 42.7859 86.4493C42.9027 86.4405 43.0202 86.446 43.1356 86.4655C43.4339 86.4918 43.7322 86.425 44.0325 86.425C44.1813 86.425 44.3296 86.4413 44.4748 86.4736C44.6287 86.5012 44.7714 86.5714 44.8862 86.676C44.943 86.7287 44.9823 86.7972 44.9988 86.8723C45.0153 86.9475 45.0083 87.0258 44.9787 87.0969C44.9288 87.1805 44.858 87.2501 44.773 87.2993C44.0874 87.7647 43.3948 88.2288 42.6954 88.6916C42.4893 88.8437 42.2603 88.9632 42.0166 89.0457C41.7859 89.1099 41.541 89.105 41.3131 89.0315C41.2212 89.0072 41.1384 88.9573 41.0745 88.8879C41.027 88.8232 40.9941 88.7494 40.9778 88.6713C40.8976 88.388 40.7433 87.9792 40.8009 87.6817C40.8585 87.3843 41.2205 87.4065 41.4633 87.3478Z" fill="#3F3D56"/>
<path d="M34.2228 86.3705L33.978 87.1799C33.9516 87.2368 33.9379 87.2986 33.9379 87.3611C33.9379 87.4236 33.9516 87.4853 33.978 87.5422C34.0466 87.6182 34.1409 87.6671 34.2434 87.6798C34.4845 87.7459 34.7308 87.7919 34.9798 87.8174C35.3603 87.8437 35.7388 87.7729 36.1173 87.783C36.5472 87.7951 36.9833 87.9125 37.3968 87.8032C37.6479 87.7202 37.8835 87.5972 38.0941 87.439L38.4911 87.1698C38.5241 87.153 38.5497 87.125 38.5631 87.0909C38.5775 87.0403 38.5364 86.9917 38.4952 86.9573C38.1949 86.7024 37.7794 86.6356 37.4091 86.4919C37.0707 86.3599 36.7644 86.1593 36.5102 85.903C36.4616 85.8427 36.3956 85.7983 36.321 85.7755C36.1975 85.7512 36.0906 85.8564 35.9836 85.9232C35.7663 86.0372 35.5178 86.0804 35.2739 86.0467C35.0909 86.0204 35.0847 85.9273 34.9715 85.8099C34.6177 85.4517 34.3051 86.0973 34.2228 86.3705Z" fill="#3F3D56"/>
</g>
<defs>
<linearGradient id="paint0_linear" x1="55.301" y1="89.7662" x2="58.4507" y2="8.5824" gradientUnits="userSpaceOnUse">
<stop stop-color="white" stop-opacity="0"/>
<stop offset="1" stop-color="white"/>
</linearGradient>
<linearGradient id="paint1_linear" x1="30.7032" y1="46.075" x2="83.9493" y2="46.075" gradientUnits="userSpaceOnUse">
<stop stop-color="#183866"/>
<stop offset="1" stop-color="#1A7FC1"/>
</linearGradient>
<linearGradient id="paint2_linear" x1="58.8659" y1="25.3425" x2="58.8659" y2="107.761" gradientUnits="userSpaceOnUse">
<stop stop-opacity="0"/>
<stop offset="0.97"/>
</linearGradient>
<linearGradient id="paint3_linear" x1="1783.92" y1="3549.9" x2="1982.61" y2="3549.9" gradientUnits="userSpaceOnUse">
<stop stop-color="#183866"/>
<stop offset="1" stop-color="#1A7FC1"/>
</linearGradient>
<linearGradient id="paint4_linear" x1="1571.73" y1="-357.133" x2="1950.48" y2="-357.133" gradientUnits="userSpaceOnUse">
<stop stop-opacity="0"/>
<stop offset="0.97"/>
</linearGradient>
<linearGradient id="paint5_linear" x1="1571.73" y1="-304.065" x2="1950.48" y2="-304.065" gradientUnits="userSpaceOnUse">
<stop stop-opacity="0"/>
<stop offset="0.97"/>
</linearGradient>
<linearGradient id="paint6_linear" x1="1571.73" y1="-251.023" x2="1950.48" y2="-251.023" gradientUnits="userSpaceOnUse">
<stop stop-opacity="0"/>
<stop offset="0.97"/>
</linearGradient>
<linearGradient id="paint7_linear" x1="1571.73" y1="-197.941" x2="1950.48" y2="-197.941" gradientUnits="userSpaceOnUse">
<stop stop-opacity="0"/>
<stop offset="0.97"/>
</linearGradient>
<linearGradient id="paint8_linear" x1="56.315" y1="1.93868" x2="63.7624" y2="20.1067" gradientUnits="userSpaceOnUse">
<stop stop-color="white" stop-opacity="0"/>
<stop offset="1" stop-color="white"/>
</linearGradient>
<linearGradient id="paint9_linear" x1="5.54791" y1="0.246905" x2="5.46031" y2="3.40392" gradientUnits="userSpaceOnUse">
<stop stop-color="#A8EEFD"/>
<stop offset="1" stop-color="#E7FAFF"/>
</linearGradient>
<linearGradient id="paint10_linear" x1="263.599" y1="971.065" x2="262.898" y2="945.809" gradientUnits="userSpaceOnUse">
<stop stop-color="#A8EEFD"/>
<stop offset="1" stop-color="#E7FAFF"/>
</linearGradient>
<linearGradient id="paint11_linear" x1="118.255" y1="-850.941" x2="117.553" y2="-825.622" gradientUnits="userSpaceOnUse">
<stop stop-color="#A8EEFD"/>
<stop offset="1" stop-color="#E7FAFF"/>
</linearGradient>
<linearGradient id="paint12_linear" x1="31.6824" y1="14.2244" x2="20.3269" y2="16.0858" gradientUnits="userSpaceOnUse">
<stop stop-color="#68E1FD"/>
<stop offset="0.08" stop-color="#84E6FD"/>
<stop offset="0.21" stop-color="#A9EEFE"/>
<stop offset="0.35" stop-color="#C8F4FE"/>
<stop offset="0.49" stop-color="#E0F9FF"/>
<stop offset="0.64" stop-color="#F2FCFF"/>
<stop offset="0.8" stop-color="#FCFEFF"/>
<stop offset="1" stop-color="white"/>
</linearGradient>
<linearGradient id="paint13_linear" x1="5168.21" y1="548.28" x2="5048.83" y2="209.675" gradientUnits="userSpaceOnUse">
<stop stop-color="#68E1FD"/>
<stop offset="0.08" stop-color="#84E6FD"/>
<stop offset="0.21" stop-color="#A9EEFE"/>
<stop offset="0.35" stop-color="#C8F4FE"/>
<stop offset="0.49" stop-color="#E0F9FF"/>
<stop offset="0.64" stop-color="#F2FCFF"/>
<stop offset="0.8" stop-color="#FCFEFF"/>
<stop offset="1" stop-color="white"/>
</linearGradient>
<linearGradient id="paint14_linear" x1="5315.84" y1="509.718" x2="5194.92" y2="169.248" gradientUnits="userSpaceOnUse">
<stop stop-color="#68E1FD"/>
<stop offset="0.08" stop-color="#84E6FD"/>
<stop offset="0.21" stop-color="#A9EEFE"/>
<stop offset="0.35" stop-color="#C8F4FE"/>
<stop offset="0.49" stop-color="#E0F9FF"/>
<stop offset="0.64" stop-color="#F2FCFF"/>
<stop offset="0.8" stop-color="#FCFEFF"/>
<stop offset="1" stop-color="white"/>
</linearGradient>
<linearGradient id="paint15_linear" x1="5465.37" y1="461.826" x2="5347.19" y2="124.669" gradientUnits="userSpaceOnUse">
<stop stop-color="#68E1FD"/>
<stop offset="0.08" stop-color="#84E6FD"/>
<stop offset="0.21" stop-color="#A9EEFE"/>
<stop offset="0.35" stop-color="#C8F4FE"/>
<stop offset="0.49" stop-color="#E0F9FF"/>
<stop offset="0.64" stop-color="#F2FCFF"/>
<stop offset="0.8" stop-color="#FCFEFF"/>
<stop offset="1" stop-color="white"/>
</linearGradient>
<linearGradient id="paint16_linear" x1="26.3772" y1="47.8235" x2="35.9794" y2="47.8235" gradientUnits="userSpaceOnUse">
<stop stop-color="#ECC4D7"/>
<stop offset="0.42" stop-color="#EFD4D1"/>
<stop offset="1" stop-color="#F2EAC9"/>
</linearGradient>
<linearGradient id="paint17_linear" x1="13816" y1="-11896.8" x2="8182.56" y2="-11960.2" gradientUnits="userSpaceOnUse">
<stop stop-color="white" stop-opacity="0"/>
<stop offset="1" stop-color="white"/>
</linearGradient>
<linearGradient id="paint18_linear" x1="3027.46" y1="3630.45" x2="3484.96" y2="3630.45" gradientUnits="userSpaceOnUse">
<stop stop-color="#ECC4D7"/>
<stop offset="0.42" stop-color="#EFD4D1"/>
<stop offset="1" stop-color="#F2EAC9"/>
</linearGradient>
<linearGradient id="paint19_linear" x1="1211.74" y1="543.932" x2="1282.07" y2="543.932" gradientUnits="userSpaceOnUse">
<stop stop-color="#ECC4D7"/>
<stop offset="0.42" stop-color="#EFD4D1"/>
<stop offset="1" stop-color="#F2EAC9"/>
</linearGradient>
<linearGradient id="paint20_linear" x1="1123.99" y1="538.807" x2="1200.33" y2="538.807" gradientUnits="userSpaceOnUse">
<stop stop-color="#ECC4D7"/>
<stop offset="0.42" stop-color="#EFD4D1"/>
<stop offset="1" stop-color="#F2EAC9"/>
</linearGradient>
<linearGradient id="paint21_linear" x1="25.0648" y1="58.3931" x2="31.5529" y2="56.2608" gradientUnits="userSpaceOnUse">
<stop stop-color="white" stop-opacity="0"/>
<stop offset="1" stop-color="#E7FAFF"/>
</linearGradient>
<linearGradient id="paint22_linear" x1="1269.69" y1="2937.8" x2="1348.83" y2="2943.62" gradientUnits="userSpaceOnUse">
<stop stop-color="#ECC4D7"/>
<stop offset="0.42" stop-color="#EFD4D1"/>
<stop offset="1" stop-color="#F2EAC9"/>
</linearGradient>
<clipPath id="clip0">
<rect width="115" height="89" fill="white"/>
</clipPath>
</defs>
</svg>
