<svg width="9" height="14" viewBox="0 0 9 14" fill="none" xmlns="http://www.w3.org/2000/svg">
<path d="M8.99998 7.02749C9.00112 7.21086 8.9633 7.39264 8.88871 7.56241C8.81411 7.73217 8.7042 7.88658 8.56527 8.01677L2.56938 13.5902C2.42962 13.7201 2.26369 13.8232 2.08109 13.8935C1.89848 13.9638 1.70276 14 1.50511 14C1.30745 14 1.11173 13.9638 0.929126 13.8935C0.746518 13.8232 0.580597 13.7201 0.440835 13.5902C0.301073 13.4603 0.190207 13.3061 0.114568 13.1363C0.0389298 12.9666 -2.94526e-09 12.7847 0 12.6009C2.94527e-09 12.4172 0.0389298 12.2353 0.114568 12.0655C0.190207 11.8958 0.301073 11.7416 0.440835 11.6116L5.40244 7.02749L0.635702 2.42939C0.482372 2.30121 0.359143 2.14501 0.273723 1.97054C0.188302 1.79607 0.142527 1.6071 0.139261 1.41544C0.135994 1.22378 0.175305 1.03355 0.254737 0.856652C0.334169 0.679758 0.452014 0.520002 0.600898 0.387374C0.749783 0.254745 0.926506 0.152098 1.12001 0.0858526C1.31352 0.0196075 1.51966 -0.00880909 1.72552 0.00237656C1.93138 0.0135622 2.13255 0.0641127 2.31644 0.150864C2.50032 0.237615 2.66298 0.3587 2.79422 0.50655L8.58026 6.08C8.84455 6.33481 8.99461 6.67357 8.99998 7.02749Z" fill="white"/>
</svg>
