<svg width="126" height="89" viewBox="0 0 126 89" fill="none" xmlns="http://www.w3.org/2000/svg">
<g clip-path="url(#clip0)">
<path opacity="0.24" d="M69.249 53.9736L97.6814 53.9736C99.1299 53.9736 100.304 52.8152 100.304 51.3861V36.1858C100.304 34.7568 99.1299 33.5983 97.6814 33.5983H69.249C67.8004 33.5983 66.6262 34.7568 66.6262 36.1858V51.3861C66.6262 52.8152 67.8004 53.9736 69.249 53.9736Z" fill="#6937FF"/>
<path opacity="0.24" d="M19.1661 59.2634H41.096C42.222 59.2634 43.1348 58.3628 43.1348 57.252V45.33C43.1348 44.2191 42.222 43.3186 41.096 43.3186H19.1661C18.04 43.3186 17.1272 44.2191 17.1272 45.33V57.252C17.1272 58.3628 18.04 59.2634 19.1661 59.2634Z" fill="#6937FF"/>
<path opacity="0.63" d="M119.463 40.4167H79.8737C78.1403 40.4147 76.4784 39.7347 75.2525 38.5258C74.0266 37.3168 73.3367 35.6775 73.334 33.9675V6.47658C73.336 4.76609 74.0256 3.12621 75.2516 1.91672C76.4776 0.707219 78.1399 0.0268711 79.8737 0.0249329H119.463C121.196 0.0275169 122.858 0.708149 124.083 1.91758C125.309 3.12701 125.998 4.76651 126 6.47658V33.9675C125.998 35.6773 125.309 37.3166 124.083 38.5256C122.858 39.7346 121.196 40.4147 119.463 40.4167ZM79.8737 0.98914C78.3989 0.990433 76.9849 1.56899 75.942 2.5978C74.8992 3.62662 74.3127 5.02162 74.3114 6.47658V33.9675C74.3134 35.422 74.9001 36.8164 75.9429 37.8447C76.9857 38.873 78.3993 39.4512 79.8737 39.4525H119.463C120.937 39.4505 122.35 38.872 123.392 37.8438C124.434 36.8156 125.021 35.4216 125.023 33.9675V6.47658C125.021 5.02204 124.435 3.62741 123.393 2.59866C122.351 1.56992 120.937 0.991079 119.463 0.98914H79.8737Z" fill="#6937FF"/>
<path opacity="0.63" d="M49.499 17.9221H33.4406C32.6606 17.9214 31.9126 17.6154 31.3611 17.0713C30.8095 16.5271 30.4993 15.7893 30.4987 15.0197V3.8715C30.4987 3.10152 30.8085 2.36303 31.3602 1.81834C31.9118 1.27365 32.6601 0.967322 33.4406 0.966675H49.499C50.2795 0.967322 51.0278 1.27365 51.5794 1.81834C52.1311 2.36303 52.441 3.10152 52.441 3.8715V15.0197C52.4403 15.7893 52.1301 16.5271 51.5786 17.0713C51.027 17.6154 50.2791 17.9214 49.499 17.9221ZM33.4406 1.94309C32.9208 1.94692 32.4233 2.15235 32.0557 2.515C31.6881 2.87765 31.4799 3.36841 31.476 3.88127V15.0295C31.4799 15.5423 31.6881 16.0331 32.0557 16.3957C32.4233 16.7584 32.9208 16.9638 33.4406 16.9676H49.499C50.0188 16.9638 50.5163 16.7584 50.8839 16.3957C51.2515 16.0331 51.4597 15.5423 51.4636 15.0295V3.8715C51.4572 3.36035 51.2478 2.87207 50.8805 2.51152C50.5131 2.15097 50.0172 1.94688 49.499 1.94309H33.4406Z" fill="#6937FF"/>
<path d="M55.2418 59.1633C55.2489 59.4421 55.3345 59.7134 55.4892 59.9469C55.6295 60.1073 55.8131 60.225 56.0187 60.2862C56.9639 60.6157 57.9982 60.2349 58.926 59.8566C59.3389 59.7271 59.7106 59.4941 60.0048 59.1804C60.2531 58.795 60.3797 58.3456 60.3686 57.8891C60.4628 56.4149 60.3856 54.935 60.1384 53.4781C60.103 53.0958 59.973 52.7278 59.7599 52.4065C59.3021 51.8085 58.4411 51.7279 57.6814 51.6986C55.7688 51.6278 55.2071 51.3862 55.0982 53.3634C54.9877 55.2974 55.0357 57.237 55.2418 59.1633Z" fill="url(#paint0_linear)"/>
<path d="M49.7338 45.0566C50.1938 46.1019 50.8315 47.062 51.6192 47.8955C52.4322 48.7311 53.4216 49.3801 54.5172 49.7964C55.6129 50.2126 56.7879 50.3861 57.959 50.3043C59.1302 50.2225 60.2688 49.8876 61.294 49.3232C62.3193 48.7589 63.2062 47.9789 63.8918 47.0387C65.0795 45.4056 65.5892 43.3918 65.9455 41.4121C66.2548 39.679 66.4651 37.875 66.0074 36.1736C65.4061 33.9499 63.6815 32.1166 61.6031 31.0768C59.5247 30.0369 57.1246 29.7342 54.7987 29.8977C53.3438 30.0027 51.8741 30.2932 50.6097 31.006C48.1106 32.4071 47.9968 34.3502 48.1106 36.884C48.2467 39.6619 48.5634 42.4959 49.7338 45.0566Z" fill="url(#paint1_linear)"/>
<path d="M55.1527 23.6975C54.4649 22.9652 53.6508 22.2182 52.6363 22.0986C51.6219 21.979 50.4639 22.8065 50.6569 23.8074C49.0857 23.0628 47.2448 22.4501 45.6365 23.1117C44.2855 23.6633 43.4096 25.0645 43.2215 26.4852C43.0335 27.9058 43.469 29.3705 44.1519 30.6349C44.5328 31.3786 45.0466 32.0485 45.6686 32.6121C47.1186 33.8717 49.1327 34.2232 51.0577 34.4454C54.3238 34.8213 57.6988 34.958 60.8288 33.9572C61.774 33.6569 62.9542 33.3054 63.6421 34.0133C64.1543 34.5381 64.3077 35.578 65.0475 35.5756C65.6463 35.5756 65.9185 34.8432 65.9754 34.2501C66.1084 32.843 65.9639 31.4239 65.5498 30.071C64.8298 27.7203 63.1151 25.9213 60.5047 25.9408C58.0873 25.9701 56.8229 25.499 55.1527 23.6975Z" fill="#E08142"/>
<path d="M53.965 36.6033H51.1714C50.1834 36.6033 49.3825 37.3934 49.3825 38.3681V39.1786C49.3825 40.1533 50.1834 40.9434 51.1714 40.9434H53.965C54.953 40.9434 55.7539 40.1533 55.7539 39.1786V38.3681C55.7539 37.3934 54.953 36.6033 53.965 36.6033Z" stroke="white" stroke-width="3.95" stroke-miterlimit="10"/>
<path d="M62.6301 36.6033H59.8365C58.8485 36.6033 58.0476 37.3934 58.0476 38.3681V39.1786C58.0476 40.1533 58.8485 40.9434 59.8365 40.9434H62.6301C63.6181 40.9434 64.419 40.1533 64.419 39.1786V38.3681C64.419 37.3934 63.6181 36.6033 62.6301 36.6033Z" stroke="white" stroke-width="3.95" stroke-miterlimit="10"/>
<path d="M58.7455 38.3218H55.1949V38.8417H58.7455V38.3218Z" fill="white"/>
<path d="M49.7957 37.7798H46.9082V38.5927H49.7957V37.7798Z" fill="white"/>
<path d="M67.257 38.0971H64.0478V38.639H67.257V38.0971Z" fill="white"/>
<path d="M48.7616 45.3397C48.7216 46.1261 48.7764 46.9144 48.9249 47.688C49.3257 49.3967 50.6569 50.8101 52.2355 51.6132C52.7076 51.823 53.1662 52.061 53.6088 52.3259C54.0591 52.6311 54.4327 53.0412 54.8855 53.3463C55.4301 53.7026 56.0648 53.9018 56.718 53.9212C57.3712 53.9406 58.0169 53.7795 58.5822 53.4561C58.9261 53.2535 59.2676 52.9801 59.6684 52.9997C59.9752 52.9997 60.2424 53.1974 60.5319 53.295C61.1926 53.5172 61.9151 53.2755 62.5485 52.985C63.1819 52.6945 63.7684 52.3479 64.0331 51.7523C64.2088 51.3666 64.2162 50.9297 64.3003 50.5147C64.5131 49.4504 65.2084 48.5472 65.6365 47.5464C66.5272 45.474 66.2303 43.1135 65.9185 40.8848L64.8892 42.5667C64.5428 43.133 64.1469 43.736 63.5185 43.9605C62.6896 44.251 61.8087 43.7774 61.007 43.4137C59.7409 42.8505 58.3736 42.542 56.9852 42.5064C55.5967 42.4707 54.215 42.7087 52.9209 43.2062C52.3865 43.4162 51.8199 43.6749 51.2582 43.5431C50.5901 43.3869 49.6128 41.6538 49.0857 41.8051C48.4424 41.9955 48.7665 44.8076 48.7616 45.3397Z" fill="#E08142"/>
<path d="M55.2517 56.9297C61.9522 55.9875 69.0708 59.339 72.5448 65.0706C73.7028 66.9843 74.4797 69.1154 75.7614 70.9535C77.1148 72.9063 78.978 74.4417 80.5344 76.2334C81.7904 77.6817 82.8431 79.2901 83.6644 81.0154C84.4067 82.5874 84.9337 84.55 83.9366 85.9829C83.0211 87.301 81.2148 87.6184 79.5941 87.738C76.3775 87.9821 73.1337 87.9015 69.9022 87.821L38.1517 87.0472C36.7364 87.013 35.2864 86.9715 33.9725 86.4516C32.6587 85.9316 31.4982 84.8185 31.33 83.432C31.0825 81.4011 32.9259 79.8095 34.2991 78.2741C38.2902 73.7924 39.1835 67.2724 43.0286 62.6686C44.4713 60.9649 46.2682 59.587 48.2976 58.628C50.327 57.6691 52.5417 57.1515 54.7915 57.1104" fill="#6937FF"/>
<path d="M55.2517 56.9297C61.9522 55.9875 69.0708 59.339 72.5448 65.0706C73.7028 66.9843 74.4797 69.1154 75.7614 70.9535C77.1148 72.9063 78.978 74.4417 80.5344 76.2334C81.7904 77.6817 82.8431 79.2901 83.6644 81.0154C84.4067 82.5874 84.9337 84.55 83.9366 85.9829C83.0211 87.301 81.2148 87.6184 79.5941 87.738C76.3775 87.9821 73.1337 87.9015 69.9022 87.821L38.1517 87.0472C36.7364 87.013 35.2864 86.9715 33.9725 86.4516C32.6587 85.9316 31.4982 84.8185 31.33 83.432C31.0825 81.4011 32.9259 79.8095 34.2991 78.2741C38.2902 73.7924 39.1835 67.2724 43.0286 62.6686C44.4713 60.9649 46.2682 59.587 48.2976 58.628C50.327 57.6691 52.5417 57.1515 54.7915 57.1104" fill="url(#paint2_linear)"/>
<path d="M72.9382 85.48H44.2039V87.3792H72.9382V85.48Z" fill="#6937FF"/>
<path d="M72.9382 85.48H44.2039V87.3792H72.9382V85.48Z" fill="url(#paint3_linear)"/>
<path d="M76.3699 54.103H41.3731C38.5567 54.103 36.2735 56.3555 36.2735 59.134V76.0186C36.2735 78.7971 38.5567 81.0495 41.3731 81.0495H76.3699C79.1863 81.0495 81.4695 78.7971 81.4695 76.0186V59.134C81.4695 56.3555 79.1863 54.103 76.3699 54.103Z" fill="#6937FF"/>
<path d="M76.3699 54.9159H41.3731C38.5567 54.9159 36.2735 57.1683 36.2735 59.9469V76.8315C36.2735 79.61 38.5567 81.8624 41.3731 81.8624H76.3699C79.1863 81.8624 81.4695 79.61 81.4695 76.8315V59.9469C81.4695 57.1683 79.1863 54.9159 76.3699 54.9159Z" fill="url(#paint4_linear)"/>
<path opacity="0.26" d="M52.1786 80.7273L56.9887 71.1024H61.3906L62.0091 80.864L52.1786 80.7273Z" fill="url(#paint5_linear)"/>
<path d="M63.5901 87.3791H54.972L56.9886 71.1024H61.3905L63.5901 87.3791Z" fill="#6937FF"/>
<path d="M64.0009 87.3791H55.3853L57.4019 71.1024H61.8012L64.0009 87.3791Z" fill="url(#paint6_linear)"/>
<path d="M119.463 0H79.8661C76.525 0 73.8164 2.67211 73.8164 5.96832V33.4568C73.8164 36.753 76.525 39.4251 79.8661 39.4251H119.463C122.804 39.4251 125.512 36.753 125.512 33.4568V5.96832C125.512 2.67211 122.804 0 119.463 0Z" fill="white"/>
<path opacity="0.63" d="M30.8523 48.8816H4.51069C3.31456 48.8797 2.16801 48.4099 1.32245 47.5752C0.476882 46.7406 0.0013085 45.6092 0 44.4292V26.1434C0.0013085 24.9634 0.476882 23.832 1.32245 22.9974C2.16801 22.1627 3.31456 21.6929 4.51069 21.691H30.8523C32.0485 21.6929 33.195 22.1627 34.0406 22.9974C34.8862 23.832 35.3617 24.9634 35.363 26.1434V44.4292C35.3617 45.6092 34.8862 46.7406 34.0406 47.5752C33.195 48.4099 32.0485 48.8797 30.8523 48.8816ZM4.51069 22.6552C3.57334 22.6565 2.67475 23.0244 2.01194 23.6783C1.34913 24.3322 0.976193 25.2187 0.974884 26.1434V44.4292C0.976193 45.3539 1.34913 46.2404 2.01194 46.8943C2.67475 47.5482 3.57334 47.9161 4.51069 47.9174H30.8523C31.7897 47.9161 32.6883 47.5482 33.3511 46.8943C34.0139 46.2404 34.3868 45.3539 34.3882 44.4292V26.1434C34.3868 25.2187 34.0139 24.3322 33.3511 23.6783C32.6883 23.0244 31.7897 22.6565 30.8523 22.6552H4.51069Z" fill="#6937FF"/>
<path d="M30.8522 21.5201H4.51055C2.28858 21.5201 0.487305 23.2972 0.487305 25.4893V43.7775C0.487305 45.9696 2.28858 47.7466 4.51055 47.7466H30.8522C33.0742 47.7466 34.8755 45.9696 34.8755 43.7775V25.4893C34.8755 23.2972 33.0742 21.5201 30.8522 21.5201Z" fill="white"/>
<path d="M49.4321 1.01059H33.3712C32.017 1.01059 30.9192 2.09364 30.9192 3.42965V14.5803C30.9192 15.9163 32.017 16.9993 33.3712 16.9993H49.4321C50.7863 16.9993 51.8841 15.9163 51.8841 14.5803V3.42965C51.8841 2.09364 50.7863 1.01059 49.4321 1.01059Z" fill="white"/>
<path d="M33.5916 9.17342L38.8817 6.48828V7.26453L34.4279 9.46146V9.48587L38.8817 11.6828V12.4615L33.5916 9.77635V9.17342Z" fill="#6937FF"/>
<path d="M39.6188 12.9277L42.8008 4.76974H43.5753L40.3834 12.9277H39.6188Z" fill="#6937FF"/>
<path d="M49.5805 9.81296L44.2953 12.4981V11.7072L48.7862 9.51028V9.47366L44.2953 7.27673V6.48584L49.5805 9.17097V9.81296Z" fill="#6937FF"/>
<path d="M51.9758 81.943C50.8425 81.7184 49.6746 81.9235 48.5117 81.9576C47.4032 81.9894 46.2848 81.86 45.1887 81.9576C44.0926 82.0553 42.9445 82.4458 42.2368 83.2782C41.7809 83.821 41.5416 84.5094 41.5638 85.214C41.5625 85.4773 41.6307 85.7364 41.7617 85.9658C42.0636 86.4418 42.6921 86.5858 43.2463 86.6664C43.3601 86.6859 43.4765 86.6859 43.5903 86.6664C43.9985 86.5785 44.142 86.061 44.4959 85.8462C44.7359 85.73 45.0047 85.6842 45.2703 85.7144C48.1702 85.773 51.071 85.7616 53.9725 85.6802C54.1718 85.6914 54.3705 85.651 54.549 85.563C55.3408 85.0748 54.4253 83.9812 54.1408 83.4589C53.9144 83.0652 53.6032 82.7254 53.2291 82.4635C52.855 82.2015 52.4271 82.0238 51.9758 81.943Z" fill="url(#paint7_linear)"/>
<path d="M64.0453 83.41C63.6469 83.9495 63.4291 84.8063 63.9661 85.2115C64.4486 85.5777 65.1562 85.275 65.6066 84.8722C66.0569 84.4694 66.4676 83.9471 67.0664 83.8323C67.1555 84.345 67.2742 84.9064 67.6998 85.2115C68.3456 85.6753 69.2364 85.275 70.0331 85.2823C70.7507 85.2823 71.5697 85.6167 72.1239 85.1651C72.4109 84.921 72.7375 84.489 73.0345 84.7135C73.1207 84.7944 73.1802 84.899 73.2052 85.0138C73.4778 85.8387 73.8785 86.6168 74.3929 87.3206C74.7541 87.4597 75.0263 86.9764 75.0956 86.5883C75.2884 85.5301 75.3308 84.4505 75.2218 83.3807C75.1624 82.7851 75.0337 82.1602 74.6032 81.7306C74.0415 81.1765 73.1532 81.1521 72.359 81.1643L69.172 81.2107C67.2767 81.2473 65.2255 81.8185 64.0453 83.41Z" fill="url(#paint8_linear)"/>
<path opacity="0.59" d="M62.3504 63.8403C62.3494 64.4564 62.1634 65.0584 61.8159 65.5703C61.4683 66.0822 60.9748 66.4809 60.3976 66.7163C59.8204 66.9516 59.1855 67.0129 58.5731 66.8925C57.9606 66.772 57.3981 66.4753 56.9565 66.0396C56.5149 65.604 56.214 65.049 56.092 64.4448C55.9699 63.8405 56.032 63.2142 56.2706 62.6448C56.5091 62.0754 56.9133 61.5885 57.4322 61.2456C57.951 60.9027 58.5613 60.7192 59.1858 60.7182C59.3521 60.7153 59.5182 60.7317 59.6806 60.7671C59.701 61.4895 59.9785 62.1818 60.4643 62.7228C60.9502 63.2637 61.6135 63.6187 62.3381 63.7256C62.3472 63.7631 62.3513 63.8017 62.3504 63.8403Z" fill="#6937FF"/>
<g opacity="0.52">
<path opacity="0.52" d="M93.6185 5.22379H80.4056V6.18067H93.6185V5.22379Z" fill="#6937FF"/>
<path opacity="0.52" d="M88.4695 7.0741H80.4056V7.9724H88.4695V7.0741Z" fill="#6937FF"/>
<path opacity="0.52" d="M117.1 7.0741H91.7231V7.97728H117.1V7.0741Z" fill="#6937FF"/>
<path opacity="0.52" d="M95.6894 8.92682H84.5995V9.87394H95.6894V8.92682Z" fill="#6937FF"/>
<path opacity="0.52" d="M101.373 10.7771H88.1603V11.734H101.373V10.7771Z" fill="#6937FF"/>
<path opacity="0.52" d="M113.309 10.7771H102.234V11.8389H113.309V10.7771Z" fill="#6937FF"/>
<path opacity="0.52" d="M98.3422 12.6274H88.1405V13.5257H98.3422V12.6274Z" fill="#6937FF"/>
<path opacity="0.52" d="M120.373 12.6274H99.3217V13.6209H120.373V12.6274Z" fill="#6937FF"/>
<path opacity="0.52" d="M93.6185 15.1295H80.4056V16.0864H93.6185V15.1295Z" fill="#6937FF"/>
<path opacity="0.52" d="M88.4695 16.9798H80.4056V17.8781H88.4695V16.9798Z" fill="#6937FF"/>
<path opacity="0.52" d="M117.1 16.9798H91.7231V17.883H117.1V16.9798Z" fill="#6937FF"/>
<path opacity="0.52" d="M95.6894 18.8301H84.5995V19.7772H95.6894V18.8301Z" fill="#6937FF"/>
<path opacity="0.52" d="M101.373 20.6829H88.1603V21.6397H101.373V20.6829Z" fill="#6937FF"/>
<path opacity="0.52" d="M113.309 20.6829H102.234V21.7447H113.309V20.6829Z" fill="#6937FF"/>
<path opacity="0.52" d="M98.3422 22.5331H88.1405V23.4314H98.3422V22.5331Z" fill="#6937FF"/>
<path opacity="0.52" d="M120.373 22.5331H99.3217V23.5266H120.373V22.5331Z" fill="#6937FF"/>
<path opacity="0.52" d="M93.6185 25.0376H80.4056V25.9945H93.6185V25.0376Z" fill="#6937FF"/>
<path opacity="0.52" d="M88.4695 26.8855H80.4056V27.7838H88.4695V26.8855Z" fill="#6937FF"/>
<path opacity="0.52" d="M117.1 26.8855H91.7231V27.7887H117.1V26.8855Z" fill="#6937FF"/>
<path opacity="0.52" d="M95.6894 28.7358H84.5995V29.683H95.6894V28.7358Z" fill="#6937FF"/>
<path opacity="0.52" d="M101.373 30.5861H88.1603V31.5429H101.373V30.5861Z" fill="#6937FF"/>
<path opacity="0.52" d="M113.309 30.5861H102.234V31.6479H113.309V30.5861Z" fill="#6937FF"/>
<path opacity="0.52" d="M98.3422 32.4413H88.1405V33.3396H98.3422V32.4413Z" fill="#6937FF"/>
<path opacity="0.52" d="M120.373 32.4413H99.3217V33.4348H120.373V32.4413Z" fill="#6937FF"/>
</g>
<g opacity="0.52">
<path opacity="0.52" d="M13.1636 25.6137H4.58014V26.2337H13.1636V25.6137Z" fill="#6937FF"/>
<path opacity="0.52" d="M9.82076 26.8147H4.58014V27.3981H9.82076V26.8147Z" fill="#6937FF"/>
<path opacity="0.52" d="M28.4201 26.8147H11.9337V27.4005H28.4201V26.8147Z" fill="#6937FF"/>
<path opacity="0.52" d="M14.5097 28.0206H7.3045V28.6357H14.5097V28.0206Z" fill="#6937FF"/>
<path opacity="0.52" d="M18.2013 29.2216H9.61792V29.8416H18.2013V29.2216Z" fill="#6937FF"/>
<path opacity="0.52" d="M25.9558 29.2216H18.7605V29.9124H25.9558V29.2216Z" fill="#6937FF"/>
<path opacity="0.52" d="M16.2342 30.425H9.60547V31.0084H16.2342V30.425Z" fill="#6937FF"/>
<path opacity="0.52" d="M30.5456 30.425H16.8676V31.0719H30.5456V30.425Z" fill="#6937FF"/>
<path opacity="0.52" d="M13.1636 32.0507H4.58014V32.6707H13.1636V32.0507Z" fill="#6937FF"/>
<path opacity="0.52" d="M9.82076 33.2517H4.58014V33.8351H9.82076V33.2517Z" fill="#6937FF"/>
<path opacity="0.52" d="M28.4201 33.2517H11.9337V33.8376H28.4201V33.2517Z" fill="#6937FF"/>
<path opacity="0.52" d="M14.5097 34.4551H7.3045V35.0703H14.5097V34.4551Z" fill="#6937FF"/>
<path opacity="0.52" d="M18.2013 35.6586H9.61792V36.2786H18.2013V35.6586Z" fill="#6937FF"/>
<path opacity="0.52" d="M25.9558 35.6586H18.7605V36.3494H25.9558V35.6586Z" fill="#6937FF"/>
<path opacity="0.52" d="M16.2342 36.8596H9.60547V37.443H16.2342V36.8596Z" fill="#6937FF"/>
<path opacity="0.52" d="M30.5456 36.8596H16.8676V37.5065H30.5456V36.8596Z" fill="#6937FF"/>
<path opacity="0.52" d="M13.1636 38.4877H4.58014V39.1077H13.1636V38.4877Z" fill="#6937FF"/>
<path opacity="0.52" d="M9.82076 39.6887H4.58014V40.2721H9.82076V39.6887Z" fill="#6937FF"/>
<path opacity="0.52" d="M28.4201 39.6887H11.9337V40.2745H28.4201V39.6887Z" fill="#6937FF"/>
<path opacity="0.52" d="M14.5097 40.8897H7.3045V41.5049H14.5097V40.8897Z" fill="#6937FF"/>
<path opacity="0.52" d="M18.2013 42.0931H9.61792V42.7131H18.2013V42.0931Z" fill="#6937FF"/>
<path opacity="0.52" d="M25.9558 42.0931H18.7605V42.7839H25.9558V42.0931Z" fill="#6937FF"/>
<path opacity="0.52" d="M16.2342 43.2966H9.60547V43.88H16.2342V43.2966Z" fill="#6937FF"/>
<path opacity="0.52" d="M30.5456 43.2966H16.8676V43.9435H30.5456V43.2966Z" fill="#6937FF"/>
</g>
<g opacity="0.61">
<path opacity="0.61" d="M83.6447 61.1894C83.7238 60.7719 83.808 60.3545 83.8921 59.9371C83.9366 59.693 83.9787 59.466 84.0257 59.2048C84.4216 59.2707 84.8076 59.3317 85.1911 59.405C85.2165 59.4145 85.2437 59.4187 85.2709 59.4174C85.2981 59.4161 85.3247 59.4092 85.349 59.3973C85.3734 59.3854 85.395 59.3687 85.4126 59.3482C85.4301 59.3276 85.4432 59.3038 85.4509 59.278C85.6241 58.946 85.8171 58.6238 86.02 58.3016C86.0378 58.2829 86.0515 58.2608 86.0604 58.2366C86.0692 58.2125 86.0729 58.1868 86.0713 58.1612C86.0697 58.1356 86.0627 58.1106 86.0509 58.0877C86.0391 58.0648 86.0227 58.0446 86.0027 58.0282C85.7553 57.7377 85.5078 57.4375 85.2332 57.1275L86.891 55.7532C87.1384 56.0534 87.4007 56.3439 87.6456 56.6442C87.6598 56.6694 87.6791 56.6914 87.7025 56.7088C87.7258 56.7261 87.7526 56.7384 87.7811 56.7449C87.8096 56.7513 87.8391 56.7518 87.8678 56.7462C87.8965 56.7406 87.9236 56.7291 87.9475 56.7125C88.2804 56.5676 88.6226 56.4445 88.9719 56.3439C89.1327 56.2975 89.1698 56.2341 89.1673 56.0852C89.1673 55.7117 89.1673 55.3382 89.1673 54.9501H91.3299C91.3299 55.3333 91.3299 55.7117 91.3299 56.09C91.3299 56.2414 91.3695 56.2975 91.5254 56.3341C91.8743 56.4367 92.2165 56.5606 92.5498 56.7052C92.5737 56.7216 92.601 56.7328 92.6297 56.738C92.6584 56.7432 92.6879 56.7423 92.7162 56.7354C92.7446 56.7284 92.7711 56.7156 92.794 56.6978C92.8169 56.68 92.8357 56.6575 92.8491 56.6319C93.0966 56.3366 93.344 56.0485 93.6038 55.7434L95.2591 57.1153L94.4104 58.1185C94.6406 58.536 94.8558 58.9363 95.0859 59.3268C95.1107 59.3708 95.2195 59.3928 95.2839 59.383C95.6699 59.3244 96.0559 59.2536 96.4666 59.1828L96.8427 61.2821C96.4394 61.3529 96.0484 61.4188 95.66 61.4945C95.5956 61.5067 95.5016 61.5653 95.4917 61.6165C95.415 62.0608 95.3532 62.5075 95.2814 62.9786L96.4245 63.6328L95.3433 65.4807L94.1927 64.8289C93.8215 65.1219 93.4628 65.4001 93.1089 65.6906C93.0896 65.7161 93.0766 65.7458 93.071 65.7771C93.0654 65.8085 93.0674 65.8408 93.0768 65.8713C93.2054 66.2496 93.3465 66.6231 93.49 67.0137L91.4586 67.746C91.3324 67.4067 91.1963 67.0747 91.0899 66.7329C91.0847 66.6915 91.0705 66.6516 91.0482 66.6161C91.026 66.5806 90.9962 66.5502 90.961 66.527C90.9258 66.5038 90.8859 66.4884 90.8441 66.4818C90.8023 66.4753 90.7595 66.4776 90.7188 66.4888C90.3686 66.512 90.0173 66.512 89.6672 66.4888C89.6435 66.4831 89.619 66.4824 89.595 66.4865C89.5711 66.4907 89.5482 66.4997 89.528 66.513C89.5078 66.5263 89.4906 66.5436 89.4775 66.5638C89.4644 66.584 89.4557 66.6067 89.4519 66.6304C89.3232 66.9966 89.1847 67.3627 89.0412 67.7435L87.0073 67.0112L87.4625 65.7712L86.3169 64.8192L85.1565 65.4783L84.0727 63.6304C84.4315 63.4253 84.768 63.2301 85.1095 63.0421C85.1329 63.0332 85.1543 63.0198 85.1724 63.0027C85.1905 62.9855 85.2049 62.9649 85.2148 62.9422C85.2247 62.9194 85.2299 62.895 85.2301 62.8702C85.2303 62.8454 85.2254 62.8209 85.2159 62.798C85.1367 62.4538 85.0723 62.1047 85.0278 61.7557C85.0055 61.5848 84.9659 61.5116 84.7804 61.4798C84.4043 61.4383 84.0381 61.3578 83.662 61.2919L83.6447 61.1894ZM90.2659 58.6434C89.7196 58.6352 89.1831 58.787 88.7242 59.0796C88.2653 59.3722 87.9046 59.7924 87.6876 60.2871C87.4707 60.7818 87.4073 61.3289 87.5054 61.8592C87.6035 62.3895 87.8587 62.8792 88.2388 63.2664C88.6189 63.6537 89.1068 63.9211 89.6408 64.0349C90.1749 64.1487 90.7312 64.1037 91.2394 63.9057C91.7476 63.7078 92.1849 63.3656 92.4961 62.9225C92.8073 62.4795 92.9783 61.9553 92.9877 61.4164C92.9963 60.6935 92.7152 59.9965 92.2054 59.4771C91.6957 58.9578 90.9986 58.6581 90.2659 58.6434Z" fill="#6937FF"/>
<path opacity="0.61" d="M102.321 67.3627L102.793 68.8273C102.519 68.9176 102.254 68.9958 101.999 69.091C101.967 69.1057 101.939 69.1278 101.917 69.1554C101.895 69.1829 101.88 69.2152 101.873 69.2496C101.851 69.5084 101.858 69.7671 101.838 70.0259C101.833 70.048 101.832 70.071 101.835 70.0935C101.839 70.116 101.847 70.1375 101.859 70.1569C101.872 70.1762 101.888 70.1929 101.907 70.2061C101.925 70.2192 101.947 70.2285 101.969 70.2334C102.217 70.3237 102.464 70.4311 102.731 70.5385C102.534 71.0267 102.345 71.4783 102.15 71.9518C101.88 71.8444 101.625 71.7346 101.366 71.6443C101.331 71.6358 101.296 71.6354 101.261 71.643C101.227 71.6506 101.195 71.6661 101.168 71.6882C100.96 71.9055 100.764 72.1374 100.547 72.3839L100.99 73.2187L99.6237 73.9364C99.4876 73.6923 99.3639 73.4482 99.2278 73.2041C99.2099 73.1766 99.1859 73.1536 99.1576 73.1367C99.1293 73.1198 99.0974 73.1094 99.0645 73.1065C98.7503 73.1431 98.436 73.1992 98.1119 73.248L97.9065 74.1683L96.3972 73.8485L96.5927 72.9283C96.3131 72.7476 96.0458 72.5694 95.7712 72.4034C95.742 72.3946 95.7111 72.3927 95.6811 72.3978C95.651 72.4029 95.6225 72.4148 95.598 72.4327C95.3753 72.5938 95.16 72.7647 94.9274 72.9429L93.9748 71.7395C94.2024 71.5637 94.4103 71.3977 94.6256 71.2391C94.6464 71.2295 94.665 71.2159 94.6802 71.1989C94.6953 71.1819 94.7068 71.162 94.7138 71.1404C94.7207 71.1189 94.7231 71.0961 94.7207 71.0736C94.7183 71.0511 94.7112 71.0293 94.6998 71.0096C94.6036 70.7744 94.521 70.534 94.4524 70.2895C94.4506 70.2667 94.4441 70.2446 94.4332 70.2244C94.4224 70.2043 94.4074 70.1865 94.3893 70.1723C94.3712 70.1581 94.3503 70.1478 94.3279 70.1419C94.3056 70.136 94.2822 70.1347 94.2594 70.1382C93.9897 70.1382 93.7224 70.1382 93.4775 70.1382V68.6003H94.4524C94.5761 68.3123 94.6998 68.0242 94.826 67.7289C94.8433 67.6849 94.7963 67.5946 94.7542 67.5531C94.5612 67.3676 94.3559 67.1943 94.1431 67.0039L95.1773 65.8688L95.8899 66.4962C96.1918 66.3448 96.4863 66.2032 96.7757 66.047C96.8104 66.0275 96.8252 65.9347 96.8203 65.881C96.7906 65.6174 96.7485 65.3537 96.7089 65.0681L98.2406 64.8582C98.2801 65.1292 98.3197 65.3782 98.3469 65.6296C98.3618 65.7712 98.4212 65.8297 98.5721 65.8468C98.7988 65.8791 99.0229 65.9273 99.2426 65.9909C99.266 66.0026 99.2916 66.0094 99.3178 66.011C99.344 66.0125 99.3702 66.0087 99.3949 65.9997C99.4195 65.9908 99.442 65.9769 99.4609 65.959C99.4798 65.9411 99.4948 65.9195 99.5049 65.8957C99.6361 65.6686 99.7821 65.4538 99.9355 65.2146L101.244 66.025L100.75 66.8232C100.945 67.0844 101.136 67.3432 101.336 67.5897C101.364 67.6069 101.395 67.6184 101.428 67.6234C101.461 67.6285 101.494 67.627 101.526 67.619C101.789 67.5433 102.051 67.4579 102.321 67.3627ZM98.1638 71.4514C98.5557 71.4456 98.937 71.3251 99.2593 71.1052C99.5817 70.8854 99.8307 70.5761 99.9747 70.2165C100.119 69.8569 100.151 69.4633 100.068 69.0854C99.9854 68.7076 99.7906 68.3625 99.5087 68.094C99.2268 67.8254 98.8704 67.6455 98.4847 67.5769C98.099 67.5084 97.7014 67.5544 97.3422 67.709C96.983 67.8636 96.6784 68.1199 96.467 68.4454C96.2556 68.771 96.1469 69.1511 96.1547 69.5377C96.1632 70.0552 96.3795 70.5482 96.7563 70.9084C97.133 71.2687 97.6393 71.4666 98.1638 71.4588V71.4514Z" fill="#6937FF"/>
<path opacity="0.61" d="M102.665 59.0974L103.261 58.636L104.018 59.5807C103.872 59.6954 103.743 59.8248 103.597 59.9078C103.451 59.9908 103.397 60.1055 103.496 60.2642C103.529 60.3223 103.554 60.3848 103.57 60.4497C103.699 60.8354 103.699 60.8354 104.119 60.8525C104.221 60.8525 104.322 60.8525 104.419 60.8525V62.0461C104.191 62.0461 103.988 62.0461 103.788 62.0461C103.672 62.0461 103.615 62.073 103.59 62.1853C103.569 62.2766 103.539 62.3656 103.501 62.4514C103.347 62.8297 103.345 62.8297 103.662 63.1055L103.909 63.3179L103.098 64.2187L102.528 63.7304C102.306 63.8452 102.083 63.9526 101.868 64.0746C101.846 64.095 101.83 64.1197 101.819 64.1472C101.808 64.1746 101.804 64.204 101.806 64.2333C101.826 64.4383 101.86 64.641 101.89 64.8631L100.685 65.0364C100.653 64.8191 100.628 64.6141 100.584 64.4164C100.573 64.3831 100.556 64.3526 100.532 64.3273C100.508 64.3019 100.478 64.2822 100.445 64.2699C100.222 64.2138 99.9972 64.1772 99.7473 64.1283L99.344 64.763L98.3073 64.1308C98.4186 63.9501 98.5201 63.7768 98.6314 63.6108C98.6493 63.595 98.6633 63.5754 98.6722 63.5533C98.6812 63.5313 98.6848 63.5076 98.6829 63.4839C98.681 63.4603 98.6735 63.4374 98.6612 63.4171C98.6488 63.3968 98.6319 63.3795 98.6116 63.3667C98.5254 63.2816 98.4468 63.1893 98.3766 63.0909C98.186 62.8297 98.1885 62.8297 97.8693 62.9322C97.7431 62.9762 97.6219 63.0152 97.4586 63.0641L97.0751 61.9241C97.2755 61.8582 97.4611 61.7898 97.6541 61.7361C97.6786 61.733 97.7022 61.7248 97.7233 61.7122C97.7445 61.6996 97.7627 61.6827 97.7769 61.6627C97.7911 61.6428 97.801 61.6201 97.8058 61.5962C97.8106 61.5722 97.8104 61.5476 97.805 61.5238C97.798 61.351 97.8046 61.178 97.8248 61.0063C97.8306 60.9841 97.8318 60.961 97.8283 60.9384C97.8249 60.9158 97.8167 60.8941 97.8044 60.8747C97.7922 60.8553 97.776 60.8385 97.757 60.8255C97.7379 60.8124 97.7164 60.8033 97.6937 60.7988C97.5031 60.7329 97.3176 60.6548 97.1171 60.5742L97.5675 59.4562C97.7753 59.5368 97.9683 59.6198 98.1662 59.6832C98.1981 59.6911 98.2315 59.6917 98.2636 59.685C98.2958 59.6782 98.326 59.6642 98.3518 59.6442C98.5151 59.4757 98.6636 59.2951 98.8294 59.1071L98.478 58.4481L99.5494 57.8769L99.9156 58.5335L100.747 58.4114L100.905 57.6791L102.098 57.9232C102.056 58.1283 102.019 58.3211 101.974 58.514C101.964 58.5367 101.958 58.5614 101.957 58.5865C101.957 58.6116 101.962 58.6365 101.972 58.6595C101.982 58.6825 101.997 58.7032 102.016 58.7202C102.034 58.7372 102.057 58.7501 102.081 58.7581C102.276 58.8508 102.462 58.9753 102.665 59.0974ZM99.2005 61.3529C99.1996 61.6551 99.2892 61.9509 99.4582 62.203C99.6272 62.4551 99.8679 62.6524 100.15 62.7699C100.432 62.8874 100.744 62.92 101.045 62.8635C101.346 62.8071 101.623 62.6641 101.842 62.4526C102.061 62.2411 102.211 61.9705 102.275 61.6748C102.338 61.3791 102.311 61.0715 102.198 60.7906C102.085 60.5098 101.89 60.2683 101.638 60.0965C101.386 59.9246 101.088 59.8301 100.782 59.8248C100.575 59.8196 100.37 59.8553 100.178 59.9299C99.9862 60.0044 99.8114 60.1163 99.6641 60.2589C99.5168 60.4014 99.4001 60.5717 99.3209 60.7597C99.2417 60.9476 99.2016 61.1494 99.203 61.3529H99.2005Z" fill="#6937FF"/>
</g>
</g>
<defs>
<linearGradient id="paint0_linear" x1="55.0389" y1="56.0315" x2="60.4032" y2="56.0315" gradientUnits="userSpaceOnUse">
<stop stop-color="#E5C6D6"/>
<stop offset="0.42" stop-color="#EAD4D0"/>
<stop offset="1" stop-color="#F0E9CB"/>
</linearGradient>
<linearGradient id="paint1_linear" x1="3629.84" y1="4415.52" x2="4966.86" y2="4415.52" gradientUnits="userSpaceOnUse">
<stop stop-color="#E5C6D6"/>
<stop offset="0.42" stop-color="#EAD4D0"/>
<stop offset="1" stop-color="#F0E9CB"/>
</linearGradient>
<linearGradient id="paint2_linear" x1="57.6295" y1="86.2856" x2="60.0384" y2="61.593" gradientUnits="userSpaceOnUse">
<stop stop-color="#010101" stop-opacity="0"/>
<stop offset="0.95" stop-color="#010101"/>
</linearGradient>
<linearGradient id="paint3_linear" x1="6845.9" y1="733.255" x2="6845.9" y2="845.816" gradientUnits="userSpaceOnUse">
<stop stop-color="#010101" stop-opacity="0"/>
<stop offset="0.95" stop-color="#010101"/>
</linearGradient>
<linearGradient id="paint4_linear" x1="55.6475" y1="84.6379" x2="62.2548" y2="50.4248" gradientUnits="userSpaceOnUse">
<stop stop-color="white" stop-opacity="0"/>
<stop offset="0.95" stop-color="white"/>
</linearGradient>
<linearGradient id="paint5_linear" x1="2125.23" y1="3109.62" x2="2515.8" y2="3109.62" gradientUnits="userSpaceOnUse">
<stop stop-color="#010101" stop-opacity="0"/>
<stop offset="0.95" stop-color="#010101"/>
</linearGradient>
<linearGradient id="paint6_linear" x1="1983.9" y1="5354.87" x2="2283.89" y2="5354.87" gradientUnits="userSpaceOnUse">
<stop stop-color="white" stop-opacity="0"/>
<stop offset="0.95" stop-color="white"/>
</linearGradient>
<linearGradient id="paint7_linear" x1="2310.32" y1="1995.53" x2="3025.96" y2="1995.53" gradientUnits="userSpaceOnUse">
<stop stop-color="#E5C6D6"/>
<stop offset="0.42" stop-color="#EAD4D0"/>
<stop offset="1" stop-color="#F0E9CB"/>
</linearGradient>
<linearGradient id="paint8_linear" x1="3086.01" y1="2524.65" x2="3633.17" y2="2524.65" gradientUnits="userSpaceOnUse">
<stop stop-color="#E5C6D6"/>
<stop offset="0.42" stop-color="#EAD4D0"/>
<stop offset="1" stop-color="#F0E9CB"/>
</linearGradient>
<clipPath id="clip0">
<rect width="126" height="89" fill="white"/>
</clipPath>
</defs>
</svg>
