<svg width="157" height="103" viewBox="0 0 157 103" fill="none" xmlns="http://www.w3.org/2000/svg">
<g clip-path="url(#clip0)">
<path d="M96.779 102.924C129.844 102.924 156.648 100.243 156.648 96.9348C156.648 93.6269 129.844 90.9454 96.779 90.9454C63.714 90.9454 36.9095 93.6269 36.9095 96.9348C36.9095 100.243 63.714 102.924 96.779 102.924Z" fill="url(#paint0_linear)"/>
<path d="M113.09 75.5981H90.4049L86.28 58.2026H108.965L113.09 75.5981Z" fill="#6937FF"/>
<path d="M111.748 75.5981H90.4049L86.28 58.2026H107.623L111.748 75.5981Z" fill="url(#paint1_linear)"/>
<path d="M143.141 74.9657H62.2416V96.3064H143.141V74.9657Z" fill="#6937FF"/>
<path d="M143.141 74.9657H62.2416V96.3064H143.141V74.9657Z" fill="url(#paint2_linear)"/>
<path d="M129.798 13.1392H63.7636C59.8662 13.1392 56.7067 16.2676 56.7067 20.1268V56.6914C56.7067 60.5505 59.8662 63.679 63.7636 63.679H129.798C133.696 63.679 136.855 60.5505 136.855 56.6914V20.1268C136.855 16.2676 133.696 13.1392 129.798 13.1392Z" fill="#6937FF"/>
<path d="M136.855 53.6529V56.6874C136.853 58.5399 136.109 60.316 134.786 61.626C133.463 62.936 131.669 63.6728 129.798 63.6749H63.7596C61.888 63.6749 60.093 62.9388 58.7696 61.6283C57.4461 60.3179 56.7026 58.5406 56.7026 56.6874V53.6529H136.855Z" fill="url(#paint3_linear)"/>
<path opacity="0.1" d="M127.461 47.4011V67.0714H110.266C109.79 67.0714 109.334 66.8841 108.997 66.5507C108.66 66.2173 108.471 65.7652 108.471 65.2937V49.1788C108.471 48.7074 108.66 48.2552 108.997 47.9218C109.334 47.5884 109.79 47.4011 110.266 47.4011H127.461Z" fill="#020202"/>
<path d="M82.9585 64.1244H95.775C95.8847 64.1244 95.9934 64.1458 96.0947 64.1874C96.1961 64.2289 96.2882 64.2899 96.3658 64.3667C96.4433 64.4435 96.5049 64.5347 96.5469 64.635C96.5888 64.7354 96.6104 64.843 96.6104 64.9516C96.6104 65.0602 96.5888 65.1678 96.5469 65.2682C96.5049 65.3685 96.4433 65.4597 96.3658 65.5365C96.2882 65.6134 96.1961 65.6743 96.0947 65.7159C95.9934 65.7574 95.8847 65.7788 95.775 65.7788H82.9585C82.8488 65.7788 82.7401 65.7574 82.6388 65.7159C82.5374 65.6743 82.4453 65.6134 82.3677 65.5365C82.2902 65.4597 82.2286 65.3685 82.1866 65.2682C82.1447 65.1678 82.123 65.0602 82.123 64.9516C82.123 64.7322 82.2111 64.5218 82.3677 64.3667C82.5244 64.2115 82.7369 64.1244 82.9585 64.1244Z" fill="#473F47"/>
<path d="M85.0309 59.6981L84.6493 62.1916L85.7056 62.311L86.8584 59.6742L85.0309 59.6981Z" fill="#FCBDBA"/>
<path d="M86.023 61.945C85.9717 61.9042 85.927 61.8559 85.8905 61.8018C85.8365 61.8352 85.7758 61.8564 85.7126 61.864C85.6495 61.8715 85.5854 61.8652 85.525 61.8456L84.9948 61.7581C84.9016 61.747 84.8108 61.7215 84.7257 61.6825H84.6895L84.5771 61.8973C84.3847 62.2809 84.2714 62.6987 84.2437 63.1262C85.247 63.3616 86.2782 63.4593 87.3083 63.4165C87.3907 63.4277 87.4747 63.417 87.5516 63.3856C87.6285 63.3542 87.6956 63.3031 87.7461 63.2375C87.7659 63.193 87.7761 63.1449 87.7761 63.0963C87.7761 63.0477 87.7659 62.9996 87.7461 62.9551C87.6975 62.8543 87.6291 62.7641 87.545 62.6897C87.4609 62.6153 87.3627 62.5582 87.2561 62.5216C86.983 62.4103 86.7058 62.3148 86.4528 62.1876C86.2991 62.1264 86.1545 62.0448 86.023 61.945Z" fill="#6937FF"/>
<path d="M92.1162 60.4576L91.7868 62.9591L92.8472 63.0546L93.9437 60.3979L92.1162 60.4576Z" fill="#FCBDBA"/>
<path opacity="0.1" d="M128.132 25.607V33.3264C128.132 34.3411 127.725 35.3142 127 36.0317C126.275 36.7492 125.293 37.1523 124.268 37.1523H101.643L92.4736 47.5959V21.7811H124.268C124.775 21.7811 125.278 21.8801 125.747 22.0724C126.215 22.2646 126.641 22.5464 127 22.9017C127.359 23.257 127.644 23.6787 127.838 24.1429C128.032 24.6071 128.132 25.1046 128.132 25.607Z" fill="#020202"/>
<path d="M123.336 18.4961H97.751C95.6171 18.4961 93.8872 20.209 93.8872 22.322V30.0414C93.8872 32.1543 95.6171 33.8672 97.751 33.8672H123.336C125.47 33.8672 127.2 32.1543 127.2 30.0414V22.322C127.2 20.209 125.47 18.4961 123.336 18.4961Z" fill="white"/>
<path opacity="0.1" d="M98.3778 31.9624C98.248 31.9738 98.1172 31.9548 97.9962 31.9067C97.8006 31.7718 97.6664 31.5661 97.6227 31.334C96.9921 29.4052 95.6868 27.528 93.7267 26.9593C93.2167 29.0154 93.2528 31.163 93.293 33.2827C93.293 33.8475 93.3572 34.4957 93.8151 34.8298C94.1136 35.0122 94.4608 35.1009 94.8112 35.0843C97.0338 35.1679 99.2425 34.7018 101.238 33.7282C101.836 33.4339 103.069 32.2845 101.92 31.9107C101.575 31.7953 100.812 31.9703 100.442 31.9703L98.3778 31.9624Z" fill="#020202"/>
<path d="M84.9388 42.3423L86.5133 51.0082L84.9388 60.3303L87.4893 60.5252L91.2045 50.0259L89.9474 41.706L84.9388 42.3423Z" fill="#473F47"/>
<path d="M93.7426 41.706L96.5742 53.2433L94.2848 61.1854L92.0155 61.0701L92.3328 54.2932L88.3364 43.3366L93.7426 41.706Z" fill="#473F47"/>
<path d="M101.539 32.1373C101.879 31.9403 102.244 31.7866 102.623 31.6799C102.683 31.6536 102.748 31.642 102.813 31.6461C102.878 31.6503 102.941 31.6701 102.997 31.7038C103.056 31.7584 103.094 31.8314 103.105 31.9106C103.164 32.1653 103.143 32.4317 103.045 32.6742C103.473 32.9089 103.922 33.1033 104.386 33.2548C104.483 33.2712 104.576 33.3072 104.658 33.3606C104.74 33.414 104.81 33.4836 104.864 33.565C104.893 33.6502 104.895 33.7419 104.871 33.8284C104.847 33.9148 104.797 33.9921 104.728 34.0502C104.587 34.1655 104.418 34.2411 104.238 34.269C103.073 34.5394 101.177 34.269 100.9 32.889C100.84 32.5867 100.952 32.535 101.193 32.364C101.322 32.2805 101.438 32.2089 101.539 32.1373Z" fill="#FCBDBA"/>
<path d="M92.7868 21.4908C93.0516 22.017 93.2215 22.585 93.2889 23.1691C93.32 23.4607 93.2737 23.7553 93.1547 24.0239C93.0356 24.2924 92.8479 24.5255 92.6101 24.7003C92.4651 24.7666 92.33 24.8522 92.2085 24.9548C91.7827 25.3883 92.2687 26.1718 92.0237 26.7325C91.9292 26.9171 91.7686 27.0602 91.5732 27.1337C91.3779 27.2073 91.1618 27.206 90.9674 27.1302C90.7728 27.046 90.5998 26.9198 90.4608 26.7608C90.3218 26.6019 90.2204 26.4142 90.1641 26.2115C90.0558 25.8043 90.0071 25.3837 90.0195 24.9627L89.9753 22.4572C89.919 21.8996 90.0074 21.3369 90.2324 20.8227C90.3855 20.5608 90.6087 20.3458 90.8772 20.2012C91.1458 20.0567 91.4493 19.9882 91.7546 20.0034C92.3932 20.083 92.574 20.9977 92.7868 21.4908Z" fill="#FCBDBA"/>
<path d="M101.615 34.0025C101.615 34.0025 96.7633 38.2937 96.4139 38.2937C96.0645 38.2937 93.9076 35.5973 93.9076 35.5973L93.743 41.7219C93.1439 42.0718 92.5197 42.3775 91.8753 42.6366C90.766 43.1381 89.5559 43.3829 88.3368 43.3525C85.9791 43.1417 84.9388 42.3582 84.9388 42.3582L86.3928 27.9733C86.3928 27.9733 89.1401 26.0167 90.0799 26.3149C90.752 26.4342 91.4402 26.4342 92.1123 26.3149C93.4698 26.136 94.8555 27.9733 94.8555 27.9733L96.6589 33.8394L100.888 32.352C101.164 32.5222 101.381 32.771 101.51 33.0656C101.64 33.3602 101.677 33.6869 101.615 34.0025Z" fill="white"/>
<path d="M93.3212 18.7905C93.3524 18.4745 93.2776 18.1572 93.1083 17.8877C92.783 17.4383 92.1163 17.3985 91.57 17.5178C91.1945 17.6198 90.8309 17.7611 90.4856 17.9394C90.2316 18.043 89.9546 18.0786 89.6823 18.0428C88.9612 18.0301 88.2622 18.2888 87.7263 18.7666C86.9872 19.4586 86.8145 20.4807 86.7382 21.4391C86.6579 22.5249 87.1399 23.4277 87.8669 24.2549C88.4814 24.9747 89.602 25.6826 90.4012 24.7719C90.7577 24.3089 90.9202 23.7278 90.8551 23.1493C90.6637 23.1299 90.4832 23.0515 90.3391 22.9253C90.195 22.799 90.0945 22.6311 90.0518 22.4453C90.0243 22.3286 90.0299 22.2066 90.0682 22.0928C90.1065 21.9791 90.1759 21.8781 90.2687 21.8011C90.3257 21.7671 90.3888 21.7446 90.4546 21.7348C90.5203 21.725 90.5874 21.7281 90.6519 21.744C90.7164 21.7599 90.7772 21.7882 90.8306 21.8273C90.8841 21.8665 90.9293 21.9156 90.9635 21.9721C90.9866 22.0077 91.0042 22.0466 91.0158 22.0874C91.1316 21.8567 91.2166 21.612 91.2688 21.3596C91.3612 21.117 91.6704 20.9062 91.8713 21.0693C91.9877 21.1608 92.056 21.3636 92.2046 21.3318C92.254 21.3134 92.2971 21.2817 92.3291 21.2403C92.6216 20.9618 92.8682 20.6398 93.0601 20.2858C93.2399 19.8682 93.3341 19.4194 93.3373 18.9654C93.322 18.9084 93.3166 18.8493 93.3212 18.7905Z" fill="#FC682D"/>
<path d="M83.7858 18.2576C83.275 18.1976 82.7579 18.2934 82.3036 18.5322C81.8493 18.7709 81.4794 19.1414 81.2434 19.5939C80.6851 20.7273 81.0868 22.0676 81.1791 23.3283C81.263 23.7659 81.1942 24.2188 80.9841 24.6126C80.7739 25.0064 80.4348 25.3178 80.0224 25.4958C79.1227 26.0327 78.0865 26.3946 77.3675 27.1542C76.8014 27.7786 76.4671 28.5753 76.4196 29.4131C76.3747 29.7624 76.4362 30.1169 76.5963 30.4312C76.7534 30.6637 76.9588 30.8603 77.1988 31.0079C77.8644 31.4843 78.6193 31.8244 79.4194 32.0081C80.2195 32.1918 81.0485 32.2154 81.8579 32.0777C82.6652 31.9261 83.4123 31.5502 84.0118 30.9938C84.6114 30.4375 85.0387 29.7237 85.2438 28.9359C85.5972 27.2576 84.7377 25.5912 84.4124 23.905C84.3529 23.7074 84.3339 23.5 84.3567 23.2951C84.3795 23.0902 84.4435 22.8919 84.5449 22.7119C84.814 22.3539 85.3121 22.2704 85.7017 22.0437C87.8103 20.8148 85.3322 18.4644 83.7858 18.2576Z" fill="#FC682D"/>
<path d="M86.7902 19.8802H86.7541C86.3126 19.8802 85.9548 20.2345 85.9548 20.6716V20.7074C85.9548 21.1445 86.3126 21.4988 86.7541 21.4988H86.7902C87.2316 21.4988 87.5895 21.1445 87.5895 20.7074V20.6716C87.5895 20.2345 87.2316 19.8802 86.7902 19.8802Z" fill="#6937FF"/>
<path d="M93.1521 62.6847C93.1018 62.643 93.0572 62.5948 93.0196 62.5416C92.9664 62.5767 92.9062 62.5999 92.8431 62.6095C92.7799 62.6191 92.7154 62.6149 92.6541 62.5972L92.1239 62.5177C92.0298 62.5075 91.9377 62.4833 91.8508 62.4461H91.8146L91.7062 62.6648C91.5249 63.0538 91.4213 63.4738 91.4009 63.9017C92.4089 64.1134 93.4409 64.191 94.4695 64.1324C94.5525 64.1424 94.6367 64.1299 94.7131 64.0963C94.7895 64.0627 94.8552 64.0092 94.9033 63.9415C94.9231 63.897 94.9333 63.8489 94.9333 63.8003C94.9333 63.7517 94.9231 63.7036 94.9033 63.6591C94.8534 63.5591 94.7836 63.4702 94.698 63.3977C94.6124 63.3252 94.5128 63.2707 94.4053 63.2375C94.1281 63.1302 93.847 63.0427 93.5779 62.9154C93.4259 62.8583 93.2826 62.7807 93.1521 62.6847Z" fill="#6937FF"/>
<path d="M93.3774 65.7787H91.7508L90.4535 69.2547H83.75L85.0473 65.7787H83.4206L72.0098 96.3063H73.6365L74.7651 93.2877H81.4566L80.3279 96.3063H81.9546L83.0832 93.2877H83.1314V93.1605L93.2811 66.0134V96.3063H94.9077V65.7787H93.3774ZM90.0116 70.4398L88.3207 74.9656H81.6132L83.3041 70.4398H90.0116ZM79.4764 80.6965L81.1674 76.1747H87.8829L86.184 80.6965H79.4764ZM85.7421 81.8896L84.0512 86.4115H77.3437L79.0467 81.8658L85.7421 81.8896ZM75.2069 92.1264L76.8979 87.6006H83.6054L81.9144 92.1264H75.2069Z" fill="#6937FF"/>
<path d="M134.723 45.2852H110.266C109.275 45.2852 108.471 46.0811 108.471 47.0629V63.1738C108.471 64.1556 109.275 64.9515 110.266 64.9515H134.723C135.714 64.9515 136.518 64.1556 136.518 63.1738V47.0629C136.518 46.0811 135.714 45.2852 134.723 45.2852Z" fill="white"/>
<path d="M132.228 62.2354H112.761V48.0056H113.11V61.8854H132.228V62.2354Z" fill="#6937FF"/>
<path d="M112.99 57.1209L112.805 56.8226L117.713 53.8359L124.931 54.9375L131.309 51.2946L131.486 51.5968L124.999 55.3034L124.939 55.2914L117.789 54.2017L112.99 57.1209Z" fill="#6937FF"/>
<path d="M117.97 54.8143C118.396 54.8143 118.741 54.4724 118.741 54.0507C118.741 53.629 118.396 53.2871 117.97 53.2871C117.544 53.2871 117.199 53.629 117.199 54.0507C117.199 54.4724 117.544 54.8143 117.97 54.8143Z" fill="#6937FF"/>
<path d="M124.963 55.884C125.389 55.884 125.734 55.5422 125.734 55.1205C125.734 54.6987 125.389 54.3569 124.963 54.3569C124.537 54.3569 124.192 54.6987 124.192 55.1205C124.192 55.5422 124.537 55.884 124.963 55.884Z" fill="#6937FF"/>
<path d="M131.265 52.3246C131.691 52.3246 132.036 51.9827 132.036 51.561C132.036 51.1393 131.691 50.7974 131.265 50.7974C130.839 50.7974 130.493 51.1393 130.493 51.561C130.493 51.9827 130.839 52.3246 131.265 52.3246Z" fill="#6937FF"/>
<path opacity="0.28" d="M117.97 54.8143C118.396 54.8143 118.741 54.4724 118.741 54.0507C118.741 53.629 118.396 53.2871 117.97 53.2871C117.544 53.2871 117.199 53.629 117.199 54.0507C117.199 54.4724 117.544 54.8143 117.97 54.8143Z" fill="#020202"/>
<path opacity="0.28" d="M124.963 55.884C125.389 55.884 125.734 55.5422 125.734 55.1205C125.734 54.6987 125.389 54.3569 124.963 54.3569C124.537 54.3569 124.192 54.6987 124.192 55.1205C124.192 55.5422 124.537 55.884 124.963 55.884Z" fill="#020202"/>
<path opacity="0.28" d="M131.265 52.3246C131.691 52.3246 132.036 51.9827 132.036 51.561C132.036 51.1393 131.691 50.7974 131.265 50.7974C130.839 50.7974 130.493 51.1393 130.493 51.561C130.493 51.9827 130.839 52.3246 131.265 52.3246Z" fill="#020202"/>
<path d="M133.988 69.8831C133.988 69.8831 128.409 80.3227 127.365 83.6037C126.32 86.8848 126.417 96.5529 126.417 96.5529H129.453C129.453 96.5529 129.453 86.7973 130.742 85.1548C132.032 83.5123 139.217 75.1287 139.217 75.1287L133.988 69.8831Z" fill="#473F47"/>
<path d="M133.369 71.1517C133.369 71.1517 136.751 84.6736 138.502 87.7001C140.254 90.7266 145.041 96.1791 145.041 96.1791L147.62 94.811C147.62 94.811 140.989 86.1968 141.358 83.6753C141.728 81.1539 142.668 71.5057 142.668 71.5057C142.668 71.5057 137.996 68.9962 133.369 71.1517Z" fill="#473F47"/>
<path d="M144.836 51.7201C144.836 51.7201 147.531 53.0842 146.527 56.3653C145.523 59.6463 142.346 67.0356 142.692 69.2229C143.037 71.4103 142.668 71.4819 142.668 71.4819C142.668 71.4819 135.578 74.0112 133.369 71.1398C133.369 71.1398 137.587 56.3653 138.482 54.5199C139.378 52.6746 141.937 50.6304 144.836 51.7201Z" fill="#6937FF"/>
<path d="M143.439 59.0139C143.177 59.8213 142.809 60.5914 142.346 61.3047C142.112 61.7314 141.832 62.1314 141.511 62.4978C140.599 63.4682 139.233 63.838 138.012 64.371C137.794 64.4558 137.591 64.5769 137.414 64.7289C137.232 64.9331 137.088 65.1673 136.988 65.4209C136.325 66.8566 135.434 68.3122 133.98 68.9604C134.578 66.6975 135.185 64.4346 135.868 62.1995C135.947 61.7851 136.116 61.3926 136.364 61.0493C136.611 60.706 136.931 60.42 137.301 60.211C138.828 59.1014 140.342 57.9719 141.884 56.8822C142.41 56.5084 142.961 56.0868 143.406 56.7629C143.796 57.3555 143.619 58.3935 143.439 59.0139Z" fill="url(#paint4_linear)"/>
<path d="M139.824 45.9534C139.671 46.1085 139.474 46.2676 139.474 46.4824C139.5 46.644 139.568 46.7961 139.671 46.9238C140.137 47.7192 139.711 48.8328 140.274 49.5526C140.483 49.7989 140.763 49.9764 141.077 50.0617C141.396 50.1044 141.704 50.2027 141.989 50.352C142.204 50.5621 142.327 50.848 142.33 51.1474C142.362 51.5054 142.298 51.8633 142.33 52.2212C142.322 52.3411 142.345 52.4611 142.397 52.5697C142.449 52.6783 142.528 52.7719 142.627 52.8416C142.727 52.8851 142.836 52.9055 142.945 52.9013C143.571 52.9293 144.198 52.8812 144.812 52.7581C144.901 52.7467 144.985 52.7139 145.057 52.6627C145.128 52.5804 145.174 52.4796 145.19 52.3723C145.455 51.1792 145.728 49.9861 145.993 48.793C146.149 48.364 146.344 47.95 146.575 47.5562C146.787 46.9609 146.858 46.3257 146.784 45.6989C146.716 45.2296 146.555 44.7783 146.31 44.3706C146.11 43.9859 145.818 43.6555 145.459 43.4082C145.194 43.2538 144.909 43.1373 144.611 43.0622C143.583 42.748 141.977 42.3264 141.085 43.2014C140.354 43.9331 140.595 45.1938 139.824 45.9534Z" fill="#FCBDBA"/>
<path d="M139.715 47.2897C139.936 47.1545 140.651 47.4368 140.92 47.4329C141.767 47.409 142.458 47.8306 143.137 47.3135C143.691 46.9158 143.912 46.204 144.105 45.5517C144.109 45.516 144.109 45.48 144.105 45.4444C144.097 45.3987 144.079 45.3552 144.053 45.3171C143.739 44.8637 143.101 44.816 142.563 44.6847C141.603 44.41 140.74 43.874 140.072 43.1377C139.895 42.987 139.776 42.7805 139.735 42.5531C139.745 42.4217 139.787 42.2946 139.857 42.1825C139.927 42.0704 140.023 41.9765 140.137 41.9088C140.823 41.4792 141.653 41.3363 142.446 41.5111C143.227 41.6898 143.998 41.9102 144.756 42.1713C145.487 42.3741 146.242 42.4974 146.969 42.7281C147.124 42.7722 147.271 42.8392 147.407 42.9269C147.584 43.0661 147.722 43.2483 147.808 43.4558C147.937 43.7172 148.004 44.0042 148.004 44.295C148.004 44.5858 147.937 44.8728 147.808 45.1341C147.756 45.2108 147.716 45.2954 147.692 45.3847C147.688 45.4749 147.7 45.5652 147.728 45.6512C147.909 46.4466 147.511 47.242 147.125 47.93L146.121 49.7833C146.019 50.0069 145.868 50.2053 145.679 50.3639C145.584 50.4409 145.465 50.485 145.342 50.4893C145.219 50.4936 145.098 50.4579 144.997 50.3878C144.788 50.2088 144.776 49.8509 144.531 49.7316C144.448 49.7046 144.36 49.696 144.273 49.7063C144.186 49.7166 144.103 49.7456 144.029 49.7912C143.587 50.002 143.225 50.3361 142.792 50.5866C142.042 51.0004 141.158 51.1074 140.329 50.8849C140.086 50.8253 139.858 50.714 139.663 50.5588C139.233 50.1929 139.261 49.7037 139.349 49.2066C139.438 48.7095 139.261 47.5681 139.715 47.2897Z" fill="#473F47"/>
<path d="M144.209 56.8703C144.209 56.8703 141.31 64.2556 129.798 65.6675L129.397 64.0767C129.397 64.0767 137.084 61.0661 138.743 58.0117C139.22 57.1534 139.632 56.2614 139.976 55.3431C140.498 53.9114 142.173 53.1399 143.515 53.8836C144.31 54.325 144.804 55.2 144.209 56.8703Z" fill="#6937FF"/>
<path d="M127.449 63.7466C127.462 63.9483 127.548 64.1388 127.69 64.2835C126.952 64.5561 126.172 64.6988 125.385 64.7051C125.241 64.6886 125.097 64.7286 124.983 64.8165C124.83 64.9795 124.951 65.246 125.091 65.417C125.69 66.0852 126.517 66.5103 127.413 66.6101C127.997 66.7224 128.602 66.6251 129.12 66.3357C129.477 66.0701 129.779 65.7377 130.007 65.3573C130.054 65.2992 130.089 65.2331 130.112 65.1625C130.129 65.0227 130.095 64.8815 130.016 64.7648C129.923 64.5937 129.795 64.2557 129.614 64.1722C129.433 64.0887 129.184 64.1722 128.999 64.1404C128.469 64.021 127.995 63.687 127.449 63.7466Z" fill="#FCBDBA"/>
<path d="M149.756 96.374C149.815 96.4153 149.862 96.4696 149.894 96.5325C149.927 96.5955 149.944 96.6652 149.944 96.7359C149.944 96.8067 149.927 96.8764 149.894 96.9393C149.862 97.0023 149.815 97.0566 149.756 97.0978C148.51 98.4276 147.017 99.5077 145.358 100.279C144.901 100.49 144.27 100.641 143.957 100.248C143.643 99.8539 143.977 99.2574 144.242 98.804C144.6 98.1954 144.819 97.5168 144.884 96.8155C144.885 96.5753 144.933 96.3376 145.025 96.1155C145.35 95.5229 146.949 94.9224 147.612 94.9224C148.491 94.9145 149.218 95.7695 149.756 96.374Z" fill="#6937FF"/>
<path d="M130.457 98.6925C130.489 98.7563 130.504 98.8267 130.502 98.8976C130.5 98.9686 130.481 99.038 130.446 99.0999C130.411 99.1617 130.361 99.2142 130.3 99.2527C130.24 99.2912 130.171 99.3146 130.1 99.3209C128.352 99.8618 126.515 100.064 124.69 99.9175C124.184 99.8737 123.561 99.6947 123.485 99.1976C123.409 98.7005 123.999 98.3465 124.457 98.088C125.068 97.7345 125.597 97.2559 126.007 96.6842C126.126 96.4747 126.287 96.2919 126.481 96.1473C127.06 95.7893 128.754 96.0399 129.333 96.37C130.096 96.8035 130.297 97.9011 130.457 98.6925Z" fill="#6937FF"/>
<path d="M55.02 95.0854C55.0028 95.5926 55.0974 96.0975 55.2971 96.5649C55.5491 97.0004 55.9286 97.3499 56.3856 97.5671C57.3646 98.0722 58.5028 98.1833 59.5626 97.8773C59.7065 97.8487 59.8357 97.7713 59.9281 97.6585C59.9829 97.5633 60.0054 97.4532 59.9924 97.3444C59.912 96.7656 59.6153 96.2377 59.161 95.8649C58.7082 95.4999 58.3212 95.0615 58.0163 94.5684C57.5303 93.5901 57.8918 90.9891 56.0402 91.4186C54.4938 91.7646 54.9758 94.0037 55.02 95.0854Z" fill="#FBB9AD"/>
<path d="M54.763 96.8393C54.763 96.8393 54.4979 97.4836 54.8232 97.8574C55.1486 98.2312 58.4782 100.279 60.7194 98.6289C62.9606 96.9785 57.6749 96.7677 57.6749 96.7677L54.763 96.8393Z" fill="#6937FF"/>
<path d="M54.8912 95.3519C54.9925 95.3012 55.109 95.2887 55.219 95.3164C55.329 95.3442 55.4252 95.4105 55.4896 95.503C55.7082 95.7496 55.9867 95.9371 56.2986 96.0477C56.6106 96.1583 56.9459 96.1885 57.273 96.1354C58.004 95.9643 58.2931 95.1292 58.6546 95.1252C59.0161 95.1212 60.952 96.7558 61.0645 97.4557C61.177 98.1557 60.1849 98.6727 59.0924 98.7403C57.9999 98.8079 55.5178 98.0563 55.0478 97.4875C54.8496 97.1705 54.7319 96.8107 54.7046 96.4388C54.6773 96.0669 54.7413 95.694 54.8912 95.3519Z" fill="white"/>
<path d="M48.67 96.0836C48.6485 96.5912 48.7432 97.0969 48.9471 97.5631C49.1991 97.9976 49.5787 98.3458 50.0356 98.5613C51.0131 99.0665 52.1501 99.1777 53.2086 98.8715C53.3541 98.8444 53.4851 98.7669 53.5781 98.6528C53.631 98.5583 53.6534 98.45 53.6423 98.3426C53.5612 97.764 53.2647 97.2364 52.8109 96.8631C52.3613 96.4964 51.9747 96.0599 51.6662 95.5706C51.1803 94.5962 51.5417 91.9913 49.6901 92.4208C48.1438 92.7708 48.6258 95.0138 48.67 96.0836Z" fill="#FBB9AD"/>
<path d="M48.4129 97.8454C48.4129 97.8454 48.1478 98.4857 48.4731 98.8596C48.7985 99.2334 52.1201 101.282 54.3613 99.6351C56.6025 97.9886 51.3248 97.7739 51.3248 97.7739L48.4129 97.8454Z" fill="#6937FF"/>
<path d="M48.5414 96.3541C48.6434 96.3047 48.7599 96.2931 48.8697 96.3216C48.9796 96.3501 49.0754 96.4166 49.1399 96.5092C49.3573 96.7573 49.6356 96.9459 49.9479 97.0566C50.2602 97.1674 50.5961 97.1966 50.9232 97.1415C51.6502 96.9665 51.9434 96.1353 52.3009 96.1314C52.6583 96.1274 54.5983 97.758 54.7107 98.4579C54.8232 99.1579 53.8311 99.6749 52.7386 99.7425C51.6462 99.8101 49.168 99.0624 48.6981 98.4937C48.4989 98.1763 48.3806 97.8157 48.3533 97.443C48.326 97.0703 48.3906 96.6966 48.5414 96.3541Z" fill="white"/>
<path d="M47.3404 69.0162C47.3404 69.0162 46.999 87.8553 48.4048 94.139L51.9835 94.5764L52.9595 68.8293L47.3404 69.0162Z" fill="#473F47"/>
<path d="M57.225 66.9799C57.225 66.9799 60.0727 77.1212 58.0283 93.4389L54.4497 93.8764L52.1964 67.8628L57.225 66.9799Z" fill="#473F47"/>
<path d="M62.5792 58.8628C62.539 59.5469 62.3181 60.1355 61.7197 60.3343C61.6685 60.3513 61.6161 60.3646 61.563 60.3741C60.4665 60.5928 59.0246 59.7656 58.0245 59.0418C57.6053 58.7432 57.203 58.4219 56.8196 58.0794V50.7895L62.1776 56.2062C62.4553 57.0645 62.591 57.9616 62.5792 58.8628Z" fill="white"/>
<path d="M58.0646 59.0099C58.0646 59.352 58.1088 59.694 58.1088 60.036C58.1088 61.9132 57.671 63.8539 58.2333 65.6993C58.4183 66.0912 58.4745 66.5308 58.394 66.956C58.2293 67.2973 57.9433 67.5663 57.5907 67.7116C55.9158 68.6184 53.9759 68.9048 52.0961 69.1593C50.6743 69.3581 48.658 69.7757 47.3447 69.0161C46.7864 68.694 46.5976 68.0934 46.4169 67.4929C45.9144 65.5522 45.6182 63.5649 45.5332 61.5632C45.5332 61.3007 45.4931 61.0422 45.481 60.7678C45.3712 58.9702 45.3337 57.1699 45.3686 55.367C45.3927 54.0586 45.4971 52.6467 46.3606 51.6604C47.5053 50.348 49.7224 49.4771 51.4093 49.1708C51.9546 49.0592 52.5137 49.0283 53.0681 49.0794C53.8533 49.2026 54.6114 49.4582 55.3093 49.835C56.1447 50.2327 56.8878 50.5906 57.3176 51.4059C57.7687 52.352 58.0837 53.356 58.2534 54.3887C58.4113 55.3567 58.4329 56.3418 58.3177 57.3157C58.2695 57.793 58.1449 58.2662 58.0968 58.7395C58.0779 58.8285 58.0672 58.919 58.0646 59.0099Z" fill="white"/>
<path opacity="0.1" d="M50.3169 69.6565C49.7667 69.8155 48.4975 69.3144 48.0757 69.2588C47.8227 69.215 47.5938 69.0877 47.3407 69.0321C46.0836 68.7219 45.935 65.2221 45.8145 64.2795C45.4891 61.7939 44.9871 59.2168 44.9509 56.7232C44.8944 55.7608 45.0072 54.7959 45.2843 53.8717C45.4254 53.4101 45.6672 52.9848 45.9928 52.626C46.3183 52.2673 46.7195 51.9838 47.168 51.7957C48.7746 51.223 49.2526 56.2539 49.4735 57.2959C49.6944 58.3379 49.7225 60.1832 50.4173 61.0184C51.1122 61.8536 52.5019 62.0087 53.4096 61.5871C53.8978 61.3444 54.304 60.9662 54.5786 60.4987C54.8532 60.0311 54.9844 59.4945 54.956 58.9543C54.9011 58.5801 54.8702 58.2029 54.8636 57.8248C54.864 57.6351 54.919 57.4494 55.0221 57.2895C55.1253 57.1297 55.2723 57.0022 55.446 56.9221C55.6098 56.8815 55.7818 56.8868 55.9428 56.9373C56.1038 56.9879 56.2474 57.0817 56.3577 57.2084C56.5717 57.4692 56.7253 57.7733 56.8075 58.0993C57.0153 58.7806 57.15 59.4818 57.2092 60.1912C57.3699 61.8734 57.1128 63.5995 57.5185 65.242C57.7 65.7526 57.787 66.2915 57.7755 66.8328C57.6832 67.2806 57.4379 67.6832 57.0809 67.973C56.7239 68.2627 56.2771 68.4218 55.8155 68.4236C55.3525 68.4061 54.9006 68.278 54.4985 68.0502C54.0963 67.8223 53.7558 67.5015 53.506 67.1151C53.4258 66.9769 53.3178 66.8564 53.1887 66.7612C53.0446 66.6895 52.8836 66.6579 52.7228 66.6697C51.9557 66.6697 50.8551 66.8447 50.6061 67.6958C50.4294 68.3043 50.8551 68.8889 50.5218 69.5173C50.4728 69.5867 50.4 69.6361 50.3169 69.6565Z" fill="#020202"/>
<path d="M54.6627 46.7767C54.5292 47.0405 54.3016 47.2459 54.0241 47.3533C53.6855 47.4291 53.3632 47.5637 53.0722 47.751C52.8362 48.0042 52.686 48.324 52.6424 48.6658L52.4135 49.7236L52.293 50.2566C52.2773 50.3529 52.2447 50.4458 52.1966 50.531C52.1288 50.6059 52.0449 50.6648 51.951 50.7034C51.8572 50.7419 51.7558 50.7591 51.6544 50.7537C51.231 50.771 50.812 50.6645 50.4494 50.4475C50.386 50.4201 50.3337 50.3725 50.3008 50.3122C50.269 50.2382 50.2606 50.1564 50.2767 50.0776L50.4092 48.5544C50.4829 48.1379 50.4166 47.709 50.2205 47.3335C49.7779 46.5366 49.4494 45.6826 49.2445 44.7961C49.1728 44.5499 49.156 44.2912 49.1952 44.0379C49.2344 43.7846 49.3287 43.5428 49.4715 43.3291C49.6143 43.1155 49.8023 42.9351 50.0225 42.8004C50.2427 42.6657 50.4897 42.58 50.7466 42.5491C51.498 42.3207 52.3001 42.3124 53.0561 42.5252C53.3373 42.6207 53.4216 42.8116 53.5541 43.0621C53.7509 43.4598 53.9558 43.8575 54.1044 44.2552C54.253 44.6529 54.4538 45.1779 54.6024 45.6552C54.7564 46.0101 54.7777 46.4076 54.6627 46.7767Z" fill="#FBB9AD"/>
<path d="M66.0332 54.4483C66.0814 54.3687 66.1738 54.2892 66.2501 54.3369C66.2812 54.3677 66.3034 54.4061 66.3144 54.4483C66.3584 54.5247 66.4222 54.5881 66.4991 54.6321C66.576 54.6761 66.6633 54.6991 66.7522 54.6988C66.9249 54.6988 67.1056 54.671 67.2823 54.671C67.5133 54.6782 67.7394 54.7383 67.9429 54.8467C68.1464 54.955 68.3217 55.1086 68.4552 55.2954C68.7206 55.6733 68.8686 56.1198 68.8809 56.5799C68.9282 56.9935 68.8131 57.4093 68.5596 57.7412C68.1579 58.2065 67.4309 58.2185 66.8084 58.1986H66.2381C66.1033 58.2161 65.9669 58.1817 65.8571 58.1025C65.7472 58.0233 65.6722 57.9054 65.6476 57.7731C65.4147 57.2123 64.9929 56.6515 65.2821 56.0868C65.5713 55.5221 65.6878 54.846 66.0332 54.4483Z" fill="#FBB9AD"/>
<path d="M54.8231 60.3741V56.1585C54.823 55.9936 54.8732 55.8324 54.967 55.6962C55.0609 55.56 55.1941 55.455 55.3493 55.3949L65.8925 51.2389C66.4387 51.0242 67.5513 51.6685 67.5513 52.2491L67.0332 62.0047C67.0334 62.1676 66.9847 62.3268 66.8931 62.4621C66.8015 62.5974 66.6713 62.7026 66.5191 62.7643L56.4779 67.3458C55.9276 67.5685 54.807 66.9243 54.807 66.3397L54.8231 60.3741Z" fill="#6937FF"/>
<path d="M54.8231 60.3741V56.1585C54.8192 55.9933 54.8674 55.831 54.961 55.6941C55.0545 55.5573 55.1888 55.4527 55.3452 55.3949L65.8924 51.2389C66.4387 51.0242 67.5513 51.6685 67.5513 52.2491L67.0331 62.0047C67.0329 62.1675 66.9839 62.3265 66.8924 62.4617C66.8009 62.5969 66.6709 62.7022 66.519 62.7643L56.4778 67.3458C55.9316 67.5685 54.811 66.9243 54.811 66.3397L54.8231 60.3741Z" fill="url(#paint5_linear)"/>
<path d="M55.3493 60.6207V56.405C55.3489 56.2395 55.3989 56.0778 55.4928 55.9409C55.5867 55.804 55.72 55.6982 55.8755 55.6375L66.4187 51.4855C66.5448 51.4354 66.6814 51.4167 66.8165 51.4311C66.9516 51.4454 67.0811 51.4923 67.1936 51.5676C67.3062 51.643 67.3984 51.7445 67.4621 51.8633C67.5259 51.9821 67.5593 52.1145 67.5594 52.2491V62.2632C67.5591 62.4259 67.5101 62.5849 67.4186 62.7201C67.3271 62.8553 67.1972 62.9607 67.0453 63.0228L56.502 67.3577C56.4008 67.3993 56.2923 67.4207 56.1827 67.4206C56.0731 67.4205 55.9646 67.3989 55.8634 67.3572C55.7623 67.3154 55.6704 67.2542 55.5932 67.1772C55.516 67.1002 55.455 67.0088 55.4136 66.9083C55.3708 66.809 55.349 66.7021 55.3493 66.5941V60.6207Z" fill="#6937FF"/>
<path d="M55.3493 56.405L62.579 60.0877L67.3586 51.736C67.3586 51.736 67.5433 51.6286 67.5433 52.249V62.2631L55.3493 66.0174V56.405Z" fill="url(#paint6_linear)"/>
<path d="M52.8432 42.9985C52.7695 43.109 52.6744 43.2038 52.5634 43.2776C52.4524 43.3513 52.3277 43.4024 52.1965 43.428C51.4816 43.5791 51.0478 43.2371 50.6863 44.0604C50.5697 44.3422 50.5336 44.6504 50.5819 44.9512C50.5819 45.0148 50.8068 45.7188 50.863 45.683C50.6783 45.8142 50.5337 45.4563 50.3329 45.3529C50.1321 45.2495 49.8348 45.5517 49.883 45.8102C49.9668 46.0641 50.1164 46.2917 50.3168 46.4704C50.6379 46.8651 50.8148 47.3556 50.8189 47.8624C50.8189 47.9777 50.7747 48.1328 50.6542 48.1368C50.5337 48.1408 50.4012 47.9737 50.3088 47.9101C50.1617 47.8125 50.0072 47.726 49.8469 47.6516C49.3569 47.4209 48.6178 47.3493 48.2082 47.0232C47.997 46.8492 47.8547 46.607 47.8065 46.3392C47.8065 46.2756 47.8065 45.5915 47.927 45.6273C47.8053 45.5915 47.6921 45.532 47.5939 45.4523C47.4957 45.3726 47.4145 45.2744 47.355 45.1633C47.2956 45.0523 47.2591 44.9306 47.2476 44.8054C47.2362 44.6802 47.25 44.554 47.2884 44.4342C47.3423 44.2658 47.4408 44.1148 47.5736 43.9967C47.0715 43.3047 47.3045 42.2787 47.9069 41.6702C48.5536 41.0979 49.3719 40.7515 50.2365 40.6839C51.1757 40.5372 52.1362 40.5997 53.048 40.8668C53.3644 40.9535 53.6568 41.1098 53.9035 41.3242C54.0241 41.4322 54.1166 41.5674 54.1732 41.7183C54.2299 41.8692 54.2489 42.0314 54.2289 42.1912C54.1758 42.2126 54.1176 42.2183 54.0613 42.2077C54.005 42.1972 53.953 42.1707 53.9115 42.1315C53.9647 42.275 53.9582 42.4334 53.8934 42.5721C53.8286 42.7108 53.7109 42.8184 53.5661 42.8712C53.4577 42.9103 53.34 42.9168 53.2278 42.8899C53.1156 42.863 53.014 42.8039 52.9355 42.7201C52.9275 42.8188 52.8958 42.9143 52.8432 42.9985Z" fill="#473F47"/>
<path d="M53.3011 47.576L53.1806 47.6118C53.1445 47.6155 53.1106 47.6309 53.0842 47.6556C53.0763 47.6829 53.0763 47.7118 53.0842 47.7391C52.8483 47.9923 52.698 48.312 52.6545 48.6538L52.4255 49.7117C52.0389 49.0355 51.7471 48.3103 51.558 47.5562C52.1367 47.6224 52.7209 47.629 53.3011 47.576Z" fill="#DC9F95"/>
<path d="M53.9111 60.4138C53.9788 60.3315 54.0658 60.2671 54.1646 60.2262C54.2634 60.1852 54.3709 60.1691 54.4775 60.1791C54.5985 60.2394 54.7141 60.3099 54.8229 60.3899C54.9254 60.4352 55.036 60.4595 55.1482 60.4615C55.6024 60.4937 56.0583 60.43 56.4857 60.2746C56.7014 60.1705 56.9367 60.1122 57.1765 60.1036C57.3199 60.1312 57.4555 60.1893 57.574 60.2737C57.6926 60.3581 57.7913 60.467 57.8634 60.5927C58.0771 60.8963 58.1973 61.2548 58.2094 61.6247C58.2216 61.9946 58.1251 62.36 57.9316 62.6767C57.7522 62.9341 57.516 63.1476 57.2408 63.3011C56.6309 63.6174 55.9532 63.7838 55.2647 63.7863C54.5819 63.8181 53.887 63.7863 53.2083 63.8181C53.0475 63.8472 52.8815 63.8249 52.7343 63.7545C52.653 63.6796 52.59 63.5872 52.5504 63.4845C52.5107 63.3818 52.4953 63.2714 52.5054 63.1619C52.4813 62.6489 52.3929 62.2154 52.6942 61.7819C53.0728 61.3029 53.4791 60.8461 53.9111 60.4138Z" fill="#FBB9AD"/>
<path d="M46.3686 51.6644C46.3686 51.6644 38.8217 61.4359 41.2074 64.8879C43.5932 68.3399 53.6585 64.3192 53.6585 64.3192L52.6785 61.4597C52.6785 61.4597 45.6095 62.3466 45.5573 61.5631C45.5051 60.7797 50.0397 56.2936 50.0397 56.2936C50.0397 56.2936 50.851 49.7276 46.3686 51.6644Z" fill="white"/>
</g>
<defs>
<linearGradient id="paint0_linear" x1="92.8268" y1="63.6749" x2="98.6802" y2="113.91" gradientUnits="userSpaceOnUse">
<stop offset="0.01"/>
<stop offset="0.08" stop-opacity="0.69"/>
<stop offset="0.21" stop-opacity="0.32"/>
<stop offset="1" stop-opacity="0"/>
</linearGradient>
<linearGradient id="paint1_linear" x1="5699.78" y1="2834.34" x2="5761.74" y2="1590.36" gradientUnits="userSpaceOnUse">
<stop offset="0.01"/>
<stop offset="0.08" stop-opacity="0.69"/>
<stop offset="0.21" stop-opacity="0.32"/>
<stop offset="1" stop-opacity="0"/>
</linearGradient>
<linearGradient id="paint2_linear" x1="7645.78" y1="-421.418" x2="12336.3" y2="14858.2" gradientUnits="userSpaceOnUse">
<stop offset="0.01"/>
<stop offset="0.08" stop-opacity="0.69"/>
<stop offset="0.21" stop-opacity="0.32"/>
<stop offset="1" stop-opacity="0"/>
</linearGradient>
<linearGradient id="paint3_linear" x1="14884.9" y1="-2338.81" x2="14973.2" y2="-766.756" gradientUnits="userSpaceOnUse">
<stop offset="0.01"/>
<stop offset="0.08" stop-opacity="0.69"/>
<stop offset="0.21" stop-opacity="0.32"/>
<stop offset="1" stop-opacity="0"/>
</linearGradient>
<linearGradient id="paint4_linear" x1="6405.2" y1="-2259" x2="7204.48" y2="-1464.66" gradientUnits="userSpaceOnUse">
<stop offset="0.01"/>
<stop offset="0.08" stop-opacity="0.69"/>
<stop offset="0.21" stop-opacity="0.32"/>
<stop offset="1" stop-opacity="0"/>
</linearGradient>
<linearGradient id="paint5_linear" x1="52.6542" y1="49.8708" x2="80.2632" y2="80.9994" gradientUnits="userSpaceOnUse">
<stop offset="0.01"/>
<stop offset="0.13" stop-opacity="0.69"/>
<stop offset="0.25" stop-opacity="0.32"/>
<stop offset="1" stop-opacity="0"/>
</linearGradient>
<linearGradient id="paint6_linear" x1="1567.41" y1="2753.84" x2="1744.25" y2="1753.8" gradientUnits="userSpaceOnUse">
<stop offset="0.01"/>
<stop offset="0.13" stop-opacity="0.69"/>
<stop offset="0.25" stop-opacity="0.32"/>
<stop offset="1" stop-opacity="0"/>
</linearGradient>
<clipPath id="clip0">
<rect width="119.691" height="90" fill="white" transform="translate(37 13)"/>
</clipPath>
</defs>
</svg>
